<svg xmlns="http://www.w3.org/2000/svg" xmlns:xlink="http://www.w3.org/1999/xlink" width="500" zoomAndPan="magnify" viewBox="0 0 375 374.999991" height="500" preserveAspectRatio="xMidYMid meet" version="1.0"><defs><g/><clipPath id="56f947a808"><path d="M 127.542969 143.371094 L 245.292969 143.371094 L 245.292969 234.121094 L 127.542969 234.121094 Z M 127.542969 143.371094 " clip-rule="nonzero"/></clipPath><clipPath id="4d501cafe8"><path d="M 132.25 182.46875 L 151.847656 182.46875 L 151.847656 214.054688 L 132.25 214.054688 Z M 132.25 182.46875 " clip-rule="nonzero"/></clipPath><clipPath id="f074d9f704"><path d="M 126.792969 188.945312 L 137.707031 188.945312 L 137.707031 207.578125 L 126.792969 207.578125 Z M 126.792969 188.945312 " clip-rule="nonzero"/></clipPath><clipPath id="be582c162e"><path d="M 168.765625 156.585938 L 222.765625 156.585938 L 222.765625 218.835938 L 168.765625 218.835938 Z M 168.765625 156.585938 " clip-rule="nonzero"/></clipPath><clipPath id="982442d028"><path d="M 189.273438 143.371094 L 244.773438 143.371094 L 244.773438 234.121094 L 189.273438 234.121094 Z M 189.273438 143.371094 " clip-rule="nonzero"/></clipPath><clipPath id="fb3f16fd56"><path d="M 196.777344 189.730469 L 222.765625 189.730469 L 222.765625 218.835938 L 196.777344 218.835938 Z M 196.777344 189.730469 " clip-rule="nonzero"/></clipPath><clipPath id="bb816cae78"><path d="M 134.980469 182.46875 L 137.421875 182.46875 L 137.421875 214.054688 L 134.980469 214.054688 Z M 134.980469 182.46875 " clip-rule="nonzero"/></clipPath><clipPath id="a22b81c1ce"><path d="M 228.074219 182.464844 L 247.671875 182.464844 L 247.671875 214.050781 L 228.074219 214.050781 Z M 228.074219 182.464844 " clip-rule="nonzero"/></clipPath><clipPath id="d95dc4b127"><path d="M 242.21875 188.945312 L 253.132812 188.945312 L 253.132812 207.578125 L 242.21875 207.578125 Z M 242.21875 188.945312 " clip-rule="nonzero"/></clipPath><clipPath id="1e44d55be5"><path d="M 242.5 182.464844 L 244.941406 182.464844 L 244.941406 214.050781 L 242.5 214.050781 Z M 242.5 182.464844 " clip-rule="nonzero"/></clipPath></defs><g clip-path="url(#56f947a808)"><path fill="#f14902" d="M 175.0625 234.285156 L 166.40625 191.40625 L 160.421875 201.796875 L 127.542969 201.796875 L 157.386719 196.539062 L 168.804688 176.71875 L 174.597656 205.425781 L 185.054688 143.367188 L 195.738281 208.914062 L 199.863281 196.539062 L 245.105469 201.796875 L 203.652344 201.796875 L 193.984375 230.796875 L 184.96875 175.5 Z M 175.0625 234.285156 " fill-opacity="1" fill-rule="nonzero"/></g><g clip-path="url(#4d501cafe8)"><path fill="#f6e7d8" d="M 132.25 182.46875 L 151.847656 182.46875 L 151.847656 214.085938 L 132.25 214.085938 Z M 132.25 182.46875 " fill-opacity="1" fill-rule="nonzero"/></g><g clip-path="url(#f074d9f704)"><path fill="#f6e7d8" d="M 126.792969 188.945312 L 137.707031 188.945312 L 137.707031 207.574219 L 126.792969 207.574219 Z M 126.792969 188.945312 " fill-opacity="1" fill-rule="nonzero"/></g><g clip-path="url(#be582c162e)"><path fill="#f6e7d8" d="M 169.585938 208.828125 C 170.1875 208.796875 170.703125 208.207031 171.261719 207.207031 C 171.824219 206.207031 173.832031 205.605469 174.132812 205.527344 C 174.433594 205.453125 174.359375 205.59375 174.359375 205.699219 C 174.359375 205.808594 174.21875 205.925781 174.015625 206.023438 C 173.8125 206.121094 173.671875 206.109375 173.414062 206.207031 C 173.15625 206.304688 173.164062 206.742188 173.292969 206.539062 C 173.425781 206.335938 173.929688 206.378906 174.371094 206.175781 C 174.8125 205.96875 174.960938 205.28125 175.003906 205.175781 C 175.046875 205.066406 175.164062 205.175781 175.507812 205.175781 C 175.851562 205.175781 175.734375 204.992188 175.648438 204.90625 C 175.5625 204.820312 175.648438 204.765625 175.703125 204.691406 C 175.757812 204.617188 176.488281 204.410156 178.152344 204.175781 C 179.820312 203.9375 181.648438 204.152344 183.605469 204.367188 C 185.558594 204.582031 186.550781 204.550781 187.902344 204.390625 C 189.257812 204.226562 191.160156 204.5625 191.816406 204.605469 C 192.472656 204.648438 193.320312 204.292969 193.621094 204.023438 C 193.921875 203.753906 194.09375 203.410156 194.804688 202.9375 C 195.515625 202.464844 196.449219 201.464844 196.449219 201.464844 C 196.449219 201.464844 196.492188 201.488281 196.675781 201.464844 C 196.859375 201.445312 196.859375 201.21875 197.222656 200.929688 C 197.589844 200.636719 198.683594 199.433594 199.632812 198.347656 C 200.578125 197.261719 201.609375 195.445312 201.609375 195.445312 C 201.609375 195.445312 202.050781 195.910156 202.878906 196.53125 C 203.707031 197.15625 204.1875 197.304688 204.640625 197.671875 C 205.09375 198.035156 205.082031 197.875 205.082031 197.875 C 205.082031 197.875 205.542969 198.015625 206.511719 198.421875 C 207.476562 198.832031 208.886719 199.917969 209.058594 200.066406 C 209.230469 200.21875 209.058594 201.25 208.949219 202.765625 C 208.84375 204.28125 209.285156 205.550781 209.789062 206.367188 C 210.292969 207.183594 211.292969 210.644531 211.617188 211.613281 C 211.941406 212.582031 212.144531 214.429688 212.121094 214.503906 C 212.101562 214.582031 212.035156 214.699219 212.003906 214.773438 C 211.972656 214.847656 211.886719 215.160156 211.820312 215.558594 C 211.757812 215.957031 211.757812 216.742188 211.984375 217.128906 C 212.207031 217.515625 211.832031 217.589844 211.855469 218.148438 C 211.875 218.707031 213.800781 218.632812 214.023438 218.632812 C 214.25 218.632812 215.808594 218.566406 217.335938 218.429688 C 218.863281 218.289062 220.121094 217.871094 221.386719 217.214844 C 222.65625 216.558594 222.207031 216.03125 221.925781 215.75 C 221.644531 215.472656 221.042969 215.535156 219.894531 215.527344 C 218.742188 215.515625 217.507812 214.675781 217.152344 214.457031 C 216.796875 214.234375 216.839844 214.183594 216.925781 214.097656 C 217.011719 214.011719 217.453125 214.503906 217.734375 214.449219 C 218.011719 214.398438 217.605469 214.277344 217.195312 213.957031 C 216.789062 213.632812 216.722656 213.890625 216.402344 213.675781 C 216.078125 213.460938 216.273438 213.375 216.089844 213.238281 C 215.90625 213.097656 215.796875 213.195312 215.722656 213.160156 C 215.648438 213.128906 215.410156 212.945312 215.410156 212.945312 C 215.410156 212.945312 215.015625 211.785156 214.53125 210.355469 C 214.046875 208.925781 214.109375 207.035156 214.105469 205.742188 C 214.101562 204.453125 213.59375 202.28125 213.542969 201.25 C 213.488281 200.21875 213.507812 199.605469 213.722656 199.078125 C 213.9375 198.550781 213.820312 197.832031 213.390625 197.273438 C 212.960938 196.714844 213.035156 196.101562 212.25 195.316406 C 211.464844 194.53125 211.058594 193.875 211.015625 193.800781 C 210.972656 193.726562 210.8125 193.671875 210.863281 193.566406 C 210.917969 193.457031 210.875 193.445312 210.691406 193.285156 C 210.511719 193.125 209.886719 192.296875 209.199219 191.683594 C 208.511719 191.070312 207.347656 189.824219 207.339844 189.769531 C 207.328125 189.714844 206.617188 189.09375 206.511719 188.941406 C 206.402344 188.792969 205.695312 188.253906 205.523438 188.15625 C 205.351562 188.0625 205.4375 187.695312 205.46875 187.546875 C 205.5 187.394531 205.714844 186.148438 205.855469 185.769531 C 205.996094 185.394531 206.15625 184.859375 206.230469 184.535156 C 206.308594 184.210938 206.628906 183.40625 206.953125 182.523438 C 207.273438 181.644531 207.058594 181.535156 207.058594 181.535156 C 207.058594 181.535156 207.832031 181.40625 208.328125 181.222656 C 208.820312 181.042969 209.15625 180.65625 209.574219 180.472656 C 209.992188 180.289062 210.769531 180.085938 210.992188 179.914062 C 211.21875 179.742188 211.542969 179.632812 211.691406 179.632812 C 211.84375 179.632812 212.285156 179.515625 212.800781 179.269531 C 213.316406 179.019531 213.671875 178.460938 213.714844 178.386719 C 213.757812 178.3125 214.015625 178.234375 214.089844 177.988281 C 214.164062 177.742188 213.980469 177.546875 213.851562 177.527344 C 213.722656 177.503906 213.90625 177.28125 213.949219 177.183594 C 213.992188 177.085938 214.015625 176.847656 213.886719 176.710938 C 213.757812 176.570312 213.585938 176.6875 213.585938 176.6875 C 213.585938 176.6875 213.628906 176.527344 213.585938 176.257812 C 213.542969 175.988281 213.402344 175.894531 213.292969 175.859375 C 213.1875 175.828125 213.132812 175.730469 213.164062 175.71875 C 213.199219 175.710938 213.15625 175.183594 212.875 175.109375 C 212.59375 175.03125 212.304688 175.332031 212.304688 175.332031 C 212.304688 175.332031 212.285156 175.023438 212.207031 174.785156 C 212.132812 174.550781 211.875 174.539062 211.800781 174.808594 C 211.722656 175.074219 211.59375 175.128906 211.519531 175.226562 C 211.445312 175.324219 211.335938 175.34375 211.207031 175.625 C 211.078125 175.902344 210.84375 175.96875 210.777344 176.03125 C 210.714844 176.097656 210.488281 176.289062 210.425781 176.539062 C 210.359375 176.785156 210.175781 177.214844 209.972656 177.515625 C 209.769531 177.816406 209.175781 177.804688 208.683594 177.632812 C 208.1875 177.460938 207.867188 177.300781 207.867188 177.300781 C 207.867188 177.300781 207.941406 176.65625 208.210938 176.226562 C 208.476562 175.796875 208.640625 173.839844 208.628906 173.710938 C 208.617188 173.582031 208.640625 173.28125 208.898438 172.679688 C 209.15625 172.078125 208.863281 170.914062 208.703125 170.410156 C 208.542969 169.90625 208.746094 169.949219 208.5 169.089844 C 208.253906 168.226562 207.273438 167.796875 207.273438 167.796875 C 207.273438 167.796875 207.867188 167.648438 208.714844 167.710938 C 209.5625 167.777344 209.660156 167.195312 209.5625 166.9375 C 209.46875 166.679688 209.542969 166.5625 209.746094 166.261719 C 209.949219 165.960938 209.5625 165.894531 209.402344 165.648438 C 209.242188 165.402344 209.585938 165.335938 209.863281 165.316406 C 210.144531 165.292969 210.164062 165.089844 210.1875 164.972656 C 210.207031 164.851562 210.316406 164.574219 210.359375 164.574219 C 210.402344 164.574219 210.640625 164.617188 210.875 164.402344 C 211.113281 164.1875 210.757812 163.671875 210.445312 163.25 C 210.132812 162.832031 210.316406 162.800781 210.304688 162.5625 C 210.292969 162.328125 210.433594 162.015625 210.304688 161.863281 C 210.175781 161.714844 210.089844 161.378906 210.089844 161.078125 C 210.089844 160.777344 209.960938 160.511719 210.003906 160.511719 C 210.046875 160.511719 210.261719 160.253906 210.246094 160.015625 C 210.230469 159.777344 210.121094 159.347656 210.089844 159.230469 C 210.058594 159.113281 210.132812 159.035156 210.21875 158.941406 C 210.304688 158.84375 210.15625 158.359375 210.144531 158.542969 C 210.132812 158.726562 209.820312 158.433594 209.660156 158.285156 C 209.5 158.132812 209.605469 158.167969 209.542969 157.929688 C 209.476562 157.695312 209.1875 157.671875 209.1875 157.671875 C 209.1875 157.671875 209.296875 157.714844 209.433594 157.996094 C 209.574219 158.273438 208.445312 157.671875 208.003906 157.382812 C 207.5625 157.089844 207.476562 157.046875 206.46875 156.917969 C 205.457031 156.789062 206.371094 156.867188 206.222656 156.726562 C 206.070312 156.585938 205.953125 156.78125 205.242188 156.886719 C 204.53125 156.996094 205.296875 156.726562 205.144531 156.726562 C 204.996094 156.726562 204.597656 157.089844 204.574219 156.972656 C 204.554688 156.855469 204.4375 156.941406 204.4375 156.941406 C 204.574219 156.972656 204.273438 157.273438 203.964844 157.273438 C 203.652344 157.273438 203.578125 157.554688 203.578125 157.554688 C 203.621094 157.53125 204.488281 157.242188 203.921875 157.554688 C 203.351562 157.867188 202.664062 158.824219 202.5 160.070312 C 202.339844 161.316406 202.511719 162.703125 202.726562 163.628906 C 202.941406 164.550781 202.578125 165.476562 202.542969 165.691406 C 202.511719 165.90625 202.320312 165.875 201.449219 166.1875 C 200.578125 166.496094 200.621094 166.636719 200.425781 166.90625 C 200.234375 167.175781 200.0625 167.109375 199.675781 167.175781 C 199.289062 167.238281 198.351562 167.875 198.351562 167.875 C 197.910156 168.144531 197.203125 168.464844 196.074219 169.023438 C 194.945312 169.582031 193.707031 170.476562 192.730469 171.066406 C 191.75 171.65625 191.3125 172.25 190.753906 172.601562 C 190.191406 172.957031 190.710938 174.226562 191.148438 175.601562 C 191.589844 176.976562 192.664062 178.019531 193.355469 178.804688 C 194.042969 179.589844 195.203125 181.179688 195.558594 181.480469 C 195.910156 181.785156 195.578125 182.34375 195.578125 182.890625 C 195.578125 183.4375 196.128906 183.890625 196.148438 183.988281 C 196.171875 184.082031 196.308594 184.449219 196.332031 184.492188 C 196.351562 184.535156 196.417969 184.652344 196.308594 184.792969 C 196.203125 184.933594 195.804688 185.578125 195.558594 186.074219 C 195.308594 186.566406 195.222656 187.027344 195.222656 187.027344 C 194.429688 188.351562 195.050781 190.78125 195.117188 191.144531 C 195.179688 191.511719 194.921875 191.671875 194.828125 191.878906 C 194.730469 192.082031 193.933594 193.273438 193.257812 194.304688 C 192.578125 195.339844 191.621094 197.585938 191.527344 197.734375 C 191.429688 197.886719 191.492188 198.175781 191.492188 198.175781 C 191.492188 198.175781 191.191406 198.628906 190.933594 198.886719 C 190.675781 199.144531 190.332031 199.59375 190.105469 199.746094 C 189.882812 199.894531 189.484375 199.714844 188.429688 199.378906 C 187.375 199.046875 186.28125 199.175781 185.398438 199.144531 C 184.515625 199.113281 183.496094 199.722656 183.011719 199.929688 C 182.527344 200.132812 180.789062 200.476562 179.648438 200.746094 C 178.507812 201.015625 176.90625 201.261719 176.875 201.261719 C 176.84375 201.261719 176.777344 201.023438 176.402344 200.746094 C 176.023438 200.464844 175.574219 200.109375 175.027344 199.757812 C 174.476562 199.402344 174.53125 199.058594 173.898438 198.8125 C 173.261719 198.5625 172.683594 199.894531 172.488281 200.421875 C 172.296875 200.949219 171.347656 202.476562 170.738281 203.402344 C 170.125 204.324219 169.371094 206.21875 169.070312 207.054688 C 168.769531 207.894531 168.984375 208.863281 169.585938 208.828125 Z M 195.480469 175.882812 C 195.34375 174.816406 195.117188 173.945312 195.148438 173.945312 C 195.179688 173.945312 196.921875 173.980469 197.222656 173.871094 C 197.222656 173.871094 197.09375 175.871094 197.222656 177.429688 C 197.351562 178.988281 197.664062 180.375 197.664062 180.375 C 197.664062 180.375 197.234375 179.730469 196.652344 178.828125 C 196.074219 177.925781 195.621094 176.945312 195.480469 175.882812 " fill-opacity="1" fill-rule="nonzero"/></g><g clip-path="url(#982442d028)"><path fill="#f14902" d="M 175.0625 234.285156 L 166.40625 191.40625 L 160.421875 201.796875 L 127.542969 201.796875 L 157.386719 196.539062 L 168.804688 176.71875 L 174.597656 205.425781 L 185.054688 143.367188 L 195.738281 208.914062 L 199.863281 196.539062 L 245.105469 201.796875 L 203.652344 201.796875 L 193.984375 230.796875 L 184.96875 175.5 Z M 175.0625 234.285156 " fill-opacity="1" fill-rule="nonzero"/></g><g clip-path="url(#fb3f16fd56)"><path fill="#f6e7d8" d="M 169.585938 208.828125 C 170.1875 208.796875 170.703125 208.207031 171.261719 207.207031 C 171.824219 206.207031 173.832031 205.605469 174.132812 205.527344 C 174.433594 205.453125 174.359375 205.59375 174.359375 205.699219 C 174.359375 205.808594 174.21875 205.925781 174.015625 206.023438 C 173.8125 206.121094 173.671875 206.109375 173.414062 206.207031 C 173.15625 206.304688 173.164062 206.742188 173.292969 206.539062 C 173.425781 206.335938 173.929688 206.378906 174.371094 206.175781 C 174.8125 205.96875 174.960938 205.28125 175.003906 205.175781 C 175.046875 205.066406 175.164062 205.175781 175.507812 205.175781 C 175.851562 205.175781 175.734375 204.992188 175.648438 204.90625 C 175.5625 204.820312 175.648438 204.765625 175.703125 204.691406 C 175.757812 204.617188 176.488281 204.410156 178.152344 204.175781 C 179.820312 203.9375 181.648438 204.152344 183.605469 204.367188 C 185.558594 204.582031 186.550781 204.550781 187.902344 204.390625 C 189.257812 204.226562 191.160156 204.5625 191.816406 204.605469 C 192.472656 204.648438 193.320312 204.292969 193.621094 204.023438 C 193.921875 203.753906 194.09375 203.410156 194.804688 202.9375 C 195.515625 202.464844 196.449219 201.464844 196.449219 201.464844 C 196.449219 201.464844 196.492188 201.488281 196.675781 201.464844 C 196.859375 201.445312 196.859375 201.21875 197.222656 200.929688 C 197.589844 200.636719 198.683594 199.433594 199.632812 198.347656 C 200.578125 197.261719 201.609375 195.445312 201.609375 195.445312 C 201.609375 195.445312 202.050781 195.910156 202.878906 196.53125 C 203.707031 197.15625 204.1875 197.304688 204.640625 197.671875 C 205.09375 198.035156 205.082031 197.875 205.082031 197.875 C 205.082031 197.875 205.542969 198.015625 206.511719 198.421875 C 207.476562 198.832031 208.886719 199.917969 209.058594 200.066406 C 209.230469 200.21875 209.058594 201.25 208.949219 202.765625 C 208.84375 204.28125 209.285156 205.550781 209.789062 206.367188 C 210.292969 207.183594 211.292969 210.644531 211.617188 211.613281 C 211.941406 212.582031 212.144531 214.429688 212.121094 214.503906 C 212.101562 214.578125 212.035156 214.699219 212.003906 214.773438 C 211.972656 214.847656 211.886719 215.160156 211.820312 215.558594 C 211.757812 215.957031 211.757812 216.742188 211.984375 217.128906 C 212.207031 217.515625 211.832031 217.589844 211.855469 218.148438 C 211.875 218.707031 213.800781 218.632812 214.023438 218.632812 C 214.25 218.632812 215.808594 218.566406 217.335938 218.429688 C 218.863281 218.289062 220.121094 217.871094 221.386719 217.214844 C 222.65625 216.558594 222.207031 216.03125 221.925781 215.75 C 221.644531 215.472656 221.042969 215.535156 219.894531 215.527344 C 218.742188 215.515625 217.507812 214.675781 217.152344 214.457031 C 216.796875 214.234375 216.839844 214.183594 216.925781 214.097656 C 217.011719 214.011719 217.453125 214.503906 217.734375 214.449219 C 218.011719 214.398438 217.605469 214.277344 217.195312 213.957031 C 216.789062 213.632812 216.722656 213.890625 216.402344 213.675781 C 216.078125 213.460938 216.273438 213.375 216.089844 213.238281 C 215.90625 213.097656 215.796875 213.195312 215.722656 213.160156 C 215.648438 213.128906 215.410156 212.945312 215.410156 212.945312 C 215.410156 212.945312 215.015625 211.785156 214.53125 210.355469 C 214.046875 208.925781 214.109375 207.035156 214.105469 205.742188 C 214.101562 204.453125 213.59375 202.28125 213.542969 201.25 C 213.488281 200.21875 213.507812 199.605469 213.722656 199.078125 C 213.9375 198.550781 213.820312 197.832031 213.390625 197.273438 C 212.960938 196.714844 213.035156 196.101562 212.25 195.316406 C 211.464844 194.53125 211.058594 193.875 211.015625 193.800781 C 210.972656 193.726562 210.8125 193.671875 210.863281 193.566406 C 210.917969 193.457031 210.875 193.445312 210.691406 193.285156 C 210.511719 193.125 209.886719 192.296875 209.199219 191.683594 C 208.511719 191.070312 207.347656 189.824219 207.339844 189.769531 C 207.328125 189.714844 206.617188 189.09375 206.511719 188.941406 C 206.402344 188.792969 205.695312 188.253906 205.523438 188.15625 C 205.351562 188.0625 205.4375 187.695312 205.46875 187.546875 C 205.5 187.394531 205.714844 186.148438 205.855469 185.769531 C 205.996094 185.394531 206.15625 184.859375 206.230469 184.535156 C 206.308594 184.210938 206.628906 183.40625 206.953125 182.523438 C 207.273438 181.644531 207.058594 181.535156 207.058594 181.535156 C 207.058594 181.535156 207.832031 181.40625 208.328125 181.222656 C 208.820312 181.042969 209.15625 180.65625 209.574219 180.472656 C 209.992188 180.289062 210.769531 180.085938 210.992188 179.914062 C 211.21875 179.742188 211.542969 179.632812 211.691406 179.632812 C 211.84375 179.632812 212.285156 179.515625 212.800781 179.269531 C 213.316406 179.019531 213.671875 178.460938 213.714844 178.386719 C 213.757812 178.3125 214.015625 178.234375 214.089844 177.988281 C 214.164062 177.742188 213.980469 177.546875 213.851562 177.527344 C 213.722656 177.503906 213.90625 177.28125 213.949219 177.183594 C 213.992188 177.085938 214.015625 176.847656 213.886719 176.710938 C 213.757812 176.570312 213.585938 176.6875 213.585938 176.6875 C 213.585938 176.6875 213.628906 176.527344 213.585938 176.257812 C 213.542969 175.988281 213.402344 175.894531 213.292969 175.859375 C 213.1875 175.828125 213.132812 175.730469 213.164062 175.71875 C 213.199219 175.710938 213.15625 175.183594 212.875 175.109375 C 212.59375 175.03125 212.304688 175.332031 212.304688 175.332031 C 212.304688 175.332031 212.285156 175.023438 212.207031 174.785156 C 212.132812 174.550781 211.875 174.539062 211.800781 174.804688 C 211.722656 175.074219 211.59375 175.128906 211.519531 175.226562 C 211.445312 175.324219 211.335938 175.34375 211.207031 175.625 C 211.078125 175.902344 210.84375 175.96875 210.777344 176.03125 C 210.714844 176.097656 210.488281 176.289062 210.425781 176.539062 C 210.359375 176.785156 210.175781 177.214844 209.972656 177.515625 C 209.769531 177.816406 209.175781 177.804688 208.683594 177.632812 C 208.1875 177.460938 207.867188 177.300781 207.867188 177.300781 C 207.867188 177.300781 207.941406 176.65625 208.210938 176.226562 C 208.476562 175.796875 208.640625 173.839844 208.628906 173.710938 C 208.617188 173.582031 208.640625 173.28125 208.898438 172.679688 C 209.15625 172.078125 208.863281 170.914062 208.703125 170.410156 C 208.542969 169.90625 208.746094 169.949219 208.5 169.089844 C 208.253906 168.226562 207.273438 167.796875 207.273438 167.796875 C 207.273438 167.796875 207.867188 167.648438 208.714844 167.710938 C 209.5625 167.777344 209.660156 167.195312 209.5625 166.9375 C 209.46875 166.679688 209.542969 166.5625 209.746094 166.261719 C 209.949219 165.960938 209.5625 165.894531 209.402344 165.648438 C 209.242188 165.402344 209.585938 165.335938 209.863281 165.316406 C 210.144531 165.292969 210.164062 165.089844 210.1875 164.972656 C 210.207031 164.851562 210.316406 164.574219 210.359375 164.574219 C 210.402344 164.574219 210.640625 164.617188 210.875 164.402344 C 211.113281 164.1875 210.757812 163.671875 210.445312 163.25 C 210.132812 162.832031 210.316406 162.800781 210.304688 162.5625 C 210.292969 162.328125 210.433594 162.015625 210.304688 161.863281 C 210.175781 161.714844 210.089844 161.378906 210.089844 161.078125 C 210.089844 160.777344 209.960938 160.511719 210.003906 160.511719 C 210.046875 160.511719 210.261719 160.253906 210.246094 160.015625 C 210.230469 159.777344 210.121094 159.347656 210.089844 159.230469 C 210.058594 159.113281 210.132812 159.035156 210.21875 158.941406 C 210.304688 158.84375 210.15625 158.359375 210.144531 158.542969 C 210.132812 158.726562 209.820312 158.433594 209.660156 158.285156 C 209.5 158.132812 209.605469 158.167969 209.542969 157.929688 C 209.476562 157.695312 209.1875 157.671875 209.1875 157.671875 C 209.1875 157.671875 209.296875 157.714844 209.433594 157.996094 C 209.574219 158.273438 208.445312 157.671875 208.003906 157.382812 C 207.5625 157.089844 207.476562 157.046875 206.46875 156.917969 C 205.457031 156.789062 206.371094 156.867188 206.222656 156.726562 C 206.070312 156.585938 205.953125 156.78125 205.242188 156.886719 C 204.53125 156.996094 205.296875 156.726562 205.144531 156.726562 C 204.996094 156.726562 204.597656 157.089844 204.574219 156.972656 C 204.554688 156.855469 204.4375 156.941406 204.4375 156.941406 C 204.574219 156.972656 204.273438 157.273438 203.964844 157.273438 C 203.652344 157.273438 203.578125 157.554688 203.578125 157.554688 C 203.621094 157.53125 204.488281 157.242188 203.921875 157.554688 C 203.351562 157.867188 202.664062 158.824219 202.5 160.070312 C 202.339844 161.316406 202.511719 162.703125 202.726562 163.628906 C 202.941406 164.550781 202.578125 165.476562 202.542969 165.691406 C 202.511719 165.90625 202.320312 165.875 201.449219 166.1875 C 200.578125 166.496094 200.621094 166.636719 200.425781 166.90625 C 200.234375 167.175781 200.0625 167.109375 199.675781 167.175781 C 199.289062 167.238281 198.351562 167.875 198.351562 167.875 C 197.910156 168.144531 197.203125 168.464844 196.074219 169.023438 C 194.945312 169.582031 193.707031 170.476562 192.730469 171.066406 C 191.75 171.65625 191.3125 172.25 190.753906 172.601562 C 190.191406 172.957031 190.710938 174.226562 191.148438 175.601562 C 191.589844 176.976562 192.664062 178.019531 193.355469 178.804688 C 194.042969 179.589844 195.203125 181.179688 195.558594 181.480469 C 195.910156 181.785156 195.578125 182.34375 195.578125 182.890625 C 195.578125 183.4375 196.128906 183.890625 196.148438 183.988281 C 196.171875 184.082031 196.308594 184.449219 196.332031 184.492188 C 196.351562 184.535156 196.417969 184.652344 196.308594 184.792969 C 196.203125 184.933594 195.804688 185.578125 195.558594 186.074219 C 195.308594 186.566406 195.222656 187.027344 195.222656 187.027344 C 194.429688 188.351562 195.050781 190.78125 195.117188 191.144531 C 195.179688 191.511719 194.921875 191.671875 194.828125 191.878906 C 194.730469 192.082031 193.933594 193.273438 193.257812 194.304688 C 192.578125 195.339844 191.621094 197.585938 191.527344 197.734375 C 191.429688 197.886719 191.492188 198.175781 191.492188 198.175781 C 191.492188 198.175781 191.191406 198.628906 190.933594 198.886719 C 190.675781 199.144531 190.332031 199.59375 190.105469 199.746094 C 189.882812 199.894531 189.484375 199.714844 188.429688 199.378906 C 187.375 199.046875 186.28125 199.175781 185.398438 199.144531 C 184.515625 199.113281 183.496094 199.722656 183.011719 199.929688 C 182.527344 200.132812 180.789062 200.476562 179.648438 200.746094 C 178.507812 201.015625 176.90625 201.261719 176.875 201.261719 C 176.84375 201.261719 176.777344 201.023438 176.402344 200.746094 C 176.023438 200.464844 175.574219 200.109375 175.027344 199.757812 C 174.476562 199.402344 174.53125 199.058594 173.898438 198.8125 C 173.261719 198.5625 172.683594 199.894531 172.488281 200.421875 C 172.296875 200.949219 171.347656 202.476562 170.738281 203.402344 C 170.125 204.324219 169.371094 206.21875 169.070312 207.054688 C 168.769531 207.894531 168.984375 208.863281 169.585938 208.828125 Z M 195.480469 175.882812 C 195.34375 174.816406 195.117188 173.945312 195.148438 173.945312 C 195.179688 173.945312 196.921875 173.980469 197.222656 173.871094 C 197.222656 173.871094 197.09375 175.871094 197.222656 177.429688 C 197.351562 178.988281 197.664062 180.375 197.664062 180.375 C 197.664062 180.375 197.234375 179.730469 196.652344 178.828125 C 196.074219 177.925781 195.621094 176.945312 195.480469 175.882812 " fill-opacity="1" fill-rule="nonzero"/></g><g clip-path="url(#bb816cae78)"><path fill="#303030" d="M 134.980469 182.46875 L 137.421875 182.46875 L 137.421875 214.058594 L 134.980469 214.058594 Z M 134.980469 182.46875 " fill-opacity="1" fill-rule="nonzero"/></g><g fill="#f6e7d8" fill-opacity="1"><g transform="translate(80.753027, 268.186096)"><g><path d="M 5.40625 0 C 4.96875 0 4.675781 -0.0703125 4.53125 -0.21875 C 4.382812 -0.363281 4.3125 -0.648438 4.3125 -1.078125 L 4.3125 -20.15625 C 4.3125 -20.445312 4.265625 -20.640625 4.171875 -20.734375 C 4.078125 -20.828125 3.882812 -20.875 3.59375 -20.875 L 1.4375 -20.875 C 1.007812 -20.875 0.722656 -20.945312 0.578125 -21.09375 C 0.429688 -21.238281 0.359375 -21.523438 0.359375 -21.953125 L 0.359375 -24.125 C 0.359375 -24.550781 0.429688 -24.835938 0.578125 -24.984375 C 0.722656 -25.128906 1.007812 -25.203125 1.4375 -25.203125 L 12.59375 -25.203125 C 13.03125 -25.203125 13.320312 -25.128906 13.46875 -24.984375 C 13.613281 -24.835938 13.6875 -24.550781 13.6875 -24.125 L 13.6875 -21.953125 C 13.6875 -21.523438 13.613281 -21.238281 13.46875 -21.09375 C 13.320312 -20.945312 13.03125 -20.875 12.59375 -20.875 L 10.4375 -20.875 C 10.15625 -20.875 9.960938 -20.828125 9.859375 -20.734375 C 9.765625 -20.640625 9.71875 -20.445312 9.71875 -20.15625 L 9.71875 -1.078125 C 9.71875 -0.648438 9.644531 -0.363281 9.5 -0.21875 C 9.351562 -0.0703125 9.066406 0 8.640625 0 Z M 5.40625 0 "/></g></g></g><g fill="#f6e7d8" fill-opacity="1"><g transform="translate(96.732433, 268.186096)"><g><path d="M 2.515625 0 C 2.085938 0 1.800781 -0.0703125 1.65625 -0.21875 C 1.507812 -0.363281 1.4375 -0.648438 1.4375 -1.078125 L 1.4375 -24.125 C 1.4375 -24.550781 1.507812 -24.835938 1.65625 -24.984375 C 1.800781 -25.128906 2.085938 -25.203125 2.515625 -25.203125 L 11.875 -25.203125 C 12.3125 -25.203125 12.597656 -25.128906 12.734375 -24.984375 C 12.878906 -24.835938 12.953125 -24.550781 12.953125 -24.125 L 12.953125 -21.953125 C 12.953125 -21.523438 12.878906 -21.238281 12.734375 -21.09375 C 12.597656 -20.945312 12.3125 -20.875 11.875 -20.875 L 7.5625 -20.875 C 7.269531 -20.875 7.078125 -20.828125 6.984375 -20.734375 C 6.890625 -20.640625 6.84375 -20.445312 6.84375 -20.15625 L 6.84375 -15.84375 C 6.84375 -15.550781 6.890625 -15.359375 6.984375 -15.265625 C 7.078125 -15.171875 7.269531 -15.125 7.5625 -15.125 L 10.078125 -15.125 C 10.515625 -15.125 10.800781 -15.050781 10.9375 -14.90625 C 11.082031 -14.757812 11.15625 -14.472656 11.15625 -14.046875 L 11.15625 -11.875 C 11.15625 -11.445312 11.082031 -11.160156 10.9375 -11.015625 C 10.800781 -10.867188 10.515625 -10.796875 10.078125 -10.796875 L 7.5625 -10.796875 C 7.269531 -10.796875 7.078125 -10.75 6.984375 -10.65625 C 6.890625 -10.5625 6.84375 -10.367188 6.84375 -10.078125 L 6.84375 -5.046875 C 6.84375 -4.753906 6.890625 -4.554688 6.984375 -4.453125 C 7.078125 -4.359375 7.269531 -4.3125 7.5625 -4.3125 L 11.875 -4.3125 C 12.3125 -4.3125 12.597656 -4.238281 12.734375 -4.09375 C 12.878906 -3.957031 12.953125 -3.671875 12.953125 -3.234375 L 12.953125 -1.078125 C 12.953125 -0.648438 12.878906 -0.363281 12.734375 -0.21875 C 12.597656 -0.0703125 12.3125 0 11.875 0 Z M 2.515625 0 "/></g></g></g><g fill="#f6e7d8" fill-opacity="1"><g transform="translate(112.351956, 268.186096)"><g><path d="M 2.515625 0 C 2.085938 0 1.800781 -0.0703125 1.65625 -0.21875 C 1.507812 -0.363281 1.4375 -0.648438 1.4375 -1.078125 L 1.4375 -19.625 C 1.4375 -20.488281 1.585938 -21.285156 1.890625 -22.015625 C 2.191406 -22.742188 2.609375 -23.375 3.140625 -23.90625 C 3.679688 -24.4375 4.34375 -24.84375 5.125 -25.125 C 5.90625 -25.414062 6.773438 -25.5625 7.734375 -25.5625 C 8.703125 -25.5625 9.570312 -25.414062 10.34375 -25.125 C 11.125 -24.84375 11.785156 -24.4375 12.328125 -23.90625 C 12.867188 -23.375 13.289062 -22.742188 13.59375 -22.015625 C 13.894531 -21.285156 14.046875 -20.488281 14.046875 -19.625 L 14.046875 -1.078125 C 14.046875 -0.648438 13.972656 -0.363281 13.828125 -0.21875 C 13.679688 -0.0703125 13.390625 0 12.953125 0 L 9.71875 0 C 9.289062 0 9.003906 -0.0703125 8.859375 -0.21875 C 8.710938 -0.363281 8.640625 -0.648438 8.640625 -1.078125 L 8.640625 -8.28125 C 8.640625 -8.570312 8.59375 -8.765625 8.5 -8.859375 C 8.40625 -8.953125 8.210938 -9 7.921875 -9 L 6.484375 -9 C 6.191406 -9 6 -8.953125 5.90625 -8.859375 C 5.8125 -8.765625 5.765625 -8.570312 5.765625 -8.28125 L 5.765625 -1.078125 C 5.765625 -0.648438 5.691406 -0.363281 5.546875 -0.21875 C 5.398438 -0.0703125 5.113281 0 4.6875 0 Z M 7.921875 -13.3125 C 8.210938 -13.3125 8.40625 -13.359375 8.5 -13.453125 C 8.59375 -13.554688 8.640625 -13.753906 8.640625 -14.046875 L 8.640625 -19.796875 C 8.640625 -20.203125 8.5 -20.539062 8.21875 -20.8125 C 7.945312 -21.09375 7.609375 -21.234375 7.203125 -21.234375 C 6.796875 -21.234375 6.453125 -21.09375 6.171875 -20.8125 C 5.898438 -20.539062 5.765625 -20.203125 5.765625 -19.796875 L 5.765625 -14.046875 C 5.765625 -13.753906 5.8125 -13.554688 5.90625 -13.453125 C 6 -13.359375 6.191406 -13.3125 6.484375 -13.3125 Z M 7.921875 -13.3125 "/></g></g></g><g fill="#f6e7d8" fill-opacity="1"><g transform="translate(129.77089, 268.186096)"><g><path d="M 2.515625 0 C 2.085938 0 1.800781 -0.0703125 1.65625 -0.21875 C 1.507812 -0.363281 1.4375 -0.648438 1.4375 -1.078125 L 1.4375 -24.125 C 1.4375 -24.550781 1.507812 -24.835938 1.65625 -24.984375 C 1.800781 -25.128906 2.085938 -25.203125 2.515625 -25.203125 L 6.546875 -25.203125 C 6.984375 -25.203125 7.300781 -25.132812 7.5 -25 C 7.707031 -24.863281 7.867188 -24.59375 7.984375 -24.1875 L 10.265625 -13.5 L 10.625 -13.5 L 12.921875 -24.1875 C 13.046875 -24.59375 13.207031 -24.863281 13.40625 -25 C 13.613281 -25.132812 13.929688 -25.203125 14.359375 -25.203125 L 18.359375 -25.203125 C 18.796875 -25.203125 19.082031 -25.128906 19.21875 -24.984375 C 19.363281 -24.835938 19.4375 -24.550781 19.4375 -24.125 L 19.4375 -1.078125 C 19.4375 -0.648438 19.363281 -0.363281 19.21875 -0.21875 C 19.082031 -0.0703125 18.796875 0 18.359375 0 L 15.125 0 C 14.6875 0 14.394531 -0.0703125 14.25 -0.21875 C 14.113281 -0.363281 14.046875 -0.648438 14.046875 -1.078125 L 14.046875 -11.703125 L 13.6875 -11.703125 L 11.453125 -1.015625 C 11.328125 -0.597656 11.160156 -0.320312 10.953125 -0.1875 C 10.753906 -0.0625 10.441406 0 10.015625 0 L 9.796875 0 C 9.359375 0 9.035156 -0.0625 8.828125 -0.1875 C 8.628906 -0.320312 8.472656 -0.597656 8.359375 -1.015625 L 6.125 -11.703125 L 5.765625 -11.703125 L 5.765625 -1.078125 C 5.765625 -0.648438 5.691406 -0.363281 5.546875 -0.21875 C 5.398438 -0.0703125 5.113281 0 4.6875 0 Z M 2.515625 0 "/></g></g></g><g fill="#f6e7d8" fill-opacity="1"><g transform="translate(152.588073, 268.186096)"><g/></g></g><g fill="#f6e7d8" fill-opacity="1"><g transform="translate(161.009951, 268.186096)"><g><path d="M 2.15625 0 C 1.726562 0 1.441406 -0.0703125 1.296875 -0.21875 C 1.148438 -0.363281 1.078125 -0.648438 1.078125 -1.078125 L 1.078125 -3.234375 C 1.078125 -3.671875 1.148438 -3.957031 1.296875 -4.09375 C 1.441406 -4.238281 1.726562 -4.3125 2.15625 -4.3125 L 3.59375 -4.3125 C 3.882812 -4.3125 4.078125 -4.359375 4.171875 -4.453125 C 4.265625 -4.554688 4.3125 -4.753906 4.3125 -5.046875 L 4.3125 -20.15625 C 4.3125 -20.445312 4.265625 -20.640625 4.171875 -20.734375 C 4.078125 -20.828125 3.882812 -20.875 3.59375 -20.875 L 2.15625 -20.875 C 1.726562 -20.875 1.441406 -20.945312 1.296875 -21.09375 C 1.148438 -21.238281 1.078125 -21.523438 1.078125 -21.953125 L 1.078125 -24.125 C 1.078125 -24.550781 1.148438 -24.835938 1.296875 -24.984375 C 1.441406 -25.128906 1.726562 -25.203125 2.15625 -25.203125 L 8.640625 -25.203125 C 9.066406 -25.203125 9.351562 -25.128906 9.5 -24.984375 C 9.644531 -24.835938 9.71875 -24.550781 9.71875 -24.125 L 9.71875 -5.046875 C 9.71875 -4.753906 9.765625 -4.554688 9.859375 -4.453125 C 9.960938 -4.359375 10.15625 -4.3125 10.4375 -4.3125 L 11.875 -4.3125 C 12.3125 -4.3125 12.597656 -4.238281 12.734375 -4.09375 C 12.878906 -3.957031 12.953125 -3.671875 12.953125 -3.234375 L 12.953125 -1.078125 C 12.953125 -0.648438 12.878906 -0.363281 12.734375 -0.21875 C 12.597656 -0.0703125 12.3125 0 11.875 0 Z M 2.15625 0 "/></g></g></g><g fill="#f6e7d8" fill-opacity="1"><g transform="translate(176.269594, 268.186096)"><g/></g></g><g fill="#f6e7d8" fill-opacity="1"><g transform="translate(184.691466, 268.186096)"><g><path d="M 2.515625 0 C 2.085938 0 1.800781 -0.0703125 1.65625 -0.21875 C 1.507812 -0.363281 1.4375 -0.648438 1.4375 -1.078125 L 1.4375 -24.125 C 1.4375 -24.550781 1.507812 -24.835938 1.65625 -24.984375 C 1.800781 -25.128906 2.085938 -25.203125 2.515625 -25.203125 L 11.875 -25.203125 C 12.3125 -25.203125 12.597656 -25.128906 12.734375 -24.984375 C 12.878906 -24.835938 12.953125 -24.550781 12.953125 -24.125 L 12.953125 -21.953125 C 12.953125 -21.523438 12.878906 -21.238281 12.734375 -21.09375 C 12.597656 -20.945312 12.3125 -20.875 11.875 -20.875 L 7.5625 -20.875 C 7.269531 -20.875 7.078125 -20.828125 6.984375 -20.734375 C 6.890625 -20.640625 6.84375 -20.445312 6.84375 -20.15625 L 6.84375 -15.125 C 6.84375 -14.832031 6.890625 -14.640625 6.984375 -14.546875 C 7.078125 -14.453125 7.269531 -14.40625 7.5625 -14.40625 L 10.078125 -14.40625 C 10.515625 -14.40625 10.800781 -14.332031 10.9375 -14.1875 C 11.082031 -14.039062 11.15625 -13.75 11.15625 -13.3125 L 11.15625 -11.15625 C 11.15625 -10.726562 11.082031 -10.441406 10.9375 -10.296875 C 10.800781 -10.148438 10.515625 -10.078125 10.078125 -10.078125 L 7.5625 -10.078125 C 7.269531 -10.078125 7.078125 -10.03125 6.984375 -9.9375 C 6.890625 -9.84375 6.84375 -9.648438 6.84375 -9.359375 L 6.84375 -1.078125 C 6.84375 -0.648438 6.769531 -0.363281 6.625 -0.21875 C 6.476562 -0.0703125 6.191406 0 5.765625 0 Z M 2.515625 0 "/></g></g></g><g fill="#f6e7d8" fill-opacity="1"><g transform="translate(199.951108, 268.186096)"><g><path d="M 1.796875 0 C 1.367188 0 1.082031 -0.0703125 0.9375 -0.21875 C 0.789062 -0.363281 0.71875 -0.648438 0.71875 -1.078125 L 0.71875 -3.234375 C 0.71875 -3.671875 0.789062 -3.957031 0.9375 -4.09375 C 1.082031 -4.238281 1.367188 -4.3125 1.796875 -4.3125 L 2.875 -4.3125 C 3.164062 -4.3125 3.359375 -4.359375 3.453125 -4.453125 C 3.546875 -4.554688 3.59375 -4.753906 3.59375 -5.046875 L 3.59375 -20.15625 C 3.59375 -20.445312 3.546875 -20.640625 3.453125 -20.734375 C 3.359375 -20.828125 3.164062 -20.875 2.875 -20.875 L 1.796875 -20.875 C 1.367188 -20.875 1.082031 -20.945312 0.9375 -21.09375 C 0.789062 -21.238281 0.71875 -21.523438 0.71875 -21.953125 L 0.71875 -24.125 C 0.71875 -24.550781 0.789062 -24.835938 0.9375 -24.984375 C 1.082031 -25.128906 1.367188 -25.203125 1.796875 -25.203125 L 10.796875 -25.203125 C 11.234375 -25.203125 11.519531 -25.128906 11.65625 -24.984375 C 11.800781 -24.835938 11.875 -24.550781 11.875 -24.125 L 11.875 -21.953125 C 11.875 -21.523438 11.800781 -21.238281 11.65625 -21.09375 C 11.519531 -20.945312 11.234375 -20.875 10.796875 -20.875 L 9.71875 -20.875 C 9.425781 -20.875 9.234375 -20.828125 9.140625 -20.734375 C 9.046875 -20.640625 9 -20.445312 9 -20.15625 L 9 -5.046875 C 9 -4.753906 9.046875 -4.554688 9.140625 -4.453125 C 9.234375 -4.359375 9.425781 -4.3125 9.71875 -4.3125 L 10.796875 -4.3125 C 11.234375 -4.3125 11.519531 -4.238281 11.65625 -4.09375 C 11.800781 -3.957031 11.875 -3.671875 11.875 -3.234375 L 11.875 -1.078125 C 11.875 -0.648438 11.800781 -0.363281 11.65625 -0.21875 C 11.519531 -0.0703125 11.234375 0 10.796875 0 Z M 1.796875 0 "/></g></g></g><g fill="#f6e7d8" fill-opacity="1"><g transform="translate(214.490986, 268.186096)"><g><path d="M 5.40625 0 C 4.96875 0 4.675781 -0.0703125 4.53125 -0.21875 C 4.382812 -0.363281 4.3125 -0.648438 4.3125 -1.078125 L 4.3125 -20.15625 C 4.3125 -20.445312 4.265625 -20.640625 4.171875 -20.734375 C 4.078125 -20.828125 3.882812 -20.875 3.59375 -20.875 L 1.4375 -20.875 C 1.007812 -20.875 0.722656 -20.945312 0.578125 -21.09375 C 0.429688 -21.238281 0.359375 -21.523438 0.359375 -21.953125 L 0.359375 -24.125 C 0.359375 -24.550781 0.429688 -24.835938 0.578125 -24.984375 C 0.722656 -25.128906 1.007812 -25.203125 1.4375 -25.203125 L 12.59375 -25.203125 C 13.03125 -25.203125 13.320312 -25.128906 13.46875 -24.984375 C 13.613281 -24.835938 13.6875 -24.550781 13.6875 -24.125 L 13.6875 -21.953125 C 13.6875 -21.523438 13.613281 -21.238281 13.46875 -21.09375 C 13.320312 -20.945312 13.03125 -20.875 12.59375 -20.875 L 10.4375 -20.875 C 10.15625 -20.875 9.960938 -20.828125 9.859375 -20.734375 C 9.765625 -20.640625 9.71875 -20.445312 9.71875 -20.15625 L 9.71875 -1.078125 C 9.71875 -0.648438 9.644531 -0.363281 9.5 -0.21875 C 9.351562 -0.0703125 9.066406 0 8.640625 0 Z M 5.40625 0 "/></g></g></g><g fill="#f6e7d8" fill-opacity="1"><g transform="translate(230.470394, 268.186096)"><g><path d="M 2.515625 0 C 2.085938 0 1.800781 -0.0703125 1.65625 -0.21875 C 1.507812 -0.363281 1.4375 -0.648438 1.4375 -1.078125 L 1.4375 -24.125 C 1.4375 -24.550781 1.507812 -24.835938 1.65625 -24.984375 C 1.800781 -25.128906 2.085938 -25.203125 2.515625 -25.203125 L 5.046875 -25.203125 C 5.472656 -25.203125 5.78125 -25.128906 5.96875 -24.984375 C 6.164062 -24.835938 6.320312 -24.5625 6.4375 -24.15625 L 9.359375 -14.765625 L 9.71875 -14.765625 L 9.71875 -24.125 C 9.71875 -24.550781 9.789062 -24.835938 9.9375 -24.984375 C 10.082031 -25.128906 10.367188 -25.203125 10.796875 -25.203125 L 12.953125 -25.203125 C 13.390625 -25.203125 13.679688 -25.128906 13.828125 -24.984375 C 13.972656 -24.835938 14.046875 -24.550781 14.046875 -24.125 L 14.046875 -1.078125 C 14.046875 -0.648438 13.972656 -0.363281 13.828125 -0.21875 C 13.679688 -0.0703125 13.390625 0 12.953125 0 L 10.4375 0 C 10.007812 0 9.695312 -0.0703125 9.5 -0.21875 C 9.3125 -0.363281 9.15625 -0.640625 9.03125 -1.046875 L 6.125 -10.4375 L 5.765625 -10.4375 L 5.765625 -1.078125 C 5.765625 -0.648438 5.691406 -0.363281 5.546875 -0.21875 C 5.398438 -0.0703125 5.113281 0 4.6875 0 Z M 2.515625 0 "/></g></g></g><g fill="#f6e7d8" fill-opacity="1"><g transform="translate(247.88933, 268.186096)"><g><path d="M 2.515625 0 C 2.085938 0 1.800781 -0.0703125 1.65625 -0.21875 C 1.507812 -0.363281 1.4375 -0.648438 1.4375 -1.078125 L 1.4375 -24.125 C 1.4375 -24.550781 1.507812 -24.835938 1.65625 -24.984375 C 1.800781 -25.128906 2.085938 -25.203125 2.515625 -25.203125 L 11.875 -25.203125 C 12.3125 -25.203125 12.597656 -25.128906 12.734375 -24.984375 C 12.878906 -24.835938 12.953125 -24.550781 12.953125 -24.125 L 12.953125 -21.953125 C 12.953125 -21.523438 12.878906 -21.238281 12.734375 -21.09375 C 12.597656 -20.945312 12.3125 -20.875 11.875 -20.875 L 7.5625 -20.875 C 7.269531 -20.875 7.078125 -20.828125 6.984375 -20.734375 C 6.890625 -20.640625 6.84375 -20.445312 6.84375 -20.15625 L 6.84375 -15.84375 C 6.84375 -15.550781 6.890625 -15.359375 6.984375 -15.265625 C 7.078125 -15.171875 7.269531 -15.125 7.5625 -15.125 L 10.078125 -15.125 C 10.515625 -15.125 10.800781 -15.050781 10.9375 -14.90625 C 11.082031 -14.757812 11.15625 -14.472656 11.15625 -14.046875 L 11.15625 -11.875 C 11.15625 -11.445312 11.082031 -11.160156 10.9375 -11.015625 C 10.800781 -10.867188 10.515625 -10.796875 10.078125 -10.796875 L 7.5625 -10.796875 C 7.269531 -10.796875 7.078125 -10.75 6.984375 -10.65625 C 6.890625 -10.5625 6.84375 -10.367188 6.84375 -10.078125 L 6.84375 -5.046875 C 6.84375 -4.753906 6.890625 -4.554688 6.984375 -4.453125 C 7.078125 -4.359375 7.269531 -4.3125 7.5625 -4.3125 L 11.875 -4.3125 C 12.3125 -4.3125 12.597656 -4.238281 12.734375 -4.09375 C 12.878906 -3.957031 12.953125 -3.671875 12.953125 -3.234375 L 12.953125 -1.078125 C 12.953125 -0.648438 12.878906 -0.363281 12.734375 -0.21875 C 12.597656 -0.0703125 12.3125 0 11.875 0 Z M 2.515625 0 "/></g></g></g><g fill="#f6e7d8" fill-opacity="1"><g transform="translate(263.508855, 268.186096)"><g><path d="M 7.203125 0.359375 C 5.160156 0.359375 3.566406 -0.195312 2.421875 -1.3125 C 1.285156 -2.425781 0.71875 -3.910156 0.71875 -5.765625 L 0.71875 -6.84375 C 0.71875 -7.269531 0.789062 -7.554688 0.9375 -7.703125 C 1.082031 -7.847656 1.367188 -7.921875 1.796875 -7.921875 L 3.953125 -7.921875 C 4.390625 -7.921875 4.679688 -7.847656 4.828125 -7.703125 C 4.972656 -7.554688 5.046875 -7.269531 5.046875 -6.84375 L 5.046875 -5.578125 C 5.046875 -5.097656 5.191406 -4.707031 5.484375 -4.40625 C 5.785156 -4.101562 6.175781 -3.953125 6.65625 -3.953125 C 7.132812 -3.953125 7.523438 -4.101562 7.828125 -4.40625 C 8.128906 -4.707031 8.28125 -5.097656 8.28125 -5.578125 C 8.28125 -6.460938 8.097656 -7.253906 7.734375 -7.953125 C 7.378906 -8.648438 6.9375 -9.3125 6.40625 -9.9375 C 5.875 -10.5625 5.296875 -11.175781 4.671875 -11.78125 C 4.054688 -12.394531 3.484375 -13.070312 2.953125 -13.8125 C 2.421875 -14.5625 1.972656 -15.398438 1.609375 -16.328125 C 1.253906 -17.253906 1.078125 -18.351562 1.078125 -19.625 C 1.078125 -20.488281 1.226562 -21.285156 1.53125 -22.015625 C 1.832031 -22.742188 2.25 -23.375 2.78125 -23.90625 C 3.320312 -24.4375 3.984375 -24.84375 4.765625 -25.125 C 5.546875 -25.414062 6.414062 -25.5625 7.375 -25.5625 C 8.332031 -25.5625 9.195312 -25.414062 9.96875 -25.125 C 10.738281 -24.84375 11.398438 -24.4375 11.953125 -23.90625 C 12.503906 -23.375 12.929688 -22.742188 13.234375 -22.015625 C 13.535156 -21.285156 13.6875 -20.488281 13.6875 -19.625 L 13.6875 -18.71875 C 13.6875 -18.289062 13.613281 -18.003906 13.46875 -17.859375 C 13.320312 -17.710938 13.03125 -17.640625 12.59375 -17.640625 L 10.4375 -17.640625 C 10.007812 -17.640625 9.722656 -17.710938 9.578125 -17.859375 C 9.429688 -18.003906 9.359375 -18.289062 9.359375 -18.71875 L 9.359375 -19.796875 C 9.359375 -20.203125 9.21875 -20.539062 8.9375 -20.8125 C 8.664062 -21.09375 8.328125 -21.234375 7.921875 -21.234375 C 7.515625 -21.234375 7.171875 -21.09375 6.890625 -20.8125 C 6.617188 -20.539062 6.484375 -20.203125 6.484375 -19.796875 C 6.484375 -18.890625 6.660156 -18.09375 7.015625 -17.40625 C 7.378906 -16.71875 7.820312 -16.0625 8.34375 -15.4375 C 8.875 -14.820312 9.453125 -14.207031 10.078125 -13.59375 C 10.703125 -12.976562 11.273438 -12.296875 11.796875 -11.546875 C 12.328125 -10.804688 12.773438 -9.96875 13.140625 -9.03125 C 13.503906 -8.09375 13.6875 -7.003906 13.6875 -5.765625 C 13.6875 -3.910156 13.113281 -2.425781 11.96875 -1.3125 C 10.832031 -0.195312 9.242188 0.359375 7.203125 0.359375 Z M 7.203125 0.359375 "/></g></g></g><g fill="#f6e7d8" fill-opacity="1"><g transform="translate(279.848145, 268.186096)"><g><path d="M 7.203125 0.359375 C 5.160156 0.359375 3.566406 -0.195312 2.421875 -1.3125 C 1.285156 -2.425781 0.71875 -3.910156 0.71875 -5.765625 L 0.71875 -6.84375 C 0.71875 -7.269531 0.789062 -7.554688 0.9375 -7.703125 C 1.082031 -7.847656 1.367188 -7.921875 1.796875 -7.921875 L 3.953125 -7.921875 C 4.390625 -7.921875 4.679688 -7.847656 4.828125 -7.703125 C 4.972656 -7.554688 5.046875 -7.269531 5.046875 -6.84375 L 5.046875 -5.578125 C 5.046875 -5.097656 5.191406 -4.707031 5.484375 -4.40625 C 5.785156 -4.101562 6.175781 -3.953125 6.65625 -3.953125 C 7.132812 -3.953125 7.523438 -4.101562 7.828125 -4.40625 C 8.128906 -4.707031 8.28125 -5.097656 8.28125 -5.578125 C 8.28125 -6.460938 8.097656 -7.253906 7.734375 -7.953125 C 7.378906 -8.648438 6.9375 -9.3125 6.40625 -9.9375 C 5.875 -10.5625 5.296875 -11.175781 4.671875 -11.78125 C 4.054688 -12.394531 3.484375 -13.070312 2.953125 -13.8125 C 2.421875 -14.5625 1.972656 -15.398438 1.609375 -16.328125 C 1.253906 -17.253906 1.078125 -18.351562 1.078125 -19.625 C 1.078125 -20.488281 1.226562 -21.285156 1.53125 -22.015625 C 1.832031 -22.742188 2.25 -23.375 2.78125 -23.90625 C 3.320312 -24.4375 3.984375 -24.84375 4.765625 -25.125 C 5.546875 -25.414062 6.414062 -25.5625 7.375 -25.5625 C 8.332031 -25.5625 9.195312 -25.414062 9.96875 -25.125 C 10.738281 -24.84375 11.398438 -24.4375 11.953125 -23.90625 C 12.503906 -23.375 12.929688 -22.742188 13.234375 -22.015625 C 13.535156 -21.285156 13.6875 -20.488281 13.6875 -19.625 L 13.6875 -18.71875 C 13.6875 -18.289062 13.613281 -18.003906 13.46875 -17.859375 C 13.320312 -17.710938 13.03125 -17.640625 12.59375 -17.640625 L 10.4375 -17.640625 C 10.007812 -17.640625 9.722656 -17.710938 9.578125 -17.859375 C 9.429688 -18.003906 9.359375 -18.289062 9.359375 -18.71875 L 9.359375 -19.796875 C 9.359375 -20.203125 9.21875 -20.539062 8.9375 -20.8125 C 8.664062 -21.09375 8.328125 -21.234375 7.921875 -21.234375 C 7.515625 -21.234375 7.171875 -21.09375 6.890625 -20.8125 C 6.617188 -20.539062 6.484375 -20.203125 6.484375 -19.796875 C 6.484375 -18.890625 6.660156 -18.09375 7.015625 -17.40625 C 7.378906 -16.71875 7.820312 -16.0625 8.34375 -15.4375 C 8.875 -14.820312 9.453125 -14.207031 10.078125 -13.59375 C 10.703125 -12.976562 11.273438 -12.296875 11.796875 -11.546875 C 12.328125 -10.804688 12.773438 -9.96875 13.140625 -9.03125 C 13.503906 -8.09375 13.6875 -7.003906 13.6875 -5.765625 C 13.6875 -3.910156 13.113281 -2.425781 11.96875 -1.3125 C 10.832031 -0.195312 9.242188 0.359375 7.203125 0.359375 Z M 7.203125 0.359375 "/></g></g></g><g fill="#f6e7d8" fill-opacity="1"><g transform="translate(138.725679, 318.436093)"><g><path d="M 7.734375 0.359375 C 6.773438 0.359375 5.90625 0.21875 5.125 -0.0625 C 4.34375 -0.351562 3.679688 -0.765625 3.140625 -1.296875 C 2.609375 -1.828125 2.191406 -2.457031 1.890625 -3.1875 C 1.585938 -3.914062 1.4375 -4.710938 1.4375 -5.578125 L 1.4375 -19.625 C 1.4375 -20.488281 1.585938 -21.285156 1.890625 -22.015625 C 2.191406 -22.742188 2.609375 -23.375 3.140625 -23.90625 C 3.679688 -24.4375 4.34375 -24.84375 5.125 -25.125 C 5.90625 -25.414062 6.773438 -25.5625 7.734375 -25.5625 C 8.703125 -25.5625 9.570312 -25.414062 10.34375 -25.125 C 11.125 -24.84375 11.785156 -24.4375 12.328125 -23.90625 C 12.867188 -23.375 13.289062 -22.742188 13.59375 -22.015625 C 13.894531 -21.285156 14.046875 -20.488281 14.046875 -19.625 L 14.046875 -17.640625 C 14.046875 -17.203125 13.972656 -16.910156 13.828125 -16.765625 C 13.679688 -16.628906 13.390625 -16.5625 12.953125 -16.5625 L 10.796875 -16.5625 C 10.367188 -16.5625 10.082031 -16.628906 9.9375 -16.765625 C 9.789062 -16.910156 9.71875 -17.203125 9.71875 -17.640625 L 9.71875 -19.796875 C 9.71875 -20.203125 9.578125 -20.539062 9.296875 -20.8125 C 9.023438 -21.09375 8.6875 -21.234375 8.28125 -21.234375 C 7.875 -21.234375 7.53125 -21.09375 7.25 -20.8125 C 6.976562 -20.539062 6.84375 -20.203125 6.84375 -19.796875 L 6.84375 -5.40625 C 6.84375 -4.988281 6.976562 -4.640625 7.25 -4.359375 C 7.53125 -4.085938 7.875 -3.953125 8.28125 -3.953125 C 8.6875 -3.953125 9.023438 -4.085938 9.296875 -4.359375 C 9.578125 -4.640625 9.71875 -4.988281 9.71875 -5.40625 L 9.71875 -7.5625 C 9.71875 -7.988281 9.789062 -8.273438 9.9375 -8.421875 C 10.082031 -8.566406 10.367188 -8.640625 10.796875 -8.640625 L 12.953125 -8.640625 C 13.390625 -8.640625 13.679688 -8.566406 13.828125 -8.421875 C 13.972656 -8.273438 14.046875 -7.988281 14.046875 -7.5625 L 14.046875 -5.578125 C 14.046875 -4.710938 13.894531 -3.914062 13.59375 -3.1875 C 13.289062 -2.457031 12.867188 -1.828125 12.328125 -1.296875 C 11.785156 -0.765625 11.125 -0.351562 10.34375 -0.0625 C 9.570312 0.21875 8.703125 0.359375 7.734375 0.359375 Z M 7.734375 0.359375 "/></g></g></g><g fill="#f6e7d8" fill-opacity="1"><g transform="translate(155.784732, 318.436093)"><g><path d="M 2.515625 0 C 2.085938 0 1.800781 -0.0703125 1.65625 -0.21875 C 1.507812 -0.363281 1.4375 -0.648438 1.4375 -1.078125 L 1.4375 -24.125 C 1.4375 -24.550781 1.507812 -24.835938 1.65625 -24.984375 C 1.800781 -25.128906 2.085938 -25.203125 2.515625 -25.203125 L 11.875 -25.203125 C 12.3125 -25.203125 12.597656 -25.128906 12.734375 -24.984375 C 12.878906 -24.835938 12.953125 -24.550781 12.953125 -24.125 L 12.953125 -21.953125 C 12.953125 -21.523438 12.878906 -21.238281 12.734375 -21.09375 C 12.597656 -20.945312 12.3125 -20.875 11.875 -20.875 L 7.5625 -20.875 C 7.269531 -20.875 7.078125 -20.828125 6.984375 -20.734375 C 6.890625 -20.640625 6.84375 -20.445312 6.84375 -20.15625 L 6.84375 -15.84375 C 6.84375 -15.550781 6.890625 -15.359375 6.984375 -15.265625 C 7.078125 -15.171875 7.269531 -15.125 7.5625 -15.125 L 10.078125 -15.125 C 10.515625 -15.125 10.800781 -15.050781 10.9375 -14.90625 C 11.082031 -14.757812 11.15625 -14.472656 11.15625 -14.046875 L 11.15625 -11.875 C 11.15625 -11.445312 11.082031 -11.160156 10.9375 -11.015625 C 10.800781 -10.867188 10.515625 -10.796875 10.078125 -10.796875 L 7.5625 -10.796875 C 7.269531 -10.796875 7.078125 -10.75 6.984375 -10.65625 C 6.890625 -10.5625 6.84375 -10.367188 6.84375 -10.078125 L 6.84375 -5.046875 C 6.84375 -4.753906 6.890625 -4.554688 6.984375 -4.453125 C 7.078125 -4.359375 7.269531 -4.3125 7.5625 -4.3125 L 11.875 -4.3125 C 12.3125 -4.3125 12.597656 -4.238281 12.734375 -4.09375 C 12.878906 -3.957031 12.953125 -3.671875 12.953125 -3.234375 L 12.953125 -1.078125 C 12.953125 -0.648438 12.878906 -0.363281 12.734375 -0.21875 C 12.597656 -0.0703125 12.3125 0 11.875 0 Z M 2.515625 0 "/></g></g></g><g fill="#f6e7d8" fill-opacity="1"><g transform="translate(171.404256, 318.436093)"><g><path d="M 2.515625 0 C 2.085938 0 1.800781 -0.0703125 1.65625 -0.21875 C 1.507812 -0.363281 1.4375 -0.648438 1.4375 -1.078125 L 1.4375 -24.125 C 1.4375 -24.550781 1.507812 -24.835938 1.65625 -24.984375 C 1.800781 -25.128906 2.085938 -25.203125 2.515625 -25.203125 L 5.046875 -25.203125 C 5.472656 -25.203125 5.78125 -25.128906 5.96875 -24.984375 C 6.164062 -24.835938 6.320312 -24.5625 6.4375 -24.15625 L 9.359375 -14.765625 L 9.71875 -14.765625 L 9.71875 -24.125 C 9.71875 -24.550781 9.789062 -24.835938 9.9375 -24.984375 C 10.082031 -25.128906 10.367188 -25.203125 10.796875 -25.203125 L 12.953125 -25.203125 C 13.390625 -25.203125 13.679688 -25.128906 13.828125 -24.984375 C 13.972656 -24.835938 14.046875 -24.550781 14.046875 -24.125 L 14.046875 -1.078125 C 14.046875 -0.648438 13.972656 -0.363281 13.828125 -0.21875 C 13.679688 -0.0703125 13.390625 0 12.953125 0 L 10.4375 0 C 10.007812 0 9.695312 -0.0703125 9.5 -0.21875 C 9.3125 -0.363281 9.15625 -0.640625 9.03125 -1.046875 L 6.125 -10.4375 L 5.765625 -10.4375 L 5.765625 -1.078125 C 5.765625 -0.648438 5.691406 -0.363281 5.546875 -0.21875 C 5.398438 -0.0703125 5.113281 0 4.6875 0 Z M 2.515625 0 "/></g></g></g><g fill="#f6e7d8" fill-opacity="1"><g transform="translate(188.823189, 318.436093)"><g><path d="M 5.40625 0 C 4.96875 0 4.675781 -0.0703125 4.53125 -0.21875 C 4.382812 -0.363281 4.3125 -0.648438 4.3125 -1.078125 L 4.3125 -20.15625 C 4.3125 -20.445312 4.265625 -20.640625 4.171875 -20.734375 C 4.078125 -20.828125 3.882812 -20.875 3.59375 -20.875 L 1.4375 -20.875 C 1.007812 -20.875 0.722656 -20.945312 0.578125 -21.09375 C 0.429688 -21.238281 0.359375 -21.523438 0.359375 -21.953125 L 0.359375 -24.125 C 0.359375 -24.550781 0.429688 -24.835938 0.578125 -24.984375 C 0.722656 -25.128906 1.007812 -25.203125 1.4375 -25.203125 L 12.59375 -25.203125 C 13.03125 -25.203125 13.320312 -25.128906 13.46875 -24.984375 C 13.613281 -24.835938 13.6875 -24.550781 13.6875 -24.125 L 13.6875 -21.953125 C 13.6875 -21.523438 13.613281 -21.238281 13.46875 -21.09375 C 13.320312 -20.945312 13.03125 -20.875 12.59375 -20.875 L 10.4375 -20.875 C 10.15625 -20.875 9.960938 -20.828125 9.859375 -20.734375 C 9.765625 -20.640625 9.71875 -20.445312 9.71875 -20.15625 L 9.71875 -1.078125 C 9.71875 -0.648438 9.644531 -0.363281 9.5 -0.21875 C 9.351562 -0.0703125 9.066406 0 8.640625 0 Z M 5.40625 0 "/></g></g></g><g fill="#f6e7d8" fill-opacity="1"><g transform="translate(204.802596, 318.436093)"><g><path d="M 2.515625 0 C 2.085938 0 1.800781 -0.0703125 1.65625 -0.21875 C 1.507812 -0.363281 1.4375 -0.648438 1.4375 -1.078125 L 1.4375 -24.125 C 1.4375 -24.550781 1.507812 -24.835938 1.65625 -24.984375 C 1.800781 -25.128906 2.085938 -25.203125 2.515625 -25.203125 L 11.875 -25.203125 C 12.3125 -25.203125 12.597656 -25.128906 12.734375 -24.984375 C 12.878906 -24.835938 12.953125 -24.550781 12.953125 -24.125 L 12.953125 -21.953125 C 12.953125 -21.523438 12.878906 -21.238281 12.734375 -21.09375 C 12.597656 -20.945312 12.3125 -20.875 11.875 -20.875 L 7.5625 -20.875 C 7.269531 -20.875 7.078125 -20.828125 6.984375 -20.734375 C 6.890625 -20.640625 6.84375 -20.445312 6.84375 -20.15625 L 6.84375 -15.84375 C 6.84375 -15.550781 6.890625 -15.359375 6.984375 -15.265625 C 7.078125 -15.171875 7.269531 -15.125 7.5625 -15.125 L 10.078125 -15.125 C 10.515625 -15.125 10.800781 -15.050781 10.9375 -14.90625 C 11.082031 -14.757812 11.15625 -14.472656 11.15625 -14.046875 L 11.15625 -11.875 C 11.15625 -11.445312 11.082031 -11.160156 10.9375 -11.015625 C 10.800781 -10.867188 10.515625 -10.796875 10.078125 -10.796875 L 7.5625 -10.796875 C 7.269531 -10.796875 7.078125 -10.75 6.984375 -10.65625 C 6.890625 -10.5625 6.84375 -10.367188 6.84375 -10.078125 L 6.84375 -5.046875 C 6.84375 -4.753906 6.890625 -4.554688 6.984375 -4.453125 C 7.078125 -4.359375 7.269531 -4.3125 7.5625 -4.3125 L 11.875 -4.3125 C 12.3125 -4.3125 12.597656 -4.238281 12.734375 -4.09375 C 12.878906 -3.957031 12.953125 -3.671875 12.953125 -3.234375 L 12.953125 -1.078125 C 12.953125 -0.648438 12.878906 -0.363281 12.734375 -0.21875 C 12.597656 -0.0703125 12.3125 0 11.875 0 Z M 2.515625 0 "/></g></g></g><g fill="#f6e7d8" fill-opacity="1"><g transform="translate(220.422122, 318.436093)"><g><path d="M 12.953125 0.1875 C 11.398438 0.1875 10.289062 -0.140625 9.625 -0.796875 C 8.96875 -1.460938 8.640625 -2.578125 8.640625 -4.140625 L 8.640625 -8.640625 C 8.640625 -9.003906 8.578125 -9.304688 8.453125 -9.546875 C 8.335938 -9.785156 8.097656 -9.90625 7.734375 -9.90625 L 7.375 -9.90625 C 7.164062 -9.90625 7.023438 -9.867188 6.953125 -9.796875 C 6.878906 -9.722656 6.84375 -9.578125 6.84375 -9.359375 L 6.84375 -1.078125 C 6.84375 -0.648438 6.769531 -0.363281 6.625 -0.21875 C 6.476562 -0.0703125 6.191406 0 5.765625 0 L 2.515625 0 C 2.085938 0 1.800781 -0.0703125 1.65625 -0.21875 C 1.507812 -0.363281 1.4375 -0.648438 1.4375 -1.078125 L 1.4375 -24.125 C 1.4375 -24.550781 1.507812 -24.835938 1.65625 -24.984375 C 1.800781 -25.128906 2.085938 -25.203125 2.515625 -25.203125 L 7.734375 -25.203125 C 9.828125 -25.203125 11.460938 -24.625 12.640625 -23.46875 C 13.816406 -22.320312 14.40625 -20.800781 14.40625 -18.90625 L 14.40625 -16.203125 C 14.40625 -15.359375 14.269531 -14.679688 14 -14.171875 C 13.738281 -13.671875 13.453125 -13.28125 13.140625 -13 C 12.753906 -12.65625 12.332031 -12.398438 11.875 -12.234375 L 11.875 -11.875 C 12.28125 -11.707031 12.640625 -11.457031 12.953125 -11.125 C 13.222656 -10.832031 13.472656 -10.425781 13.703125 -9.90625 C 13.929688 -9.394531 14.046875 -8.734375 14.046875 -7.921875 L 14.046875 -5.046875 C 14.046875 -4.628906 14.113281 -4.378906 14.25 -4.296875 C 14.394531 -4.210938 14.554688 -4.148438 14.734375 -4.109375 C 14.921875 -4.078125 15.09375 -4.019531 15.25 -3.9375 C 15.40625 -3.851562 15.484375 -3.617188 15.484375 -3.234375 L 15.484375 -0.71875 C 15.484375 -0.363281 15.421875 -0.125 15.296875 0 C 15.179688 0.125 14.941406 0.1875 14.578125 0.1875 Z M 7.734375 -14.21875 C 8.097656 -14.21875 8.398438 -14.335938 8.640625 -14.578125 C 8.878906 -14.816406 9 -15.117188 9 -15.484375 L 9 -19.625 C 9 -19.976562 8.878906 -20.273438 8.640625 -20.515625 C 8.398438 -20.753906 8.097656 -20.875 7.734375 -20.875 L 7.375 -20.875 C 7.164062 -20.875 7.023438 -20.835938 6.953125 -20.765625 C 6.878906 -20.691406 6.84375 -20.550781 6.84375 -20.34375 L 6.84375 -14.765625 C 6.84375 -14.546875 6.878906 -14.398438 6.953125 -14.328125 C 7.023438 -14.253906 7.164062 -14.21875 7.375 -14.21875 Z M 7.734375 -14.21875 "/></g></g></g><g clip-path="url(#a22b81c1ce)"><path fill="#f6e7d8" d="M 247.671875 214.050781 L 228.074219 214.050781 L 228.074219 182.429688 L 247.671875 182.429688 Z M 247.671875 214.050781 " fill-opacity="1" fill-rule="nonzero"/></g><g clip-path="url(#d95dc4b127)"><path fill="#f6e7d8" d="M 253.132812 207.578125 L 242.21875 207.578125 L 242.21875 188.949219 L 253.132812 188.949219 Z M 253.132812 207.578125 " fill-opacity="1" fill-rule="nonzero"/></g><g clip-path="url(#1e44d55be5)"><path fill="#303030" d="M 244.941406 214.050781 L 242.5 214.050781 L 242.5 182.460938 L 244.941406 182.460938 Z M 244.941406 214.050781 " fill-opacity="1" fill-rule="nonzero"/></g><g fill="#f6e7d8" fill-opacity="1"><g transform="translate(89.295685, 217.812221)"><g><path d="M 0.515625 -5.359375 L 0.09375 -0.96875 C 0.0820312 -0.832031 0.015625 -0.769531 -0.109375 -0.78125 L -0.9375 -0.859375 C -1.0625 -0.867188 -1.117188 -0.941406 -1.109375 -1.078125 L -1 -2.28125 L -10.03125 -3.15625 L -10.140625 -1.953125 C -10.148438 -1.816406 -10.222656 -1.753906 -10.359375 -1.765625 L -11.171875 -1.84375 C -11.296875 -1.851562 -11.351562 -1.925781 -11.34375 -2.0625 L -10.5625 -10.234375 C -10.539062 -10.367188 -10.46875 -10.429688 -10.34375 -10.421875 L -7.765625 -10.171875 C -7.628906 -10.160156 -7.570312 -10.085938 -7.59375 -9.953125 L -7.671875 -9.09375 C -7.679688 -8.96875 -7.753906 -8.910156 -7.890625 -8.921875 L -9.453125 -9.078125 L -9.890625 -4.546875 L -5.9375 -4.171875 L -5.578125 -7.921875 C -5.566406 -8.054688 -5.5 -8.117188 -5.375 -8.109375 L -4.5625 -8.03125 C -4.4375 -8.007812 -4.378906 -7.929688 -4.390625 -7.796875 L -4.75 -4.046875 L -0.859375 -3.671875 L -0.6875 -5.46875 C -0.675781 -5.59375 -0.609375 -5.648438 -0.484375 -5.640625 L 0.34375 -5.5625 C 0.46875 -5.550781 0.523438 -5.484375 0.515625 -5.359375 Z M 0.515625 -5.359375 "/></g></g></g><g fill="#f6e7d8" fill-opacity="1"><g transform="translate(92.781512, 196.261062)"><g><path d="M 1.421875 -4.59375 L 0.28125 -0.921875 C 0.238281 -0.796875 0.160156 -0.753906 0.046875 -0.796875 L -0.75 -1.03125 C -0.875 -1.070312 -0.914062 -1.15625 -0.875 -1.28125 L -0.515625 -2.453125 L -9.1875 -5.109375 L -9.546875 -3.9375 C -9.585938 -3.8125 -9.671875 -3.769531 -9.796875 -3.8125 L -10.578125 -4.046875 C -10.703125 -4.085938 -10.742188 -4.171875 -10.703125 -4.296875 L -9.5625 -7.96875 C -9.519531 -8.113281 -9.4375 -8.164062 -9.3125 -8.125 L -8.53125 -7.890625 C -8.40625 -7.847656 -8.363281 -7.753906 -8.40625 -7.609375 L -8.78125 -6.4375 L -0.109375 -3.78125 L 0.265625 -4.953125 C 0.304688 -5.097656 0.390625 -5.148438 0.515625 -5.109375 L 1.3125 -4.875 C 1.425781 -4.832031 1.460938 -4.738281 1.421875 -4.59375 Z M 1.421875 -4.59375 "/></g></g></g><g fill="#f6e7d8" fill-opacity="1"><g transform="translate(98.781766, 179.862304)"><g><path d="M 3.71875 -6.671875 L 1.90625 -3.421875 C 1.84375 -3.304688 1.753906 -3.28125 1.640625 -3.34375 L 0.953125 -3.734375 C 0.828125 -3.796875 0.796875 -3.882812 0.859375 -4 L 1.453125 -5.0625 L -6.484375 -9.484375 L -7.953125 -6.84375 L -6.484375 -6.015625 C -6.347656 -5.953125 -6.316406 -5.859375 -6.390625 -5.734375 L -6.828125 -4.9375 C -6.898438 -4.8125 -7.003906 -4.78125 -7.140625 -4.84375 L -9.484375 -6.15625 C -9.597656 -6.21875 -9.617188 -6.3125 -9.546875 -6.4375 L -4.859375 -14.875 C -4.785156 -15 -4.691406 -15.03125 -4.578125 -14.96875 L -2.234375 -13.65625 C -2.097656 -13.59375 -2.066406 -13.5 -2.140625 -13.375 L -2.578125 -12.578125 C -2.648438 -12.453125 -2.753906 -12.421875 -2.890625 -12.484375 L -4.359375 -13.3125 L -5.8125 -10.703125 L 2.125 -6.28125 L 2.671875 -7.25 C 2.742188 -7.382812 2.84375 -7.421875 2.96875 -7.359375 L 3.65625 -6.96875 C 3.769531 -6.90625 3.789062 -6.804688 3.71875 -6.671875 Z M 3.71875 -6.671875 "/></g></g></g><g fill="#f6e7d8" fill-opacity="1"><g transform="translate(111.147226, 160.350854)"><g><path d="M 7.328125 -7.8125 L 6.75 -7.1875 C 6.601562 -7.039062 6.460938 -6.953125 6.328125 -6.921875 C 6.191406 -6.890625 6.023438 -6.894531 5.828125 -6.9375 L -2.609375 -8.515625 L -4.15625 -8.84375 L -4.171875 -8.8125 L 1.578125 -3.4375 L 2.421875 -4.34375 C 2.515625 -4.445312 2.609375 -4.453125 2.703125 -4.359375 L 3.296875 -3.796875 C 3.390625 -3.710938 3.390625 -3.617188 3.296875 -3.515625 L 0.65625 -0.703125 C 0.570312 -0.609375 0.484375 -0.601562 0.390625 -0.6875 L -0.203125 -1.25 C -0.296875 -1.34375 -0.300781 -1.4375 -0.21875 -1.53125 L 0.625 -2.421875 L -6 -8.625 L -6.84375 -7.734375 C -6.925781 -7.640625 -7.019531 -7.640625 -7.125 -7.734375 L -7.703125 -8.28125 C -7.796875 -8.375 -7.800781 -8.46875 -7.71875 -8.5625 L -6.171875 -10.203125 C -5.960938 -10.429688 -5.648438 -10.503906 -5.234375 -10.421875 L 3.09375 -8.875 L 4.859375 -8.46875 L 4.875 -8.484375 L -0.984375 -13.984375 L -1.828125 -13.078125 C -1.910156 -12.992188 -2.003906 -13 -2.109375 -13.09375 L -2.6875 -13.640625 C -2.78125 -13.734375 -2.785156 -13.820312 -2.703125 -13.90625 L -0.0625 -16.734375 C 0.03125 -16.828125 0.125 -16.828125 0.21875 -16.734375 L 0.796875 -16.1875 C 0.898438 -16.09375 0.90625 -16 0.8125 -15.90625 L -0.03125 -15 L 7.328125 -8.09375 C 7.421875 -8.007812 7.421875 -7.914062 7.328125 -7.8125 Z M 7.328125 -7.8125 "/></g></g></g><g fill="#f6e7d8" fill-opacity="1"><g transform="translate(129.056814, 143.48878)"><g><path d="M 7.921875 -5.171875 L 0.8125 -0.53125 C 0.695312 -0.457031 0.601562 -0.472656 0.53125 -0.578125 L 0.078125 -1.265625 C 0.015625 -1.367188 0.0390625 -1.457031 0.15625 -1.53125 L 1.171875 -2.203125 L -3.796875 -9.8125 L -4.8125 -9.140625 C -4.925781 -9.066406 -5.019531 -9.085938 -5.09375 -9.203125 L -5.53125 -9.875 C -5.601562 -9.976562 -5.582031 -10.066406 -5.46875 -10.140625 L 1.640625 -14.78125 C 1.765625 -14.863281 1.863281 -14.851562 1.9375 -14.75 L 3.34375 -12.59375 C 3.414062 -12.476562 3.390625 -12.378906 3.265625 -12.296875 L 2.546875 -11.828125 C 2.441406 -11.765625 2.351562 -11.789062 2.28125 -11.90625 L 1.421875 -13.21875 L -2.625 -10.5625 L -0.453125 -7.234375 L 2.9375 -9.453125 C 3.050781 -9.523438 3.144531 -9.507812 3.21875 -9.40625 L 3.65625 -8.734375 C 3.726562 -8.628906 3.707031 -8.539062 3.59375 -8.46875 L 0.203125 -6.25 L 2.34375 -2.953125 L 6.390625 -5.59375 L 5.53125 -6.90625 C 5.46875 -7.007812 5.488281 -7.097656 5.59375 -7.171875 L 6.3125 -7.640625 C 6.4375 -7.722656 6.53125 -7.710938 6.59375 -7.609375 L 8 -5.453125 C 8.070312 -5.347656 8.046875 -5.253906 7.921875 -5.171875 Z M 7.921875 -5.171875 "/></g></g></g><g fill="#f6e7d8" fill-opacity="1"><g transform="translate(148.161663, 132.575509)"><g><path d="M 1.765625 -0.640625 L 0.90625 -0.328125 C 0.78125 -0.285156 0.695312 -0.320312 0.65625 -0.4375 L -0.640625 -3.96875 C -0.679688 -4.09375 -0.640625 -4.175781 -0.515625 -4.21875 L 0.4375 -4.578125 C 0.5625 -4.617188 0.644531 -4.578125 0.6875 -4.453125 L 0.8125 -4.125 C 0.875 -3.9375 1.078125 -3.722656 1.421875 -3.484375 C 1.773438 -3.253906 2.101562 -3.082031 2.40625 -2.96875 C 2.707031 -2.851562 3.078125 -2.789062 3.515625 -2.78125 C 3.953125 -2.78125 4.394531 -2.863281 4.84375 -3.03125 C 5.613281 -3.3125 6.160156 -3.691406 6.484375 -4.171875 C 6.804688 -4.648438 6.859375 -5.179688 6.640625 -5.765625 C 6.523438 -6.085938 6.300781 -6.320312 5.96875 -6.46875 C 5.632812 -6.625 5.242188 -6.695312 4.796875 -6.6875 C 4.359375 -6.675781 3.878906 -6.644531 3.359375 -6.59375 C 2.847656 -6.550781 2.328125 -6.519531 1.796875 -6.5 C 1.265625 -6.476562 0.765625 -6.503906 0.296875 -6.578125 C -0.171875 -6.648438 -0.597656 -6.832031 -0.984375 -7.125 C -1.367188 -7.414062 -1.660156 -7.828125 -1.859375 -8.359375 C -2.160156 -9.203125 -2.09375 -10.007812 -1.65625 -10.78125 C -1.226562 -11.5625 -0.484375 -12.148438 0.578125 -12.546875 C 1.941406 -13.046875 3.082031 -13.015625 4 -12.453125 L 3.625 -13.375 C 3.582031 -13.488281 3.625 -13.566406 3.75 -13.609375 L 4.59375 -13.921875 C 4.71875 -13.960938 4.800781 -13.925781 4.84375 -13.8125 L 6.046875 -10.53125 C 6.085938 -10.40625 6.046875 -10.320312 5.921875 -10.28125 L 4.96875 -9.9375 C 4.851562 -9.894531 4.773438 -9.9375 4.734375 -10.0625 L 4.578125 -10.484375 C 4.429688 -10.890625 4.050781 -11.21875 3.4375 -11.46875 C 2.820312 -11.726562 2.066406 -11.691406 1.171875 -11.359375 C 0.515625 -11.117188 0.0390625 -10.765625 -0.25 -10.296875 C -0.539062 -9.835938 -0.597656 -9.363281 -0.421875 -8.875 C -0.285156 -8.519531 -0.0507812 -8.265625 0.28125 -8.109375 C 0.625 -7.953125 1.023438 -7.867188 1.484375 -7.859375 C 1.941406 -7.859375 2.429688 -7.882812 2.953125 -7.9375 C 3.484375 -7.988281 4.015625 -8.03125 4.546875 -8.0625 C 5.085938 -8.09375 5.597656 -8.070312 6.078125 -8 C 6.554688 -7.9375 6.984375 -7.769531 7.359375 -7.5 C 7.742188 -7.226562 8.023438 -6.84375 8.203125 -6.34375 C 8.523438 -5.457031 8.472656 -4.609375 8.046875 -3.796875 C 7.628906 -2.992188 6.796875 -2.363281 5.546875 -1.90625 C 4.628906 -1.570312 3.800781 -1.484375 3.0625 -1.640625 C 2.320312 -1.796875 1.738281 -2.035156 1.3125 -2.359375 L 1.875 -0.875 C 1.914062 -0.757812 1.878906 -0.679688 1.765625 -0.640625 Z M 1.765625 -0.640625 "/></g></g></g><g fill="#f6e7d8" fill-opacity="1"><g transform="translate(169.430059, 126.197527)"><g><path d="M 1.859375 -0.234375 L 0.96875 -0.125 C 0.832031 -0.101562 0.757812 -0.15625 0.75 -0.28125 L 0.28125 -4 C 0.269531 -4.132812 0.332031 -4.210938 0.46875 -4.234375 L 1.46875 -4.34375 C 1.59375 -4.363281 1.660156 -4.304688 1.671875 -4.171875 L 1.71875 -3.828125 C 1.738281 -3.628906 1.890625 -3.378906 2.171875 -3.078125 C 2.460938 -2.773438 2.738281 -2.53125 3 -2.34375 C 3.269531 -2.15625 3.617188 -2.007812 4.046875 -1.90625 C 4.484375 -1.8125 4.9375 -1.796875 5.40625 -1.859375 C 6.226562 -1.953125 6.847656 -2.195312 7.265625 -2.59375 C 7.679688 -2.988281 7.851562 -3.492188 7.78125 -4.109375 C 7.738281 -4.441406 7.570312 -4.71875 7.28125 -4.9375 C 6.988281 -5.164062 6.625 -5.328125 6.1875 -5.421875 C 5.757812 -5.515625 5.285156 -5.59375 4.765625 -5.65625 C 4.253906 -5.71875 3.734375 -5.800781 3.203125 -5.90625 C 2.679688 -6.019531 2.203125 -6.164062 1.765625 -6.34375 C 1.328125 -6.519531 0.953125 -6.789062 0.640625 -7.15625 C 0.328125 -7.53125 0.140625 -8 0.078125 -8.5625 C -0.0351562 -9.445312 0.207031 -10.21875 0.8125 -10.875 C 1.414062 -11.539062 2.285156 -11.941406 3.421875 -12.078125 C 4.859375 -12.253906 5.953125 -11.96875 6.703125 -11.21875 L 6.5625 -12.203125 C 6.539062 -12.316406 6.597656 -12.382812 6.734375 -12.40625 L 7.640625 -12.515625 C 7.765625 -12.535156 7.835938 -12.488281 7.859375 -12.375 L 8.28125 -8.90625 C 8.289062 -8.769531 8.234375 -8.691406 8.109375 -8.671875 L 7.09375 -8.546875 C 6.96875 -8.535156 6.898438 -8.597656 6.890625 -8.734375 L 6.828125 -9.171875 C 6.773438 -9.609375 6.476562 -10.015625 5.9375 -10.390625 C 5.40625 -10.773438 4.671875 -10.910156 3.734375 -10.796875 C 3.023438 -10.710938 2.476562 -10.476562 2.09375 -10.09375 C 1.707031 -9.71875 1.546875 -9.269531 1.609375 -8.75 C 1.648438 -8.375 1.816406 -8.070312 2.109375 -7.84375 C 2.398438 -7.613281 2.769531 -7.441406 3.21875 -7.328125 C 3.664062 -7.222656 4.148438 -7.132812 4.671875 -7.0625 C 5.191406 -6.988281 5.71875 -6.90625 6.25 -6.8125 C 6.78125 -6.71875 7.269531 -6.585938 7.71875 -6.421875 C 8.175781 -6.253906 8.554688 -5.988281 8.859375 -5.625 C 9.171875 -5.269531 9.363281 -4.832031 9.4375 -4.3125 C 9.550781 -3.375 9.3125 -2.5625 8.71875 -1.875 C 8.125 -1.195312 7.164062 -0.773438 5.84375 -0.609375 C 4.875 -0.484375 4.046875 -0.578125 3.359375 -0.890625 C 2.679688 -1.203125 2.164062 -1.570312 1.8125 -2 L 2.03125 -0.4375 C 2.039062 -0.3125 1.984375 -0.242188 1.859375 -0.234375 Z M 1.859375 -0.234375 "/></g></g></g><g fill="#f6e7d8" fill-opacity="1"><g transform="translate(191.728165, 124.923457)"><g/></g></g><g fill="#f6e7d8" fill-opacity="1"><g transform="translate(208.279281, 127.079109)"><g><path d="M 11.515625 0.390625 C 11.554688 0.429688 11.566406 0.476562 11.546875 0.53125 C 11.535156 0.59375 11.492188 0.664062 11.421875 0.75 C 11.347656 0.832031 11.234375 0.9375 11.078125 1.0625 C 10.921875 1.1875 10.660156 1.347656 10.296875 1.546875 C 9.941406 1.753906 9.570312 1.90625 9.1875 2 C 8.800781 2.09375 8.316406 2.140625 7.734375 2.140625 C 7.148438 2.140625 6.550781 2.046875 5.9375 1.859375 C 4.445312 1.421875 3.351562 0.535156 2.65625 -0.796875 C 1.96875 -2.140625 1.875 -3.65625 2.375 -5.34375 C 2.875 -7.039062 3.773438 -8.238281 5.078125 -8.9375 C 6.378906 -9.644531 7.738281 -9.789062 9.15625 -9.375 C 10.75 -8.90625 11.742188 -8.019531 12.140625 -6.71875 L 12.53125 -8.09375 C 12.550781 -8.21875 12.628906 -8.257812 12.765625 -8.21875 L 13.625 -7.96875 C 13.757812 -7.925781 13.804688 -7.847656 13.765625 -7.734375 L 12.78125 -4.390625 C 12.738281 -4.242188 12.648438 -4.191406 12.515625 -4.234375 L 11.546875 -4.515625 C 11.421875 -4.546875 11.378906 -4.632812 11.421875 -4.78125 L 11.46875 -4.90625 C 11.601562 -5.375 11.425781 -5.953125 10.9375 -6.640625 C 10.445312 -7.335938 9.726562 -7.828125 8.78125 -8.109375 C 7.832031 -8.390625 6.863281 -8.265625 5.875 -7.734375 C 4.882812 -7.210938 4.1875 -6.265625 3.78125 -4.890625 C 3.375 -3.515625 3.441406 -2.332031 3.984375 -1.34375 C 4.535156 -0.363281 5.328125 0.273438 6.359375 0.578125 C 7.472656 0.910156 8.425781 0.921875 9.21875 0.609375 C 9.832031 0.367188 10.316406 0.0820312 10.671875 -0.25 C 10.796875 -0.375 10.90625 -0.375 11 -0.25 Z M 11.515625 0.390625 "/></g></g></g><g fill="#f6e7d8" fill-opacity="1"><g transform="translate(230.41494, 135.097786)"><g><path d="M 8.21875 4.703125 L 0.84375 0.484375 C 0.726562 0.410156 0.703125 0.320312 0.765625 0.21875 L 1.171875 -0.5 C 1.234375 -0.613281 1.320312 -0.632812 1.4375 -0.5625 L 2.484375 0.046875 L 7 -7.828125 L 5.953125 -8.4375 C 5.835938 -8.507812 5.816406 -8.601562 5.890625 -8.71875 L 6.296875 -9.421875 C 6.347656 -9.535156 6.429688 -9.554688 6.546875 -9.484375 L 13.921875 -5.265625 C 14.046875 -5.191406 14.082031 -5.097656 14.03125 -4.984375 L 12.734375 -2.75 C 12.671875 -2.632812 12.578125 -2.613281 12.453125 -2.6875 L 11.703125 -3.109375 C 11.597656 -3.171875 11.578125 -3.257812 11.640625 -3.375 L 12.421875 -4.734375 L 8.21875 -7.140625 L 6.25 -3.703125 L 9.75 -1.6875 C 9.882812 -1.613281 9.921875 -1.519531 9.859375 -1.40625 L 9.453125 -0.703125 C 9.390625 -0.597656 9.289062 -0.582031 9.15625 -0.65625 L 5.65625 -2.671875 L 3.703125 0.734375 L 7.890625 3.140625 L 8.671875 1.78125 C 8.734375 1.675781 8.820312 1.65625 8.9375 1.71875 L 9.6875 2.140625 C 9.8125 2.210938 9.84375 2.300781 9.78125 2.40625 L 8.5 4.65625 C 8.4375 4.757812 8.34375 4.773438 8.21875 4.703125 Z M 8.21875 4.703125 "/></g></g></g><g fill="#f6e7d8" fill-opacity="1"><g transform="translate(248.824248, 147.053669)"><g><path d="M 7.765625 7.390625 L 7.140625 6.796875 C 6.992188 6.648438 6.90625 6.507812 6.875 6.375 C 6.84375 6.238281 6.851562 6.070312 6.90625 5.875 L 8.53125 -2.5625 L 8.859375 -4.09375 L 8.84375 -4.109375 L 3.421875 1.59375 L 4.3125 2.4375 C 4.414062 2.539062 4.425781 2.640625 4.34375 2.734375 L 3.765625 3.328125 C 3.679688 3.421875 3.585938 3.414062 3.484375 3.3125 L 0.703125 0.671875 C 0.609375 0.578125 0.601562 0.484375 0.6875 0.390625 L 1.265625 -0.203125 C 1.347656 -0.296875 1.4375 -0.296875 1.53125 -0.203125 L 2.40625 0.625 L 8.65625 -5.953125 L 7.78125 -6.78125 C 7.6875 -6.875 7.6875 -6.96875 7.78125 -7.0625 L 8.34375 -7.65625 C 8.425781 -7.75 8.515625 -7.75 8.609375 -7.65625 L 10.234375 -6.109375 C 10.460938 -5.890625 10.535156 -5.566406 10.453125 -5.140625 L 8.859375 3.15625 L 8.4375 4.921875 L 8.453125 4.9375 L 13.984375 -0.890625 L 13.09375 -1.734375 C 13 -1.816406 13 -1.90625 13.09375 -2 L 13.65625 -2.59375 C 13.738281 -2.6875 13.828125 -2.691406 13.921875 -2.609375 L 16.71875 0.046875 C 16.8125 0.140625 16.816406 0.234375 16.734375 0.328125 L 16.171875 0.921875 C 16.078125 1.015625 15.984375 1.015625 15.890625 0.921875 L 15 0.078125 L 8.046875 7.390625 C 7.960938 7.484375 7.867188 7.484375 7.765625 7.390625 Z M 7.765625 7.390625 "/></g></g></g><g fill="#f6e7d8" fill-opacity="1"><g transform="translate(265.57308, 165.035246)"><g><path d="M 4.09375 6.453125 L 2.109375 3.3125 C 2.035156 3.195312 2.054688 3.101562 2.171875 3.03125 L 2.828125 2.609375 C 2.953125 2.535156 3.050781 2.554688 3.125 2.671875 L 3.765625 3.703125 L 11.421875 -1.171875 L 9.796875 -3.734375 L 8.375 -2.828125 C 8.257812 -2.742188 8.164062 -2.765625 8.09375 -2.890625 L 7.609375 -3.65625 C 7.523438 -3.78125 7.539062 -3.882812 7.65625 -3.96875 L 9.9375 -5.40625 C 10.050781 -5.476562 10.148438 -5.453125 10.234375 -5.328125 L 15.40625 2.828125 C 15.476562 2.953125 15.457031 3.050781 15.34375 3.125 L 13.0625 4.5625 C 12.945312 4.644531 12.851562 4.625 12.78125 4.5 L 12.296875 3.734375 C 12.210938 3.609375 12.226562 3.503906 12.34375 3.421875 L 13.765625 2.515625 L 12.171875 0 L 4.515625 4.875 L 5.109375 5.8125 C 5.191406 5.9375 5.171875 6.035156 5.046875 6.109375 L 4.390625 6.53125 C 4.273438 6.601562 4.175781 6.578125 4.09375 6.453125 Z M 4.09375 6.453125 "/></g></g></g><g fill="#f6e7d8" fill-opacity="1"><g transform="translate(276.77254, 185.30203)"><g><path d="M 3.09375 8.953125 L 0.3125 0.921875 C 0.269531 0.785156 0.304688 0.695312 0.421875 0.65625 L 1.203125 0.390625 C 1.328125 0.347656 1.410156 0.394531 1.453125 0.53125 L 1.859375 1.671875 L 10.4375 -1.296875 L 10.03125 -2.4375 C 9.988281 -2.570312 10.03125 -2.664062 10.15625 -2.71875 L 10.921875 -2.984375 C 11.046875 -3.023438 11.128906 -2.976562 11.171875 -2.84375 L 13.953125 5.1875 C 14.003906 5.320312 13.96875 5.410156 13.84375 5.453125 L 11.40625 6.296875 C 11.28125 6.347656 11.191406 6.304688 11.140625 6.171875 L 10.859375 5.359375 C 10.816406 5.234375 10.859375 5.144531 10.984375 5.09375 L 12.46875 4.59375 L 10.890625 0.015625 L 7.140625 1.3125 L 8.46875 5.140625 C 8.507812 5.273438 8.46875 5.363281 8.34375 5.40625 L 7.578125 5.671875 C 7.460938 5.710938 7.382812 5.664062 7.34375 5.53125 L 6.015625 1.703125 L 2.3125 2.984375 L 3.890625 7.546875 L 5.359375 7.03125 C 5.484375 6.988281 5.566406 7.035156 5.609375 7.171875 L 5.890625 7.984375 C 5.941406 8.117188 5.90625 8.207031 5.78125 8.25 L 3.34375 9.09375 C 3.226562 9.132812 3.144531 9.085938 3.09375 8.953125 Z M 3.09375 8.953125 "/></g></g></g><g fill="#f6e7d8" fill-opacity="1"><g transform="translate(282.745677, 206.463394)"><g><path d="M 1.0625 10.421875 L 0.921875 9.046875 C 0.890625 8.660156 1.113281 8.3125 1.59375 8 L 4.484375 6.203125 C 4.734375 6.046875 4.910156 5.890625 5.015625 5.734375 C 5.128906 5.578125 5.179688 5.367188 5.171875 5.109375 L 4.953125 3.09375 L 1.5625 3.4375 L 1.71875 4.875 C 1.726562 5 1.671875 5.066406 1.546875 5.078125 L 0.71875 5.171875 C 0.59375 5.179688 0.523438 5.125 0.515625 5 L 0.09375 0.96875 C 0.0820312 0.832031 0.140625 0.757812 0.265625 0.75 L 1.09375 0.65625 C 1.21875 0.644531 1.285156 0.707031 1.296875 0.84375 L 1.421875 2.046875 L 10.453125 1.125 L 10.328125 -0.078125 C 10.316406 -0.210938 10.375 -0.285156 10.5 -0.296875 L 11.3125 -0.390625 C 11.4375 -0.398438 11.503906 -0.335938 11.515625 -0.203125 L 12.03125 4.703125 C 12.144531 5.828125 11.941406 6.78125 11.421875 7.5625 C 10.898438 8.34375 10.085938 8.789062 8.984375 8.90625 C 7.316406 9.070312 6.191406 8.394531 5.609375 6.875 C 5.472656 7.09375 5.148438 7.375 4.640625 7.71875 L 2.171875 9.328125 L 2.265625 10.296875 C 2.285156 10.421875 2.234375 10.488281 2.109375 10.5 L 1.28125 10.59375 C 1.15625 10.601562 1.082031 10.546875 1.0625 10.421875 Z M 6.09375 2.96875 L 6.3125 5 C 6.5 6.8125 7.328125 7.644531 8.796875 7.5 C 10.328125 7.34375 11 6.359375 10.8125 4.546875 L 10.59375 2.515625 Z M 6.09375 2.96875 "/></g></g></g></svg>