<svg xmlns="http://www.w3.org/2000/svg" xmlns:xlink="http://www.w3.org/1999/xlink" width="600" zoomAndPan="magnify" viewBox="0 0 450 449.999984" height="600" preserveAspectRatio="xMidYMid meet" version="1.0"><defs><g/><clipPath id="3a31a82da6"><path d="M 103.703125 69.015625 L 345.378906 69.015625 L 345.378906 256.417969 L 103.703125 256.417969 Z M 103.703125 69.015625 " clip-rule="nonzero"/></clipPath><clipPath id="4fb84a9dda"><path d="M 113.386719 149.441406 L 153.703125 149.441406 L 153.703125 214.421875 L 113.386719 214.421875 Z M 113.386719 149.441406 " clip-rule="nonzero"/></clipPath><clipPath id="02383d8053"><path d="M 102.160156 162.765625 L 124.609375 162.765625 L 124.609375 201.097656 L 102.160156 201.097656 Z M 102.160156 162.765625 " clip-rule="nonzero"/></clipPath><clipPath id="d180257dce"><path d="M 188.503906 96.203125 L 299 96.203125 L 299 224 L 188.503906 224 Z M 188.503906 96.203125 " clip-rule="nonzero"/></clipPath><clipPath id="42e608cf19"><path d="M 230.6875 69.015625 L 345.164062 69.015625 L 345.164062 256.417969 L 230.6875 256.417969 Z M 230.6875 69.015625 " clip-rule="nonzero"/></clipPath><clipPath id="eab8347254"><path d="M 246.125 164.382812 L 299 164.382812 L 299 223.738281 L 246.125 223.738281 Z M 246.125 164.382812 " clip-rule="nonzero"/></clipPath><clipPath id="450e811108"><path d="M 119.003906 149.441406 L 124.027344 149.441406 L 124.027344 214.421875 L 119.003906 214.421875 Z M 119.003906 149.441406 " clip-rule="nonzero"/></clipPath><clipPath id="504946ff7f"><path d="M 310.503906 149.441406 L 350.820312 149.441406 L 350.820312 214.417969 L 310.503906 214.417969 Z M 310.503906 149.441406 " clip-rule="nonzero"/></clipPath><clipPath id="18550001f5"><path d="M 339.601562 162.753906 L 362.050781 162.753906 L 362.050781 201.085938 L 339.601562 201.085938 Z M 339.601562 162.753906 " clip-rule="nonzero"/></clipPath><clipPath id="9d1928025b"><path d="M 340.1875 149.441406 L 345.210938 149.441406 L 345.210938 214.417969 L 340.1875 214.417969 Z M 340.1875 149.441406 " clip-rule="nonzero"/></clipPath></defs><g clip-path="url(#3a31a82da6)"><path fill="#ffcc00" d="M 201.457031 256.039062 L 183.652344 167.828125 L 171.339844 189.199219 L 103.703125 189.199219 L 165.09375 178.394531 L 188.582031 137.621094 L 200.5 196.667969 L 222.007812 69.011719 L 243.988281 203.847656 L 252.472656 178.394531 L 345.539062 189.199219 L 260.265625 189.199219 L 240.378906 248.859375 L 221.832031 135.105469 Z M 201.457031 256.039062 " fill-opacity="1" fill-rule="nonzero"/></g><g clip-path="url(#4fb84a9dda)"><path fill="#ebebeb" d="M 113.386719 149.441406 L 153.703125 149.441406 L 153.703125 214.484375 L 113.386719 214.484375 Z M 113.386719 149.441406 " fill-opacity="1" fill-rule="nonzero"/></g><g clip-path="url(#02383d8053)"><path fill="#ebebeb" d="M 102.160156 162.765625 L 124.609375 162.765625 L 124.609375 201.085938 L 102.160156 201.085938 Z M 102.160156 162.765625 " fill-opacity="1" fill-rule="nonzero"/></g><g clip-path="url(#d180257dce)"><path fill="#ebebeb" d="M 190.1875 203.683594 C 191.425781 203.617188 192.488281 202.402344 193.636719 200.34375 C 194.789062 198.289062 198.925781 197.050781 199.542969 196.894531 C 200.164062 196.742188 200.007812 197.027344 200.007812 197.25 C 200.007812 197.46875 199.71875 197.714844 199.300781 197.914062 C 198.878906 198.113281 198.59375 198.089844 198.0625 198.289062 C 197.53125 198.488281 197.550781 199.394531 197.816406 198.972656 C 198.082031 198.554688 199.121094 198.640625 200.03125 198.222656 C 200.9375 197.800781 201.246094 196.386719 201.335938 196.164062 C 201.421875 195.945312 201.667969 196.164062 202.375 196.164062 C 203.082031 196.164062 202.839844 195.789062 202.660156 195.613281 C 202.484375 195.4375 202.660156 195.324219 202.773438 195.171875 C 202.882812 195.015625 204.386719 194.59375 207.816406 194.109375 C 211.242188 193.621094 215.003906 194.066406 219.027344 194.507812 C 223.050781 194.949219 225.085938 194.882812 227.875 194.550781 C 230.660156 194.21875 234.574219 194.90625 235.921875 194.992188 C 237.273438 195.082031 239.019531 194.351562 239.640625 193.800781 C 240.257812 193.246094 240.613281 192.539062 242.070312 191.566406 C 243.53125 190.59375 245.457031 188.535156 245.457031 188.535156 C 245.457031 188.535156 245.542969 188.578125 245.921875 188.535156 C 246.296875 188.492188 246.296875 188.027344 247.046875 187.429688 C 247.800781 186.832031 250.054688 184.355469 252 182.121094 C 253.949219 179.886719 256.070312 176.152344 256.070312 176.152344 C 256.070312 176.152344 256.976562 177.101562 258.679688 178.382812 C 260.382812 179.667969 261.378906 179.976562 262.308594 180.730469 C 263.238281 181.480469 263.214844 181.148438 263.214844 181.148438 C 263.214844 181.148438 264.164062 181.4375 266.15625 182.277344 C 268.148438 183.117188 271.042969 185.351562 271.398438 185.660156 C 271.75 185.96875 271.398438 188.09375 271.175781 191.210938 C 270.957031 194.328125 271.863281 196.941406 272.902344 198.621094 C 273.941406 200.300781 275.996094 207.421875 276.660156 209.414062 C 277.324219 211.402344 277.746094 215.207031 277.699219 215.363281 C 277.65625 215.515625 277.523438 215.761719 277.457031 215.914062 C 277.390625 216.070312 277.214844 216.710938 277.082031 217.527344 C 276.949219 218.347656 276.949219 219.960938 277.414062 220.757812 C 277.878906 221.554688 277.101562 221.710938 277.148438 222.859375 C 277.191406 224.007812 281.148438 223.855469 281.613281 223.855469 C 282.078125 223.855469 285.285156 223.722656 288.425781 223.433594 C 291.566406 223.148438 294.15625 222.285156 296.765625 220.933594 C 299.375 219.585938 298.445312 218.503906 297.871094 217.925781 C 297.292969 217.351562 296.058594 217.484375 293.691406 217.464844 C 291.324219 217.441406 288.78125 215.714844 288.050781 215.261719 C 287.320312 214.804688 287.410156 214.699219 287.585938 214.523438 C 287.761719 214.34375 288.667969 215.363281 289.246094 215.25 C 289.820312 215.140625 288.980469 214.898438 288.140625 214.234375 C 287.296875 213.570312 287.164062 214.101562 286.503906 213.660156 C 285.839844 213.214844 286.238281 213.039062 285.863281 212.753906 C 285.484375 212.464844 285.265625 212.664062 285.109375 212.597656 C 284.953125 212.53125 284.46875 212.15625 284.46875 212.15625 C 284.46875 212.15625 283.648438 209.765625 282.652344 206.824219 C 281.660156 203.882812 281.792969 199.992188 281.785156 197.335938 C 281.777344 194.683594 280.730469 190.214844 280.621094 188.09375 C 280.507812 185.96875 280.554688 184.710938 280.996094 183.625 C 281.4375 182.542969 281.195312 181.058594 280.308594 179.910156 C 279.425781 178.761719 279.582031 177.5 277.964844 175.886719 C 276.351562 174.269531 275.511719 172.921875 275.421875 172.765625 C 275.335938 172.613281 275.003906 172.5 275.113281 172.28125 C 275.222656 172.058594 275.136719 172.035156 274.757812 171.707031 C 274.382812 171.375 273.101562 169.671875 271.683594 168.410156 C 270.269531 167.148438 267.882812 164.585938 267.859375 164.472656 C 267.835938 164.363281 266.378906 163.082031 266.15625 162.769531 C 265.933594 162.460938 264.476562 161.355469 264.121094 161.15625 C 263.765625 160.957031 263.945312 160.207031 264.011719 159.894531 C 264.078125 159.585938 264.519531 157.019531 264.808594 156.246094 C 265.09375 155.472656 265.425781 154.367188 265.582031 153.703125 C 265.734375 153.039062 266.398438 151.378906 267.0625 149.566406 C 267.726562 147.753906 267.285156 147.53125 267.285156 147.53125 C 267.285156 147.53125 268.875 147.265625 269.894531 146.890625 C 270.910156 146.515625 271.597656 145.71875 272.457031 145.34375 C 273.320312 144.96875 274.914062 144.546875 275.378906 144.191406 C 275.84375 143.839844 276.507812 143.617188 276.816406 143.617188 C 277.125 143.617188 278.03125 143.375 279.09375 142.867188 C 280.15625 142.359375 280.886719 141.207031 280.972656 141.054688 C 281.0625 140.898438 281.59375 140.742188 281.746094 140.234375 C 281.902344 139.726562 281.527344 139.328125 281.261719 139.285156 C 280.996094 139.238281 281.371094 138.773438 281.460938 138.574219 C 281.546875 138.375 281.59375 137.890625 281.328125 137.601562 C 281.0625 137.316406 280.707031 137.558594 280.707031 137.558594 C 280.707031 137.558594 280.796875 137.226562 280.707031 136.671875 C 280.621094 136.121094 280.332031 135.921875 280.109375 135.855469 C 279.890625 135.789062 279.78125 135.589844 279.847656 135.566406 C 279.914062 135.546875 279.824219 134.460938 279.25 134.308594 C 278.671875 134.152344 278.074219 134.773438 278.074219 134.773438 C 278.074219 134.773438 278.03125 134.128906 277.878906 133.644531 C 277.722656 133.15625 277.191406 133.136719 277.035156 133.6875 C 276.882812 134.242188 276.617188 134.351562 276.460938 134.550781 C 276.308594 134.75 276.085938 134.792969 275.820312 135.371094 C 275.554688 135.945312 275.070312 136.078125 274.9375 136.210938 C 274.804688 136.34375 274.339844 136.738281 274.207031 137.25 C 274.074219 137.757812 273.699219 138.640625 273.277344 139.261719 C 272.855469 139.878906 271.640625 139.859375 270.625 139.503906 C 269.605469 139.152344 268.941406 138.820312 268.941406 138.820312 C 268.941406 138.820312 269.097656 137.492188 269.648438 136.605469 C 270.203125 135.722656 270.535156 131.699219 270.511719 131.433594 C 270.492188 131.167969 270.535156 130.546875 271.066406 129.308594 C 271.597656 128.070312 271 125.683594 270.667969 124.644531 C 270.335938 123.601562 270.757812 123.691406 270.246094 121.921875 C 269.738281 120.152344 267.726562 119.269531 267.726562 119.269531 C 267.726562 119.269531 268.941406 118.957031 270.691406 119.089844 C 272.4375 119.226562 272.636719 118.03125 272.4375 117.5 C 272.238281 116.96875 272.394531 116.726562 272.8125 116.105469 C 273.234375 115.488281 272.4375 115.355469 272.105469 114.84375 C 271.773438 114.335938 272.480469 114.203125 273.054688 114.160156 C 273.632812 114.117188 273.675781 113.695312 273.71875 113.453125 C 273.765625 113.210938 273.984375 112.632812 274.074219 112.632812 C 274.160156 112.632812 274.648438 112.722656 275.136719 112.28125 C 275.621094 111.835938 274.890625 110.777344 274.25 109.914062 C 273.609375 109.050781 273.984375 108.984375 273.964844 108.496094 C 273.941406 108.011719 274.226562 107.371094 273.964844 107.0625 C 273.699219 106.75 273.519531 106.066406 273.519531 105.445312 C 273.519531 104.828125 273.253906 104.273438 273.34375 104.273438 C 273.433594 104.273438 273.875 103.742188 273.839844 103.257812 C 273.804688 102.769531 273.585938 101.886719 273.519531 101.644531 C 273.453125 101.398438 273.609375 101.242188 273.785156 101.046875 C 273.964844 100.847656 273.652344 99.851562 273.632812 100.226562 C 273.609375 100.601562 272.96875 100.003906 272.636719 99.695312 C 272.304688 99.386719 272.523438 99.453125 272.394531 98.964844 C 272.261719 98.480469 271.664062 98.4375 271.664062 98.4375 C 271.664062 98.4375 271.882812 98.523438 272.171875 99.097656 C 272.460938 99.675781 270.136719 98.4375 269.230469 97.839844 C 268.324219 97.242188 268.148438 97.152344 266.066406 96.886719 C 263.988281 96.621094 265.867188 96.777344 265.558594 96.488281 C 265.25 96.203125 265.007812 96.601562 263.546875 96.820312 C 262.085938 97.042969 263.65625 96.488281 263.347656 96.488281 C 263.039062 96.488281 262.21875 97.242188 262.175781 97 C 262.132812 96.753906 261.886719 96.929688 261.886719 96.929688 C 262.175781 97 261.554688 97.617188 260.914062 97.617188 C 260.273438 97.617188 260.117188 98.191406 260.117188 98.191406 C 260.207031 98.148438 262 97.550781 260.824219 98.191406 C 259.652344 98.832031 258.238281 100.800781 257.90625 103.367188 C 257.574219 105.933594 257.929688 108.785156 258.371094 110.6875 C 258.8125 112.589844 258.0625 114.492188 257.996094 114.933594 C 257.929688 115.375 257.53125 115.308594 255.738281 115.949219 C 253.949219 116.59375 254.035156 116.878906 253.636719 117.433594 C 253.242188 117.984375 252.886719 117.851562 252.089844 117.984375 C 251.292969 118.117188 249.371094 119.425781 249.371094 119.425781 C 248.464844 119.980469 247.003906 120.640625 244.679688 121.789062 C 242.359375 122.941406 239.816406 124.777344 237.804688 125.992188 C 235.792969 127.207031 234.882812 128.425781 233.734375 129.152344 C 232.585938 129.882812 233.644531 132.492188 234.550781 135.324219 C 235.460938 138.15625 237.671875 140.300781 239.085938 141.914062 C 240.5 143.53125 242.890625 146.804688 243.621094 147.421875 C 244.351562 148.042969 243.664062 149.191406 243.664062 150.320312 C 243.664062 151.445312 244.792969 152.375 244.835938 152.574219 C 244.878906 152.773438 245.167969 153.527344 245.210938 153.613281 C 245.257812 153.703125 245.390625 153.945312 245.167969 154.234375 C 244.945312 154.519531 244.128906 155.847656 243.621094 156.867188 C 243.109375 157.882812 242.933594 158.832031 242.933594 158.832031 C 241.296875 161.554688 242.582031 166.550781 242.714844 167.304688 C 242.847656 168.054688 242.316406 168.386719 242.117188 168.808594 C 241.917969 169.226562 240.28125 171.683594 238.886719 173.804688 C 237.492188 175.929688 235.527344 180.550781 235.328125 180.859375 C 235.128906 181.171875 235.261719 181.769531 235.261719 181.769531 C 235.261719 181.769531 234.640625 182.695312 234.109375 183.226562 C 233.578125 183.757812 232.871094 184.6875 232.40625 184.996094 C 231.941406 185.304688 231.125 184.929688 228.957031 184.246094 C 226.789062 183.558594 224.535156 183.824219 222.71875 183.757812 C 220.90625 183.691406 218.804688 184.953125 217.8125 185.371094 C 216.816406 185.792969 213.234375 186.5 210.886719 187.054688 C 208.542969 187.605469 205.25 188.117188 205.183594 188.117188 C 205.117188 188.117188 204.984375 187.628906 204.210938 187.054688 C 203.433594 186.480469 202.507812 185.75 201.378906 185.019531 C 200.25 184.289062 200.363281 183.582031 199.054688 183.074219 C 197.75 182.5625 196.558594 185.304688 196.160156 186.390625 C 195.761719 187.472656 193.816406 190.613281 192.554688 192.515625 C 191.292969 194.417969 189.746094 198.3125 189.125 200.035156 C 188.507812 201.761719 188.949219 203.75 190.1875 203.683594 Z M 243.464844 135.898438 C 243.175781 133.710938 242.714844 131.917969 242.78125 131.917969 C 242.847656 131.917969 246.429688 131.984375 247.046875 131.765625 C 247.046875 131.765625 246.78125 135.878906 247.046875 139.085938 C 247.3125 142.292969 247.953125 145.144531 247.953125 145.144531 C 247.953125 145.144531 247.070312 143.816406 245.875 141.960938 C 244.679688 140.101562 243.753906 138.089844 243.464844 135.898438 " fill-opacity="1" fill-rule="nonzero"/></g><g clip-path="url(#42e608cf19)"><path fill="#ffcc00" d="M 201.457031 256.039062 L 183.652344 167.828125 L 171.339844 189.199219 L 103.703125 189.199219 L 165.09375 178.394531 L 188.582031 137.621094 L 200.5 196.667969 L 222.007812 69.011719 L 243.988281 203.847656 L 252.472656 178.394531 L 345.539062 189.199219 L 260.265625 189.199219 L 240.378906 248.859375 L 221.832031 135.105469 Z M 201.457031 256.039062 " fill-opacity="1" fill-rule="nonzero"/></g><g clip-path="url(#eab8347254)"><path fill="#ebebeb" d="M 190.1875 203.683594 C 191.425781 203.617188 192.488281 202.402344 193.636719 200.34375 C 194.789062 198.289062 198.925781 197.050781 199.542969 196.894531 C 200.164062 196.742188 200.007812 197.027344 200.007812 197.25 C 200.007812 197.46875 199.71875 197.714844 199.300781 197.914062 C 198.878906 198.113281 198.59375 198.089844 198.0625 198.289062 C 197.53125 198.488281 197.550781 199.394531 197.816406 198.972656 C 198.082031 198.554688 199.121094 198.640625 200.03125 198.222656 C 200.9375 197.800781 201.246094 196.386719 201.335938 196.164062 C 201.421875 195.945312 201.667969 196.164062 202.375 196.164062 C 203.082031 196.164062 202.839844 195.789062 202.660156 195.613281 C 202.484375 195.4375 202.660156 195.324219 202.773438 195.171875 C 202.882812 195.015625 204.386719 194.59375 207.816406 194.109375 C 211.242188 193.621094 215.003906 194.066406 219.027344 194.507812 C 223.050781 194.949219 225.085938 194.882812 227.875 194.550781 C 230.660156 194.21875 234.574219 194.90625 235.921875 194.992188 C 237.273438 195.082031 239.019531 194.351562 239.640625 193.800781 C 240.257812 193.246094 240.613281 192.539062 242.070312 191.566406 C 243.53125 190.59375 245.457031 188.535156 245.457031 188.535156 C 245.457031 188.535156 245.542969 188.578125 245.921875 188.535156 C 246.296875 188.492188 246.296875 188.027344 247.046875 187.429688 C 247.800781 186.832031 250.054688 184.355469 252 182.121094 C 253.949219 179.886719 256.070312 176.152344 256.070312 176.152344 C 256.070312 176.152344 256.976562 177.101562 258.679688 178.382812 C 260.382812 179.667969 261.378906 179.976562 262.308594 180.730469 C 263.238281 181.480469 263.214844 181.148438 263.214844 181.148438 C 263.214844 181.148438 264.164062 181.4375 266.15625 182.277344 C 268.148438 183.117188 271.042969 185.351562 271.398438 185.660156 C 271.75 185.96875 271.398438 188.09375 271.175781 191.210938 C 270.957031 194.328125 271.863281 196.941406 272.902344 198.621094 C 273.941406 200.300781 275.996094 207.421875 276.660156 209.414062 C 277.324219 211.402344 277.746094 215.207031 277.699219 215.363281 C 277.65625 215.515625 277.523438 215.761719 277.457031 215.914062 C 277.390625 216.070312 277.214844 216.710938 277.082031 217.527344 C 276.949219 218.347656 276.949219 219.960938 277.414062 220.757812 C 277.878906 221.554688 277.101562 221.710938 277.148438 222.859375 C 277.191406 224.007812 281.148438 223.855469 281.613281 223.855469 C 282.078125 223.855469 285.285156 223.722656 288.425781 223.433594 C 291.566406 223.148438 294.15625 222.285156 296.765625 220.933594 C 299.375 219.585938 298.445312 218.503906 297.871094 217.925781 C 297.292969 217.351562 296.058594 217.484375 293.691406 217.464844 C 291.324219 217.441406 288.78125 215.714844 288.050781 215.261719 C 287.320312 214.804688 287.410156 214.699219 287.585938 214.523438 C 287.761719 214.34375 288.667969 215.363281 289.246094 215.25 C 289.820312 215.140625 288.980469 214.898438 288.140625 214.234375 C 287.296875 213.570312 287.164062 214.101562 286.503906 213.660156 C 285.839844 213.214844 286.238281 213.039062 285.863281 212.753906 C 285.484375 212.464844 285.265625 212.664062 285.109375 212.597656 C 284.953125 212.53125 284.46875 212.15625 284.46875 212.15625 C 284.46875 212.15625 283.648438 209.765625 282.65625 206.824219 C 281.660156 203.882812 281.792969 199.992188 281.785156 197.335938 C 281.777344 194.683594 280.730469 190.214844 280.621094 188.09375 C 280.507812 185.96875 280.554688 184.710938 280.996094 183.625 C 281.4375 182.542969 281.195312 181.058594 280.308594 179.910156 C 279.425781 178.761719 279.582031 177.5 277.964844 175.886719 C 276.351562 174.269531 275.511719 172.921875 275.421875 172.765625 C 275.335938 172.613281 275.003906 172.5 275.113281 172.28125 C 275.222656 172.058594 275.136719 172.035156 274.757812 171.707031 C 274.382812 171.375 273.101562 169.671875 271.683594 168.410156 C 270.269531 167.148438 267.882812 164.582031 267.859375 164.472656 C 267.835938 164.363281 266.378906 163.082031 266.15625 162.769531 C 265.933594 162.460938 264.476562 161.355469 264.121094 161.15625 C 263.765625 160.957031 263.945312 160.207031 264.011719 159.894531 C 264.078125 159.585938 264.519531 157.019531 264.808594 156.246094 C 265.09375 155.472656 265.425781 154.367188 265.582031 153.703125 C 265.734375 153.039062 266.398438 151.378906 267.0625 149.566406 C 267.726562 147.753906 267.285156 147.53125 267.285156 147.53125 C 267.285156 147.53125 268.875 147.265625 269.894531 146.890625 C 270.910156 146.515625 271.597656 145.71875 272.457031 145.34375 C 273.320312 144.96875 274.914062 144.546875 275.378906 144.191406 C 275.84375 143.839844 276.507812 143.617188 276.816406 143.617188 C 277.125 143.617188 278.03125 143.375 279.09375 142.867188 C 280.15625 142.359375 280.886719 141.207031 280.972656 141.054688 C 281.0625 140.898438 281.59375 140.742188 281.746094 140.234375 C 281.902344 139.726562 281.527344 139.328125 281.261719 139.285156 C 280.996094 139.238281 281.371094 138.773438 281.460938 138.574219 C 281.546875 138.375 281.59375 137.890625 281.328125 137.601562 C 281.0625 137.316406 280.707031 137.558594 280.707031 137.558594 C 280.707031 137.558594 280.796875 137.226562 280.707031 136.671875 C 280.621094 136.121094 280.332031 135.921875 280.109375 135.855469 C 279.890625 135.789062 279.78125 135.589844 279.847656 135.566406 C 279.914062 135.546875 279.824219 134.460938 279.25 134.308594 C 278.671875 134.152344 278.078125 134.773438 278.078125 134.773438 C 278.078125 134.773438 278.03125 134.128906 277.878906 133.644531 C 277.722656 133.15625 277.191406 133.136719 277.035156 133.6875 C 276.882812 134.242188 276.617188 134.351562 276.460938 134.550781 C 276.308594 134.75 276.085938 134.792969 275.820312 135.371094 C 275.554688 135.945312 275.070312 136.078125 274.9375 136.210938 C 274.804688 136.34375 274.339844 136.738281 274.207031 137.25 C 274.074219 137.757812 273.699219 138.640625 273.277344 139.261719 C 272.855469 139.878906 271.640625 139.859375 270.625 139.503906 C 269.605469 139.152344 268.941406 138.820312 268.941406 138.820312 C 268.941406 138.820312 269.097656 137.492188 269.648438 136.605469 C 270.203125 135.722656 270.535156 131.699219 270.511719 131.433594 C 270.492188 131.167969 270.535156 130.546875 271.066406 129.308594 C 271.597656 128.070312 271 125.683594 270.667969 124.644531 C 270.335938 123.601562 270.757812 123.691406 270.246094 121.921875 C 269.738281 120.152344 267.726562 119.269531 267.726562 119.269531 C 267.726562 119.269531 268.941406 118.957031 270.691406 119.089844 C 272.4375 119.226562 272.636719 118.03125 272.4375 117.5 C 272.238281 116.96875 272.394531 116.726562 272.8125 116.105469 C 273.234375 115.488281 272.4375 115.355469 272.105469 114.84375 C 271.773438 114.335938 272.480469 114.203125 273.054688 114.160156 C 273.632812 114.117188 273.675781 113.695312 273.71875 113.453125 C 273.765625 113.210938 273.984375 112.632812 274.074219 112.632812 C 274.160156 112.632812 274.648438 112.722656 275.136719 112.28125 C 275.621094 111.835938 274.890625 110.777344 274.25 109.914062 C 273.609375 109.050781 273.984375 108.984375 273.964844 108.496094 C 273.941406 108.011719 274.226562 107.371094 273.964844 107.0625 C 273.699219 106.75 273.519531 106.066406 273.519531 105.445312 C 273.519531 104.828125 273.253906 104.273438 273.34375 104.273438 C 273.433594 104.273438 273.875 103.742188 273.839844 103.257812 C 273.804688 102.769531 273.585938 101.886719 273.519531 101.644531 C 273.453125 101.398438 273.609375 101.242188 273.785156 101.046875 C 273.964844 100.84375 273.652344 99.851562 273.632812 100.226562 C 273.609375 100.601562 272.96875 100.003906 272.636719 99.695312 C 272.304688 99.386719 272.523438 99.453125 272.394531 98.964844 C 272.261719 98.480469 271.664062 98.4375 271.664062 98.4375 C 271.664062 98.4375 271.882812 98.523438 272.171875 99.097656 C 272.460938 99.675781 270.136719 98.4375 269.230469 97.839844 C 268.324219 97.242188 268.148438 97.152344 266.066406 96.886719 C 263.988281 96.621094 265.867188 96.777344 265.558594 96.488281 C 265.25 96.203125 265.007812 96.601562 263.546875 96.820312 C 262.085938 97.042969 263.65625 96.488281 263.347656 96.488281 C 263.039062 96.488281 262.21875 97.242188 262.175781 97 C 262.132812 96.753906 261.886719 96.929688 261.886719 96.929688 C 262.175781 97 261.554688 97.617188 260.914062 97.617188 C 260.273438 97.617188 260.117188 98.191406 260.117188 98.191406 C 260.207031 98.148438 262 97.550781 260.824219 98.191406 C 259.652344 98.832031 258.238281 100.800781 257.90625 103.367188 C 257.574219 105.933594 257.929688 108.785156 258.371094 110.6875 C 258.8125 112.589844 258.0625 114.492188 257.996094 114.933594 C 257.929688 115.375 257.53125 115.308594 255.738281 115.949219 C 253.949219 116.59375 254.035156 116.878906 253.636719 117.433594 C 253.242188 117.984375 252.886719 117.851562 252.089844 117.984375 C 251.292969 118.117188 249.371094 119.425781 249.371094 119.425781 C 248.464844 119.980469 247.003906 120.640625 244.679688 121.789062 C 242.359375 122.941406 239.816406 124.777344 237.804688 125.992188 C 235.792969 127.207031 234.882812 128.425781 233.734375 129.152344 C 232.585938 129.882812 233.644531 132.492188 234.550781 135.324219 C 235.460938 138.15625 237.671875 140.300781 239.085938 141.914062 C 240.5 143.53125 242.890625 146.804688 243.621094 147.421875 C 244.351562 148.042969 243.664062 149.191406 243.664062 150.320312 C 243.664062 151.445312 244.792969 152.375 244.835938 152.574219 C 244.878906 152.773438 245.167969 153.527344 245.210938 153.613281 C 245.257812 153.703125 245.390625 153.945312 245.167969 154.234375 C 244.945312 154.519531 244.128906 155.847656 243.621094 156.867188 C 243.113281 157.882812 242.933594 158.832031 242.933594 158.832031 C 241.296875 161.554688 242.582031 166.550781 242.714844 167.304688 C 242.847656 168.054688 242.316406 168.386719 242.117188 168.808594 C 241.917969 169.226562 240.28125 171.683594 238.886719 173.804688 C 237.492188 175.929688 235.527344 180.550781 235.328125 180.859375 C 235.128906 181.171875 235.261719 181.769531 235.261719 181.769531 C 235.261719 181.769531 234.640625 182.695312 234.109375 183.226562 C 233.578125 183.757812 232.871094 184.6875 232.40625 184.996094 C 231.941406 185.304688 231.125 184.929688 228.957031 184.246094 C 226.789062 183.558594 224.535156 183.824219 222.71875 183.757812 C 220.90625 183.691406 218.804688 184.953125 217.8125 185.371094 C 216.816406 185.792969 213.234375 186.5 210.886719 187.054688 C 208.542969 187.605469 205.25 188.117188 205.183594 188.117188 C 205.117188 188.117188 204.984375 187.628906 204.210938 187.054688 C 203.4375 186.480469 202.507812 185.75 201.378906 185.019531 C 200.25 184.289062 200.363281 183.582031 199.054688 183.074219 C 197.75 182.5625 196.558594 185.304688 196.160156 186.390625 C 195.761719 187.472656 193.816406 190.613281 192.554688 192.515625 C 191.292969 194.417969 189.746094 198.3125 189.125 200.035156 C 188.507812 201.761719 188.949219 203.75 190.1875 203.683594 Z M 243.464844 135.898438 C 243.175781 133.710938 242.714844 131.917969 242.78125 131.917969 C 242.847656 131.917969 246.429688 131.984375 247.046875 131.765625 C 247.046875 131.765625 246.78125 135.878906 247.046875 139.085938 C 247.3125 142.292969 247.953125 145.144531 247.953125 145.144531 C 247.953125 145.144531 247.070312 143.816406 245.875 141.960938 C 244.679688 140.101562 243.753906 138.089844 243.464844 135.898438 " fill-opacity="1" fill-rule="nonzero"/></g><g clip-path="url(#450e811108)"><path fill="#303030" d="M 119.003906 149.441406 L 124.027344 149.441406 L 124.027344 214.429688 L 119.003906 214.429688 Z M 119.003906 149.441406 " fill-opacity="1" fill-rule="nonzero"/></g><g fill="#ffcc00" fill-opacity="1"><g transform="translate(7.455523, 325.770228)"><g><path d="M 11.109375 0 C 10.222656 0 9.628906 -0.144531 9.328125 -0.4375 C 9.035156 -0.738281 8.890625 -1.332031 8.890625 -2.21875 L 8.890625 -41.46875 C 8.890625 -42.0625 8.789062 -42.457031 8.59375 -42.65625 C 8.394531 -42.851562 8 -42.953125 7.40625 -42.953125 L 2.96875 -42.953125 C 2.070312 -42.953125 1.472656 -43.097656 1.171875 -43.390625 C 0.878906 -43.679688 0.734375 -44.273438 0.734375 -45.171875 L 0.734375 -49.609375 C 0.734375 -50.492188 0.878906 -51.082031 1.171875 -51.375 C 1.472656 -51.675781 2.070312 -51.828125 2.96875 -51.828125 L 25.921875 -51.828125 C 26.804688 -51.828125 27.394531 -51.675781 27.6875 -51.375 C 27.988281 -51.082031 28.140625 -50.492188 28.140625 -49.609375 L 28.140625 -45.171875 C 28.140625 -44.273438 27.988281 -43.679688 27.6875 -43.390625 C 27.394531 -43.097656 26.804688 -42.953125 25.921875 -42.953125 L 21.46875 -42.953125 C 20.875 -42.953125 20.476562 -42.851562 20.28125 -42.65625 C 20.09375 -42.457031 20 -42.0625 20 -41.46875 L 20 -2.21875 C 20 -1.332031 19.847656 -0.738281 19.546875 -0.4375 C 19.253906 -0.144531 18.660156 0 17.765625 0 Z M 11.109375 0 "/></g></g></g><g fill="#ffcc00" fill-opacity="1"><g transform="translate(40.32628, 325.770228)"><g><path d="M 5.1875 0 C 4.289062 0 3.695312 -0.144531 3.40625 -0.4375 C 3.113281 -0.738281 2.96875 -1.332031 2.96875 -2.21875 L 2.96875 -49.609375 C 2.96875 -50.492188 3.113281 -51.082031 3.40625 -51.375 C 3.695312 -51.675781 4.289062 -51.828125 5.1875 -51.828125 L 24.4375 -51.828125 C 25.320312 -51.828125 25.910156 -51.675781 26.203125 -51.375 C 26.503906 -51.082031 26.65625 -50.492188 26.65625 -49.609375 L 26.65625 -45.171875 C 26.65625 -44.273438 26.503906 -43.679688 26.203125 -43.390625 C 25.910156 -43.097656 25.320312 -42.953125 24.4375 -42.953125 L 15.546875 -42.953125 C 14.953125 -42.953125 14.554688 -42.851562 14.359375 -42.65625 C 14.160156 -42.457031 14.0625 -42.0625 14.0625 -41.46875 L 14.0625 -32.578125 C 14.0625 -31.984375 14.160156 -31.585938 14.359375 -31.390625 C 14.554688 -31.191406 14.953125 -31.09375 15.546875 -31.09375 L 20.734375 -31.09375 C 21.617188 -31.09375 22.207031 -30.945312 22.5 -30.65625 C 22.800781 -30.363281 22.953125 -29.769531 22.953125 -28.875 L 22.953125 -24.4375 C 22.953125 -23.550781 22.800781 -22.957031 22.5 -22.65625 C 22.207031 -22.363281 21.617188 -22.21875 20.734375 -22.21875 L 15.546875 -22.21875 C 14.953125 -22.21875 14.554688 -22.117188 14.359375 -21.921875 C 14.160156 -21.722656 14.0625 -21.328125 14.0625 -20.734375 L 14.0625 -10.359375 C 14.0625 -9.773438 14.160156 -9.382812 14.359375 -9.1875 C 14.554688 -8.988281 14.953125 -8.890625 15.546875 -8.890625 L 24.4375 -8.890625 C 25.320312 -8.890625 25.910156 -8.738281 26.203125 -8.4375 C 26.503906 -8.144531 26.65625 -7.554688 26.65625 -6.671875 L 26.65625 -2.21875 C 26.65625 -1.332031 26.503906 -0.738281 26.203125 -0.4375 C 25.910156 -0.144531 25.320312 0 24.4375 0 Z M 5.1875 0 "/></g></g></g><g fill="#ffcc00" fill-opacity="1"><g transform="translate(72.456733, 325.770228)"><g><path d="M 5.1875 0 C 4.289062 0 3.695312 -0.144531 3.40625 -0.4375 C 3.113281 -0.738281 2.96875 -1.332031 2.96875 -2.21875 L 2.96875 -40.359375 C 2.96875 -42.128906 3.273438 -43.765625 3.890625 -45.265625 C 4.503906 -46.773438 5.363281 -48.070312 6.46875 -49.15625 C 7.582031 -50.25 8.941406 -51.09375 10.546875 -51.6875 C 12.148438 -52.28125 13.941406 -52.578125 15.921875 -52.578125 C 17.890625 -52.578125 19.675781 -52.28125 21.28125 -51.6875 C 22.882812 -51.09375 24.242188 -50.25 25.359375 -49.15625 C 26.472656 -48.070312 27.335938 -46.773438 27.953125 -45.265625 C 28.566406 -43.765625 28.875 -42.128906 28.875 -40.359375 L 28.875 -2.21875 C 28.875 -1.332031 28.722656 -0.738281 28.421875 -0.4375 C 28.128906 -0.144531 27.539062 0 26.65625 0 L 20 0 C 19.101562 0 18.503906 -0.144531 18.203125 -0.4375 C 17.910156 -0.738281 17.765625 -1.332031 17.765625 -2.21875 L 17.765625 -17.03125 C 17.765625 -17.625 17.664062 -18.019531 17.46875 -18.21875 C 17.269531 -18.414062 16.878906 -18.515625 16.296875 -18.515625 L 13.328125 -18.515625 C 12.734375 -18.515625 12.335938 -18.414062 12.140625 -18.21875 C 11.941406 -18.019531 11.84375 -17.625 11.84375 -17.03125 L 11.84375 -2.21875 C 11.84375 -1.332031 11.691406 -0.738281 11.390625 -0.4375 C 11.097656 -0.144531 10.507812 0 9.625 0 Z M 16.296875 -27.390625 C 16.878906 -27.390625 17.269531 -27.488281 17.46875 -27.6875 C 17.664062 -27.882812 17.765625 -28.28125 17.765625 -28.875 L 17.765625 -40.71875 C 17.765625 -41.5625 17.476562 -42.265625 16.90625 -42.828125 C 16.34375 -43.398438 15.644531 -43.6875 14.8125 -43.6875 C 13.96875 -43.6875 13.257812 -43.398438 12.6875 -42.828125 C 12.125 -42.265625 11.84375 -41.5625 11.84375 -40.71875 L 11.84375 -28.875 C 11.84375 -28.28125 11.941406 -27.882812 12.140625 -27.6875 C 12.335938 -27.488281 12.734375 -27.390625 13.328125 -27.390625 Z M 16.296875 -27.390625 "/></g></g></g><g fill="#ffcc00" fill-opacity="1"><g transform="translate(108.288698, 325.770228)"><g><path d="M 5.1875 0 C 4.289062 0 3.695312 -0.144531 3.40625 -0.4375 C 3.113281 -0.738281 2.96875 -1.332031 2.96875 -2.21875 L 2.96875 -49.609375 C 2.96875 -50.492188 3.113281 -51.082031 3.40625 -51.375 C 3.695312 -51.675781 4.289062 -51.828125 5.1875 -51.828125 L 13.46875 -51.828125 C 14.363281 -51.828125 15.019531 -51.691406 15.4375 -51.421875 C 15.851562 -51.148438 16.1875 -50.597656 16.4375 -49.765625 L 21.109375 -27.765625 L 21.84375 -27.765625 L 26.578125 -49.765625 C 26.828125 -50.597656 27.160156 -51.148438 27.578125 -51.421875 C 28.003906 -51.691406 28.660156 -51.828125 29.546875 -51.828125 L 37.765625 -51.828125 C 38.648438 -51.828125 39.238281 -51.675781 39.53125 -51.375 C 39.832031 -51.082031 39.984375 -50.492188 39.984375 -49.609375 L 39.984375 -2.21875 C 39.984375 -1.332031 39.832031 -0.738281 39.53125 -0.4375 C 39.238281 -0.144531 38.648438 0 37.765625 0 L 31.09375 0 C 30.207031 0 29.613281 -0.144531 29.3125 -0.4375 C 29.019531 -0.738281 28.875 -1.332031 28.875 -2.21875 L 28.875 -24.0625 L 28.140625 -24.0625 L 23.546875 -2.078125 C 23.296875 -1.234375 22.960938 -0.675781 22.546875 -0.40625 C 22.128906 -0.132812 21.472656 0 20.578125 0 L 20.140625 0 C 19.253906 0 18.597656 -0.132812 18.171875 -0.40625 C 17.753906 -0.675781 17.421875 -1.234375 17.171875 -2.078125 L 12.59375 -24.0625 L 11.84375 -24.0625 L 11.84375 -2.21875 C 11.84375 -1.332031 11.691406 -0.738281 11.390625 -0.4375 C 11.097656 -0.144531 10.507812 0 9.625 0 Z M 5.1875 0 "/></g></g></g><g fill="#ffcc00" fill-opacity="1"><g transform="translate(155.225241, 325.770228)"><g/></g></g><g fill="#ffcc00" fill-opacity="1"><g transform="translate(172.549634, 325.770228)"><g><path d="M 4.4375 0 C 3.550781 0 2.957031 -0.144531 2.65625 -0.4375 C 2.363281 -0.738281 2.21875 -1.332031 2.21875 -2.21875 L 2.21875 -6.671875 C 2.21875 -7.554688 2.363281 -8.144531 2.65625 -8.4375 C 2.957031 -8.738281 3.550781 -8.890625 4.4375 -8.890625 L 7.40625 -8.890625 C 8 -8.890625 8.394531 -8.988281 8.59375 -9.1875 C 8.789062 -9.382812 8.890625 -9.773438 8.890625 -10.359375 L 8.890625 -41.46875 C 8.890625 -42.0625 8.789062 -42.457031 8.59375 -42.65625 C 8.394531 -42.851562 8 -42.953125 7.40625 -42.953125 L 4.4375 -42.953125 C 3.550781 -42.953125 2.957031 -43.097656 2.65625 -43.390625 C 2.363281 -43.679688 2.21875 -44.273438 2.21875 -45.171875 L 2.21875 -49.609375 C 2.21875 -50.492188 2.363281 -51.082031 2.65625 -51.375 C 2.957031 -51.675781 3.550781 -51.828125 4.4375 -51.828125 L 17.765625 -51.828125 C 18.660156 -51.828125 19.253906 -51.675781 19.546875 -51.375 C 19.847656 -51.082031 20 -50.492188 20 -49.609375 L 20 -10.359375 C 20 -9.773438 20.09375 -9.382812 20.28125 -9.1875 C 20.476562 -8.988281 20.875 -8.890625 21.46875 -8.890625 L 24.4375 -8.890625 C 25.320312 -8.890625 25.910156 -8.738281 26.203125 -8.4375 C 26.503906 -8.144531 26.65625 -7.554688 26.65625 -6.671875 L 26.65625 -2.21875 C 26.65625 -1.332031 26.503906 -0.738281 26.203125 -0.4375 C 25.910156 -0.144531 25.320312 0 24.4375 0 Z M 4.4375 0 "/></g></g></g><g fill="#ffcc00" fill-opacity="1"><g transform="translate(203.939786, 325.770228)"><g/></g></g><g fill="#ffcc00" fill-opacity="1"><g transform="translate(221.264168, 325.770228)"><g><path d="M 5.1875 0 C 4.289062 0 3.695312 -0.144531 3.40625 -0.4375 C 3.113281 -0.738281 2.96875 -1.332031 2.96875 -2.21875 L 2.96875 -49.609375 C 2.96875 -50.492188 3.113281 -51.082031 3.40625 -51.375 C 3.695312 -51.675781 4.289062 -51.828125 5.1875 -51.828125 L 24.4375 -51.828125 C 25.320312 -51.828125 25.910156 -51.675781 26.203125 -51.375 C 26.503906 -51.082031 26.65625 -50.492188 26.65625 -49.609375 L 26.65625 -45.171875 C 26.65625 -44.273438 26.503906 -43.679688 26.203125 -43.390625 C 25.910156 -43.097656 25.320312 -42.953125 24.4375 -42.953125 L 15.546875 -42.953125 C 14.953125 -42.953125 14.554688 -42.851562 14.359375 -42.65625 C 14.160156 -42.457031 14.0625 -42.0625 14.0625 -41.46875 L 14.0625 -31.09375 C 14.0625 -30.507812 14.160156 -30.117188 14.359375 -29.921875 C 14.554688 -29.722656 14.953125 -29.625 15.546875 -29.625 L 20.734375 -29.625 C 21.617188 -29.625 22.207031 -29.472656 22.5 -29.171875 C 22.800781 -28.878906 22.953125 -28.285156 22.953125 -27.390625 L 22.953125 -22.953125 C 22.953125 -22.066406 22.800781 -21.472656 22.5 -21.171875 C 22.207031 -20.878906 21.617188 -20.734375 20.734375 -20.734375 L 15.546875 -20.734375 C 14.953125 -20.734375 14.554688 -20.632812 14.359375 -20.4375 C 14.160156 -20.238281 14.0625 -19.84375 14.0625 -19.25 L 14.0625 -2.21875 C 14.0625 -1.332031 13.914062 -0.738281 13.625 -0.4375 C 13.332031 -0.144531 12.738281 0 11.84375 0 Z M 5.1875 0 "/></g></g></g><g fill="#ffcc00" fill-opacity="1"><g transform="translate(252.65432, 325.770228)"><g><path d="M 3.703125 0 C 2.816406 0 2.222656 -0.144531 1.921875 -0.4375 C 1.628906 -0.738281 1.484375 -1.332031 1.484375 -2.21875 L 1.484375 -6.671875 C 1.484375 -7.554688 1.628906 -8.144531 1.921875 -8.4375 C 2.222656 -8.738281 2.816406 -8.890625 3.703125 -8.890625 L 5.921875 -8.890625 C 6.515625 -8.890625 6.910156 -8.988281 7.109375 -9.1875 C 7.304688 -9.382812 7.40625 -9.773438 7.40625 -10.359375 L 7.40625 -41.46875 C 7.40625 -42.0625 7.304688 -42.457031 7.109375 -42.65625 C 6.910156 -42.851562 6.515625 -42.953125 5.921875 -42.953125 L 3.703125 -42.953125 C 2.816406 -42.953125 2.222656 -43.097656 1.921875 -43.390625 C 1.628906 -43.679688 1.484375 -44.273438 1.484375 -45.171875 L 1.484375 -49.609375 C 1.484375 -50.492188 1.628906 -51.082031 1.921875 -51.375 C 2.222656 -51.675781 2.816406 -51.828125 3.703125 -51.828125 L 22.21875 -51.828125 C 23.101562 -51.828125 23.691406 -51.675781 23.984375 -51.375 C 24.285156 -51.082031 24.4375 -50.492188 24.4375 -49.609375 L 24.4375 -45.171875 C 24.4375 -44.273438 24.285156 -43.679688 23.984375 -43.390625 C 23.691406 -43.097656 23.101562 -42.953125 22.21875 -42.953125 L 20 -42.953125 C 19.40625 -42.953125 19.007812 -42.851562 18.8125 -42.65625 C 18.613281 -42.457031 18.515625 -42.0625 18.515625 -41.46875 L 18.515625 -10.359375 C 18.515625 -9.773438 18.613281 -9.382812 18.8125 -9.1875 C 19.007812 -8.988281 19.40625 -8.890625 20 -8.890625 L 22.21875 -8.890625 C 23.101562 -8.890625 23.691406 -8.738281 23.984375 -8.4375 C 24.285156 -8.144531 24.4375 -7.554688 24.4375 -6.671875 L 24.4375 -2.21875 C 24.4375 -1.332031 24.285156 -0.738281 23.984375 -0.4375 C 23.691406 -0.144531 23.101562 0 22.21875 0 Z M 3.703125 0 "/></g></g></g><g fill="#ffcc00" fill-opacity="1"><g transform="translate(282.563866, 325.770228)"><g><path d="M 11.109375 0 C 10.222656 0 9.628906 -0.144531 9.328125 -0.4375 C 9.035156 -0.738281 8.890625 -1.332031 8.890625 -2.21875 L 8.890625 -41.46875 C 8.890625 -42.0625 8.789062 -42.457031 8.59375 -42.65625 C 8.394531 -42.851562 8 -42.953125 7.40625 -42.953125 L 2.96875 -42.953125 C 2.070312 -42.953125 1.472656 -43.097656 1.171875 -43.390625 C 0.878906 -43.679688 0.734375 -44.273438 0.734375 -45.171875 L 0.734375 -49.609375 C 0.734375 -50.492188 0.878906 -51.082031 1.171875 -51.375 C 1.472656 -51.675781 2.070312 -51.828125 2.96875 -51.828125 L 25.921875 -51.828125 C 26.804688 -51.828125 27.394531 -51.675781 27.6875 -51.375 C 27.988281 -51.082031 28.140625 -50.492188 28.140625 -49.609375 L 28.140625 -45.171875 C 28.140625 -44.273438 27.988281 -43.679688 27.6875 -43.390625 C 27.394531 -43.097656 26.804688 -42.953125 25.921875 -42.953125 L 21.46875 -42.953125 C 20.875 -42.953125 20.476562 -42.851562 20.28125 -42.65625 C 20.09375 -42.457031 20 -42.0625 20 -41.46875 L 20 -2.21875 C 20 -1.332031 19.847656 -0.738281 19.546875 -0.4375 C 19.253906 -0.144531 18.660156 0 17.765625 0 Z M 11.109375 0 "/></g></g></g><g fill="#ffcc00" fill-opacity="1"><g transform="translate(315.434626, 325.770228)"><g><path d="M 5.1875 0 C 4.289062 0 3.695312 -0.144531 3.40625 -0.4375 C 3.113281 -0.738281 2.96875 -1.332031 2.96875 -2.21875 L 2.96875 -49.609375 C 2.96875 -50.492188 3.113281 -51.082031 3.40625 -51.375 C 3.695312 -51.675781 4.289062 -51.828125 5.1875 -51.828125 L 10.359375 -51.828125 C 11.253906 -51.828125 11.898438 -51.675781 12.296875 -51.375 C 12.691406 -51.082031 13.007812 -50.519531 13.25 -49.6875 L 19.25 -30.359375 L 20 -30.359375 L 20 -49.609375 C 20 -50.492188 20.144531 -51.082031 20.4375 -51.375 C 20.726562 -51.675781 21.320312 -51.828125 22.21875 -51.828125 L 26.65625 -51.828125 C 27.539062 -51.828125 28.128906 -51.675781 28.421875 -51.375 C 28.722656 -51.082031 28.875 -50.492188 28.875 -49.609375 L 28.875 -2.21875 C 28.875 -1.332031 28.722656 -0.738281 28.421875 -0.4375 C 28.128906 -0.144531 27.539062 0 26.65625 0 L 21.46875 0 C 20.582031 0 19.941406 -0.144531 19.546875 -0.4375 C 19.148438 -0.738281 18.828125 -1.304688 18.578125 -2.140625 L 12.59375 -21.46875 L 11.84375 -21.46875 L 11.84375 -2.21875 C 11.84375 -1.332031 11.691406 -0.738281 11.390625 -0.4375 C 11.097656 -0.144531 10.507812 0 9.625 0 Z M 5.1875 0 "/></g></g></g><g fill="#ffcc00" fill-opacity="1"><g transform="translate(351.266597, 325.770228)"><g><path d="M 5.1875 0 C 4.289062 0 3.695312 -0.144531 3.40625 -0.4375 C 3.113281 -0.738281 2.96875 -1.332031 2.96875 -2.21875 L 2.96875 -49.609375 C 2.96875 -50.492188 3.113281 -51.082031 3.40625 -51.375 C 3.695312 -51.675781 4.289062 -51.828125 5.1875 -51.828125 L 24.4375 -51.828125 C 25.320312 -51.828125 25.910156 -51.675781 26.203125 -51.375 C 26.503906 -51.082031 26.65625 -50.492188 26.65625 -49.609375 L 26.65625 -45.171875 C 26.65625 -44.273438 26.503906 -43.679688 26.203125 -43.390625 C 25.910156 -43.097656 25.320312 -42.953125 24.4375 -42.953125 L 15.546875 -42.953125 C 14.953125 -42.953125 14.554688 -42.851562 14.359375 -42.65625 C 14.160156 -42.457031 14.0625 -42.0625 14.0625 -41.46875 L 14.0625 -32.578125 C 14.0625 -31.984375 14.160156 -31.585938 14.359375 -31.390625 C 14.554688 -31.191406 14.953125 -31.09375 15.546875 -31.09375 L 20.734375 -31.09375 C 21.617188 -31.09375 22.207031 -30.945312 22.5 -30.65625 C 22.800781 -30.363281 22.953125 -29.769531 22.953125 -28.875 L 22.953125 -24.4375 C 22.953125 -23.550781 22.800781 -22.957031 22.5 -22.65625 C 22.207031 -22.363281 21.617188 -22.21875 20.734375 -22.21875 L 15.546875 -22.21875 C 14.953125 -22.21875 14.554688 -22.117188 14.359375 -21.921875 C 14.160156 -21.722656 14.0625 -21.328125 14.0625 -20.734375 L 14.0625 -10.359375 C 14.0625 -9.773438 14.160156 -9.382812 14.359375 -9.1875 C 14.554688 -8.988281 14.953125 -8.890625 15.546875 -8.890625 L 24.4375 -8.890625 C 25.320312 -8.890625 25.910156 -8.738281 26.203125 -8.4375 C 26.503906 -8.144531 26.65625 -7.554688 26.65625 -6.671875 L 26.65625 -2.21875 C 26.65625 -1.332031 26.503906 -0.738281 26.203125 -0.4375 C 25.910156 -0.144531 25.320312 0 24.4375 0 Z M 5.1875 0 "/></g></g></g><g fill="#ffcc00" fill-opacity="1"><g transform="translate(383.397054, 325.770228)"><g><path d="M 14.8125 0.734375 C 10.613281 0.734375 7.34375 -0.410156 5 -2.703125 C 2.65625 -4.992188 1.484375 -8.039062 1.484375 -11.84375 L 1.484375 -14.0625 C 1.484375 -14.957031 1.628906 -15.550781 1.921875 -15.84375 C 2.222656 -16.144531 2.816406 -16.296875 3.703125 -16.296875 L 8.140625 -16.296875 C 9.035156 -16.296875 9.628906 -16.144531 9.921875 -15.84375 C 10.210938 -15.550781 10.359375 -14.957031 10.359375 -14.0625 L 10.359375 -11.484375 C 10.359375 -10.492188 10.664062 -9.6875 11.28125 -9.0625 C 11.90625 -8.445312 12.710938 -8.140625 13.703125 -8.140625 C 14.679688 -8.140625 15.476562 -8.445312 16.09375 -9.0625 C 16.71875 -9.6875 17.03125 -10.492188 17.03125 -11.484375 C 17.03125 -13.304688 16.660156 -14.929688 15.921875 -16.359375 C 15.179688 -17.796875 14.265625 -19.15625 13.171875 -20.4375 C 12.085938 -21.71875 10.90625 -22.988281 9.625 -24.25 C 8.34375 -25.507812 7.15625 -26.90625 6.0625 -28.4375 C 4.976562 -29.96875 4.066406 -31.679688 3.328125 -33.578125 C 2.585938 -35.484375 2.21875 -37.742188 2.21875 -40.359375 C 2.21875 -42.128906 2.523438 -43.765625 3.140625 -45.265625 C 3.765625 -46.773438 4.628906 -48.070312 5.734375 -49.15625 C 6.847656 -50.25 8.207031 -51.09375 9.8125 -51.6875 C 11.414062 -52.28125 13.203125 -52.578125 15.171875 -52.578125 C 17.148438 -52.578125 18.925781 -52.28125 20.5 -51.6875 C 22.082031 -51.09375 23.441406 -50.25 24.578125 -49.15625 C 25.710938 -48.070312 26.585938 -46.773438 27.203125 -45.265625 C 27.828125 -43.765625 28.140625 -42.128906 28.140625 -40.359375 L 28.140625 -38.5 C 28.140625 -37.613281 27.988281 -37.019531 27.6875 -36.71875 C 27.394531 -36.425781 26.804688 -36.28125 25.921875 -36.28125 L 21.46875 -36.28125 C 20.582031 -36.28125 19.988281 -36.425781 19.6875 -36.71875 C 19.394531 -37.019531 19.25 -37.613281 19.25 -38.5 L 19.25 -40.71875 C 19.25 -41.5625 18.960938 -42.265625 18.390625 -42.828125 C 17.828125 -43.398438 17.128906 -43.6875 16.296875 -43.6875 C 15.453125 -43.6875 14.742188 -43.398438 14.171875 -42.828125 C 13.609375 -42.265625 13.328125 -41.5625 13.328125 -40.71875 C 13.328125 -38.84375 13.695312 -37.203125 14.4375 -35.796875 C 15.175781 -34.390625 16.085938 -33.046875 17.171875 -31.765625 C 18.265625 -30.484375 19.453125 -29.210938 20.734375 -27.953125 C 22.015625 -26.691406 23.195312 -25.296875 24.28125 -23.765625 C 25.375 -22.234375 26.289062 -20.503906 27.03125 -18.578125 C 27.769531 -16.660156 28.140625 -14.414062 28.140625 -11.84375 C 28.140625 -8.039062 26.96875 -4.992188 24.625 -2.703125 C 22.28125 -0.410156 19.007812 0.734375 14.8125 0.734375 Z M 14.8125 0.734375 "/></g></g></g><g fill="#ffcc00" fill-opacity="1"><g transform="translate(417.008116, 325.770228)"><g><path d="M 14.8125 0.734375 C 10.613281 0.734375 7.34375 -0.410156 5 -2.703125 C 2.65625 -4.992188 1.484375 -8.039062 1.484375 -11.84375 L 1.484375 -14.0625 C 1.484375 -14.957031 1.628906 -15.550781 1.921875 -15.84375 C 2.222656 -16.144531 2.816406 -16.296875 3.703125 -16.296875 L 8.140625 -16.296875 C 9.035156 -16.296875 9.628906 -16.144531 9.921875 -15.84375 C 10.210938 -15.550781 10.359375 -14.957031 10.359375 -14.0625 L 10.359375 -11.484375 C 10.359375 -10.492188 10.664062 -9.6875 11.28125 -9.0625 C 11.90625 -8.445312 12.710938 -8.140625 13.703125 -8.140625 C 14.679688 -8.140625 15.476562 -8.445312 16.09375 -9.0625 C 16.71875 -9.6875 17.03125 -10.492188 17.03125 -11.484375 C 17.03125 -13.304688 16.660156 -14.929688 15.921875 -16.359375 C 15.179688 -17.796875 14.265625 -19.15625 13.171875 -20.4375 C 12.085938 -21.71875 10.90625 -22.988281 9.625 -24.25 C 8.34375 -25.507812 7.15625 -26.90625 6.0625 -28.4375 C 4.976562 -29.96875 4.066406 -31.679688 3.328125 -33.578125 C 2.585938 -35.484375 2.21875 -37.742188 2.21875 -40.359375 C 2.21875 -42.128906 2.523438 -43.765625 3.140625 -45.265625 C 3.765625 -46.773438 4.628906 -48.070312 5.734375 -49.15625 C 6.847656 -50.25 8.207031 -51.09375 9.8125 -51.6875 C 11.414062 -52.28125 13.203125 -52.578125 15.171875 -52.578125 C 17.148438 -52.578125 18.925781 -52.28125 20.5 -51.6875 C 22.082031 -51.09375 23.441406 -50.25 24.578125 -49.15625 C 25.710938 -48.070312 26.585938 -46.773438 27.203125 -45.265625 C 27.828125 -43.765625 28.140625 -42.128906 28.140625 -40.359375 L 28.140625 -38.5 C 28.140625 -37.613281 27.988281 -37.019531 27.6875 -36.71875 C 27.394531 -36.425781 26.804688 -36.28125 25.921875 -36.28125 L 21.46875 -36.28125 C 20.582031 -36.28125 19.988281 -36.425781 19.6875 -36.71875 C 19.394531 -37.019531 19.25 -37.613281 19.25 -38.5 L 19.25 -40.71875 C 19.25 -41.5625 18.960938 -42.265625 18.390625 -42.828125 C 17.828125 -43.398438 17.128906 -43.6875 16.296875 -43.6875 C 15.453125 -43.6875 14.742188 -43.398438 14.171875 -42.828125 C 13.609375 -42.265625 13.328125 -41.5625 13.328125 -40.71875 C 13.328125 -38.84375 13.695312 -37.203125 14.4375 -35.796875 C 15.175781 -34.390625 16.085938 -33.046875 17.171875 -31.765625 C 18.265625 -30.484375 19.453125 -29.210938 20.734375 -27.953125 C 22.015625 -26.691406 23.195312 -25.296875 24.28125 -23.765625 C 25.375 -22.234375 26.289062 -20.503906 27.03125 -18.578125 C 27.769531 -16.660156 28.140625 -14.414062 28.140625 -11.84375 C 28.140625 -8.039062 26.96875 -4.992188 24.625 -2.703125 C 22.28125 -0.410156 19.007812 0.734375 14.8125 0.734375 Z M 14.8125 0.734375 "/></g></g></g><g fill="#ffcc00" fill-opacity="1"><g transform="translate(126.709327, 429.137988)"><g><path d="M 15.921875 0.734375 C 13.941406 0.734375 12.148438 0.441406 10.546875 -0.140625 C 8.941406 -0.734375 7.582031 -1.570312 6.46875 -2.65625 C 5.363281 -3.75 4.503906 -5.046875 3.890625 -6.546875 C 3.273438 -8.054688 2.96875 -9.703125 2.96875 -11.484375 L 2.96875 -40.359375 C 2.96875 -42.128906 3.273438 -43.765625 3.890625 -45.265625 C 4.503906 -46.773438 5.363281 -48.070312 6.46875 -49.15625 C 7.582031 -50.25 8.941406 -51.09375 10.546875 -51.6875 C 12.148438 -52.28125 13.941406 -52.578125 15.921875 -52.578125 C 17.890625 -52.578125 19.675781 -52.28125 21.28125 -51.6875 C 22.882812 -51.09375 24.242188 -50.25 25.359375 -49.15625 C 26.472656 -48.070312 27.335938 -46.773438 27.953125 -45.265625 C 28.566406 -43.765625 28.875 -42.128906 28.875 -40.359375 L 28.875 -36.28125 C 28.875 -35.394531 28.722656 -34.800781 28.421875 -34.5 C 28.128906 -34.207031 27.539062 -34.0625 26.65625 -34.0625 L 22.21875 -34.0625 C 21.320312 -34.0625 20.726562 -34.207031 20.4375 -34.5 C 20.144531 -34.800781 20 -35.394531 20 -36.28125 L 20 -40.71875 C 20 -41.5625 19.710938 -42.265625 19.140625 -42.828125 C 18.578125 -43.398438 17.875 -43.6875 17.03125 -43.6875 C 16.1875 -43.6875 15.476562 -43.398438 14.90625 -42.828125 C 14.34375 -42.265625 14.0625 -41.5625 14.0625 -40.71875 L 14.0625 -11.109375 C 14.0625 -10.265625 14.34375 -9.554688 14.90625 -8.984375 C 15.476562 -8.421875 16.1875 -8.140625 17.03125 -8.140625 C 17.875 -8.140625 18.578125 -8.421875 19.140625 -8.984375 C 19.710938 -9.554688 20 -10.265625 20 -11.109375 L 20 -15.546875 C 20 -16.429688 20.144531 -17.019531 20.4375 -17.3125 C 20.726562 -17.613281 21.320312 -17.765625 22.21875 -17.765625 L 26.65625 -17.765625 C 27.539062 -17.765625 28.128906 -17.613281 28.421875 -17.3125 C 28.722656 -17.019531 28.875 -16.429688 28.875 -15.546875 L 28.875 -11.484375 C 28.875 -9.703125 28.566406 -8.054688 27.953125 -6.546875 C 27.335938 -5.046875 26.472656 -3.75 25.359375 -2.65625 C 24.242188 -1.570312 22.882812 -0.734375 21.28125 -0.140625 C 19.675781 0.441406 17.890625 0.734375 15.921875 0.734375 Z M 15.921875 0.734375 "/></g></g></g><g fill="#ffcc00" fill-opacity="1"><g transform="translate(161.800992, 429.137988)"><g><path d="M 5.1875 0 C 4.289062 0 3.695312 -0.144531 3.40625 -0.4375 C 3.113281 -0.738281 2.96875 -1.332031 2.96875 -2.21875 L 2.96875 -49.609375 C 2.96875 -50.492188 3.113281 -51.082031 3.40625 -51.375 C 3.695312 -51.675781 4.289062 -51.828125 5.1875 -51.828125 L 24.4375 -51.828125 C 25.320312 -51.828125 25.910156 -51.675781 26.203125 -51.375 C 26.503906 -51.082031 26.65625 -50.492188 26.65625 -49.609375 L 26.65625 -45.171875 C 26.65625 -44.273438 26.503906 -43.679688 26.203125 -43.390625 C 25.910156 -43.097656 25.320312 -42.953125 24.4375 -42.953125 L 15.546875 -42.953125 C 14.953125 -42.953125 14.554688 -42.851562 14.359375 -42.65625 C 14.160156 -42.457031 14.0625 -42.0625 14.0625 -41.46875 L 14.0625 -32.578125 C 14.0625 -31.984375 14.160156 -31.585938 14.359375 -31.390625 C 14.554688 -31.191406 14.953125 -31.09375 15.546875 -31.09375 L 20.734375 -31.09375 C 21.617188 -31.09375 22.207031 -30.945312 22.5 -30.65625 C 22.800781 -30.363281 22.953125 -29.769531 22.953125 -28.875 L 22.953125 -24.4375 C 22.953125 -23.550781 22.800781 -22.957031 22.5 -22.65625 C 22.207031 -22.363281 21.617188 -22.21875 20.734375 -22.21875 L 15.546875 -22.21875 C 14.953125 -22.21875 14.554688 -22.117188 14.359375 -21.921875 C 14.160156 -21.722656 14.0625 -21.328125 14.0625 -20.734375 L 14.0625 -10.359375 C 14.0625 -9.773438 14.160156 -9.382812 14.359375 -9.1875 C 14.554688 -8.988281 14.953125 -8.890625 15.546875 -8.890625 L 24.4375 -8.890625 C 25.320312 -8.890625 25.910156 -8.738281 26.203125 -8.4375 C 26.503906 -8.144531 26.65625 -7.554688 26.65625 -6.671875 L 26.65625 -2.21875 C 26.65625 -1.332031 26.503906 -0.738281 26.203125 -0.4375 C 25.910156 -0.144531 25.320312 0 24.4375 0 Z M 5.1875 0 "/></g></g></g><g fill="#ffcc00" fill-opacity="1"><g transform="translate(193.931446, 429.137988)"><g><path d="M 5.1875 0 C 4.289062 0 3.695312 -0.144531 3.40625 -0.4375 C 3.113281 -0.738281 2.96875 -1.332031 2.96875 -2.21875 L 2.96875 -49.609375 C 2.96875 -50.492188 3.113281 -51.082031 3.40625 -51.375 C 3.695312 -51.675781 4.289062 -51.828125 5.1875 -51.828125 L 10.359375 -51.828125 C 11.253906 -51.828125 11.898438 -51.675781 12.296875 -51.375 C 12.691406 -51.082031 13.007812 -50.519531 13.25 -49.6875 L 19.25 -30.359375 L 20 -30.359375 L 20 -49.609375 C 20 -50.492188 20.144531 -51.082031 20.4375 -51.375 C 20.726562 -51.675781 21.320312 -51.828125 22.21875 -51.828125 L 26.65625 -51.828125 C 27.539062 -51.828125 28.128906 -51.675781 28.421875 -51.375 C 28.722656 -51.082031 28.875 -50.492188 28.875 -49.609375 L 28.875 -2.21875 C 28.875 -1.332031 28.722656 -0.738281 28.421875 -0.4375 C 28.128906 -0.144531 27.539062 0 26.65625 0 L 21.46875 0 C 20.582031 0 19.941406 -0.144531 19.546875 -0.4375 C 19.148438 -0.738281 18.828125 -1.304688 18.578125 -2.140625 L 12.59375 -21.46875 L 11.84375 -21.46875 L 11.84375 -2.21875 C 11.84375 -1.332031 11.691406 -0.738281 11.390625 -0.4375 C 11.097656 -0.144531 10.507812 0 9.625 0 Z M 5.1875 0 "/></g></g></g><g fill="#ffcc00" fill-opacity="1"><g transform="translate(229.763411, 429.137988)"><g><path d="M 11.109375 0 C 10.222656 0 9.628906 -0.144531 9.328125 -0.4375 C 9.035156 -0.738281 8.890625 -1.332031 8.890625 -2.21875 L 8.890625 -41.46875 C 8.890625 -42.0625 8.789062 -42.457031 8.59375 -42.65625 C 8.394531 -42.851562 8 -42.953125 7.40625 -42.953125 L 2.96875 -42.953125 C 2.070312 -42.953125 1.472656 -43.097656 1.171875 -43.390625 C 0.878906 -43.679688 0.734375 -44.273438 0.734375 -45.171875 L 0.734375 -49.609375 C 0.734375 -50.492188 0.878906 -51.082031 1.171875 -51.375 C 1.472656 -51.675781 2.070312 -51.828125 2.96875 -51.828125 L 25.921875 -51.828125 C 26.804688 -51.828125 27.394531 -51.675781 27.6875 -51.375 C 27.988281 -51.082031 28.140625 -50.492188 28.140625 -49.609375 L 28.140625 -45.171875 C 28.140625 -44.273438 27.988281 -43.679688 27.6875 -43.390625 C 27.394531 -43.097656 26.804688 -42.953125 25.921875 -42.953125 L 21.46875 -42.953125 C 20.875 -42.953125 20.476562 -42.851562 20.28125 -42.65625 C 20.09375 -42.457031 20 -42.0625 20 -41.46875 L 20 -2.21875 C 20 -1.332031 19.847656 -0.738281 19.546875 -0.4375 C 19.253906 -0.144531 18.660156 0 17.765625 0 Z M 11.109375 0 "/></g></g></g><g fill="#ffcc00" fill-opacity="1"><g transform="translate(262.63417, 429.137988)"><g><path d="M 5.1875 0 C 4.289062 0 3.695312 -0.144531 3.40625 -0.4375 C 3.113281 -0.738281 2.96875 -1.332031 2.96875 -2.21875 L 2.96875 -49.609375 C 2.96875 -50.492188 3.113281 -51.082031 3.40625 -51.375 C 3.695312 -51.675781 4.289062 -51.828125 5.1875 -51.828125 L 24.4375 -51.828125 C 25.320312 -51.828125 25.910156 -51.675781 26.203125 -51.375 C 26.503906 -51.082031 26.65625 -50.492188 26.65625 -49.609375 L 26.65625 -45.171875 C 26.65625 -44.273438 26.503906 -43.679688 26.203125 -43.390625 C 25.910156 -43.097656 25.320312 -42.953125 24.4375 -42.953125 L 15.546875 -42.953125 C 14.953125 -42.953125 14.554688 -42.851562 14.359375 -42.65625 C 14.160156 -42.457031 14.0625 -42.0625 14.0625 -41.46875 L 14.0625 -32.578125 C 14.0625 -31.984375 14.160156 -31.585938 14.359375 -31.390625 C 14.554688 -31.191406 14.953125 -31.09375 15.546875 -31.09375 L 20.734375 -31.09375 C 21.617188 -31.09375 22.207031 -30.945312 22.5 -30.65625 C 22.800781 -30.363281 22.953125 -29.769531 22.953125 -28.875 L 22.953125 -24.4375 C 22.953125 -23.550781 22.800781 -22.957031 22.5 -22.65625 C 22.207031 -22.363281 21.617188 -22.21875 20.734375 -22.21875 L 15.546875 -22.21875 C 14.953125 -22.21875 14.554688 -22.117188 14.359375 -21.921875 C 14.160156 -21.722656 14.0625 -21.328125 14.0625 -20.734375 L 14.0625 -10.359375 C 14.0625 -9.773438 14.160156 -9.382812 14.359375 -9.1875 C 14.554688 -8.988281 14.953125 -8.890625 15.546875 -8.890625 L 24.4375 -8.890625 C 25.320312 -8.890625 25.910156 -8.738281 26.203125 -8.4375 C 26.503906 -8.144531 26.65625 -7.554688 26.65625 -6.671875 L 26.65625 -2.21875 C 26.65625 -1.332031 26.503906 -0.738281 26.203125 -0.4375 C 25.910156 -0.144531 25.320312 0 24.4375 0 Z M 5.1875 0 "/></g></g></g><g fill="#ffcc00" fill-opacity="1"><g transform="translate(294.764627, 429.137988)"><g><path d="M 26.65625 0.375 C 23.445312 0.375 21.160156 -0.300781 19.796875 -1.65625 C 18.441406 -3.019531 17.765625 -5.304688 17.765625 -8.515625 L 17.765625 -17.765625 C 17.765625 -18.503906 17.640625 -19.117188 17.390625 -19.609375 C 17.148438 -20.109375 16.660156 -20.359375 15.921875 -20.359375 L 15.171875 -20.359375 C 14.734375 -20.359375 14.4375 -20.285156 14.28125 -20.140625 C 14.132812 -19.992188 14.0625 -19.695312 14.0625 -19.25 L 14.0625 -2.21875 C 14.0625 -1.332031 13.914062 -0.738281 13.625 -0.4375 C 13.332031 -0.144531 12.738281 0 11.84375 0 L 5.1875 0 C 4.289062 0 3.695312 -0.144531 3.40625 -0.4375 C 3.113281 -0.738281 2.96875 -1.332031 2.96875 -2.21875 L 2.96875 -49.609375 C 2.96875 -50.492188 3.113281 -51.082031 3.40625 -51.375 C 3.695312 -51.675781 4.289062 -51.828125 5.1875 -51.828125 L 15.921875 -51.828125 C 20.210938 -51.828125 23.566406 -50.640625 25.984375 -48.265625 C 28.410156 -45.898438 29.625 -42.769531 29.625 -38.875 L 29.625 -33.328125 C 29.625 -31.597656 29.347656 -30.210938 28.796875 -29.171875 C 28.253906 -28.140625 27.664062 -27.328125 27.03125 -26.734375 C 26.238281 -26.035156 25.375 -25.515625 24.4375 -25.171875 L 24.4375 -24.4375 C 25.269531 -24.09375 26.007812 -23.570312 26.65625 -22.875 C 27.195312 -22.28125 27.703125 -21.453125 28.171875 -20.390625 C 28.640625 -19.335938 28.875 -17.972656 28.875 -16.296875 L 28.875 -10.359375 C 28.875 -9.523438 29.019531 -9.019531 29.3125 -8.84375 C 29.613281 -8.675781 29.945312 -8.554688 30.3125 -8.484375 C 30.6875 -8.410156 31.035156 -8.285156 31.359375 -8.109375 C 31.679688 -7.929688 31.84375 -7.453125 31.84375 -6.671875 L 31.84375 -1.484375 C 31.84375 -0.742188 31.71875 -0.25 31.46875 0 C 31.21875 0.25 30.722656 0.375 29.984375 0.375 Z M 15.921875 -29.25 C 16.660156 -29.25 17.273438 -29.492188 17.765625 -29.984375 C 18.265625 -30.484375 18.515625 -31.101562 18.515625 -31.84375 L 18.515625 -40.359375 C 18.515625 -41.097656 18.265625 -41.710938 17.765625 -42.203125 C 17.273438 -42.703125 16.660156 -42.953125 15.921875 -42.953125 L 15.171875 -42.953125 C 14.734375 -42.953125 14.4375 -42.875 14.28125 -42.71875 C 14.132812 -42.570312 14.0625 -42.28125 14.0625 -41.84375 L 14.0625 -30.359375 C 14.0625 -29.910156 14.132812 -29.613281 14.28125 -29.46875 C 14.4375 -29.320312 14.734375 -29.25 15.171875 -29.25 Z M 15.921875 -29.25 "/></g></g></g><g clip-path="url(#504946ff7f)"><path fill="#ebebeb" d="M 350.820312 214.417969 L 310.503906 214.417969 L 310.503906 149.378906 L 350.820312 149.378906 Z M 350.820312 214.417969 " fill-opacity="1" fill-rule="nonzero"/></g><g clip-path="url(#18550001f5)"><path fill="#ebebeb" d="M 362.050781 201.085938 L 339.601562 201.085938 L 339.601562 162.765625 L 362.050781 162.765625 Z M 362.050781 201.085938 " fill-opacity="1" fill-rule="nonzero"/></g><g clip-path="url(#9d1928025b)"><path fill="#303030" d="M 345.210938 214.417969 L 340.1875 214.417969 L 340.1875 149.433594 L 345.210938 149.433594 Z M 345.210938 214.417969 " fill-opacity="1" fill-rule="nonzero"/></g><g fill="#ffcc00" fill-opacity="1"><g transform="translate(25.058171, 222.147645)"><g><path d="M 1.0625 -11.046875 L 0.1875 -1.984375 C 0.164062 -1.710938 0.0234375 -1.585938 -0.234375 -1.609375 L -1.90625 -1.78125 C -2.164062 -1.800781 -2.285156 -1.945312 -2.265625 -2.21875 L -2.015625 -4.734375 L -20.625 -6.53125 L -20.875 -4.015625 C -20.894531 -3.742188 -21.035156 -3.617188 -21.296875 -3.640625 L -22.96875 -3.796875 C -23.226562 -3.828125 -23.347656 -3.976562 -23.328125 -4.25 L -21.703125 -21.0625 C -21.679688 -21.34375 -21.539062 -21.46875 -21.28125 -21.4375 L -16.015625 -20.9375 C -15.722656 -20.90625 -15.585938 -20.75 -15.609375 -20.46875 L -15.78125 -18.703125 C -15.8125 -18.441406 -15.972656 -18.328125 -16.265625 -18.359375 L -19.46875 -18.671875 L -20.359375 -9.375 L -12.234375 -8.59375 L -11.484375 -16.296875 C -11.460938 -16.566406 -11.320312 -16.6875 -11.0625 -16.65625 L -9.390625 -16.5 C -9.128906 -16.476562 -9.007812 -16.332031 -9.03125 -16.0625 L -9.78125 -8.359375 L -1.75 -7.578125 L -1.390625 -11.28125 C -1.367188 -11.539062 -1.226562 -11.660156 -0.96875 -11.640625 L 0.703125 -11.46875 C 0.960938 -11.445312 1.082031 -11.304688 1.0625 -11.046875 Z M 1.0625 -11.046875 "/></g></g></g><g fill="#ffcc00" fill-opacity="1"><g transform="translate(32.228749, 177.815397)"><g><path d="M 2.90625 -9.46875 L 0.59375 -1.90625 C 0.507812 -1.644531 0.34375 -1.550781 0.09375 -1.625 L -1.515625 -2.125 C -1.765625 -2.195312 -1.847656 -2.363281 -1.765625 -2.625 L -1.03125 -5.03125 L -18.890625 -10.53125 L -19.625 -8.125 C -19.707031 -7.863281 -19.875 -7.769531 -20.125 -7.84375 L -21.734375 -8.34375 C -21.984375 -8.414062 -22.066406 -8.582031 -21.984375 -8.84375 L -19.671875 -16.40625 C -19.585938 -16.675781 -19.421875 -16.773438 -19.171875 -16.703125 L -17.5625 -16.203125 C -17.3125 -16.128906 -17.226562 -15.957031 -17.3125 -15.6875 L -18.046875 -13.265625 L -0.1875 -7.765625 L 0.546875 -10.1875 C 0.628906 -10.457031 0.796875 -10.554688 1.046875 -10.484375 L 2.65625 -9.984375 C 2.90625 -9.910156 2.988281 -9.738281 2.90625 -9.46875 Z M 2.90625 -9.46875 "/></g></g></g><g fill="#ffcc00" fill-opacity="1"><g transform="translate(44.571692, 144.081997)"><g><path d="M 7.65625 -13.75 L 3.921875 -7.046875 C 3.785156 -6.796875 3.59375 -6.738281 3.34375 -6.875 L 1.9375 -7.671875 C 1.6875 -7.804688 1.628906 -8 1.765625 -8.25 L 2.984375 -10.4375 L -13.34375 -19.515625 L -16.375 -14.078125 L -13.328125 -12.390625 C -13.054688 -12.234375 -12.992188 -12.023438 -13.140625 -11.765625 L -14.03125 -10.140625 C -14.1875 -9.867188 -14.398438 -9.8125 -14.671875 -9.96875 L -19.515625 -12.65625 C -19.753906 -12.789062 -19.796875 -12.992188 -19.640625 -13.265625 L -10 -30.59375 C -9.851562 -30.875 -9.660156 -30.945312 -9.421875 -30.8125 L -4.578125 -28.125 C -4.304688 -27.96875 -4.242188 -27.75 -4.390625 -27.46875 L -5.3125 -25.828125 C -5.445312 -25.585938 -5.648438 -25.546875 -5.921875 -25.703125 L -8.96875 -27.390625 L -11.953125 -22.015625 L 4.375 -12.9375 L 5.5 -14.953125 C 5.644531 -15.210938 5.84375 -15.273438 6.09375 -15.140625 L 7.5 -14.34375 C 7.75 -14.207031 7.800781 -14.007812 7.65625 -13.75 Z M 7.65625 -13.75 "/></g></g></g><g fill="#ffcc00" fill-opacity="1"><g transform="translate(70.008308, 103.945558)"><g><path d="M 15.078125 -16.078125 L 13.859375 -14.78125 C 13.578125 -14.476562 13.289062 -14.296875 13 -14.234375 C 12.71875 -14.179688 12.378906 -14.1875 11.984375 -14.25 L -5.390625 -17.484375 L -8.515625 -18.1875 L -8.5625 -18.140625 L 3.25 -7.0625 L 4.984375 -8.921875 C 5.171875 -9.117188 5.359375 -9.128906 5.546875 -8.953125 L 6.78125 -7.796875 C 6.96875 -7.617188 6.96875 -7.429688 6.78125 -7.234375 L 1.375 -1.453125 C 1.175781 -1.253906 0.984375 -1.242188 0.796875 -1.421875 L -0.4375 -2.578125 C -0.625 -2.753906 -0.617188 -2.941406 -0.421875 -3.140625 L 1.296875 -4.984375 L -12.34375 -17.765625 L -14.0625 -15.921875 C -14.257812 -15.722656 -14.453125 -15.710938 -14.640625 -15.890625 L -15.875 -17.046875 C -16.0625 -17.222656 -16.054688 -17.410156 -15.859375 -17.609375 L -12.71875 -20.984375 C -12.28125 -21.441406 -11.625 -21.59375 -10.75 -21.4375 L 6.359375 -18.25 L 9.984375 -17.4375 L 10.015625 -17.484375 L -2.03125 -28.78125 L -3.765625 -26.921875 C -3.941406 -26.734375 -4.125 -26.726562 -4.3125 -26.90625 L -5.546875 -28.0625 C -5.734375 -28.238281 -5.738281 -28.421875 -5.5625 -28.609375 L -0.125 -34.40625 C 0.0507812 -34.59375 0.234375 -34.597656 0.421875 -34.421875 L 1.65625 -33.265625 C 1.84375 -33.085938 1.847656 -32.90625 1.671875 -32.71875 L -0.078125 -30.859375 L 15.078125 -16.65625 C 15.265625 -16.476562 15.265625 -16.285156 15.078125 -16.078125 Z M 15.078125 -16.078125 "/></g></g></g><g fill="#ffcc00" fill-opacity="1"><g transform="translate(106.849605, 69.259102)"><g><path d="M 16.3125 -10.65625 L 1.671875 -1.09375 C 1.441406 -0.9375 1.253906 -0.96875 1.109375 -1.1875 L 0.1875 -2.59375 C 0.0507812 -2.8125 0.0976562 -3 0.328125 -3.15625 L 2.4375 -4.53125 L -7.78125 -20.1875 L -9.890625 -18.8125 C -10.117188 -18.65625 -10.304688 -18.6875 -10.453125 -18.90625 L -11.375 -20.3125 C -11.507812 -20.53125 -11.460938 -20.71875 -11.234375 -20.875 L 3.40625 -30.4375 C 3.644531 -30.582031 3.832031 -30.546875 3.96875 -30.328125 L 6.875 -25.890625 C 7.03125 -25.648438 6.988281 -25.457031 6.75 -25.3125 L 5.265625 -24.328125 C 5.046875 -24.191406 4.859375 -24.242188 4.703125 -24.484375 L 2.9375 -27.1875 L -5.390625 -21.75 L -0.9375 -14.921875 L 6.046875 -19.46875 C 6.273438 -19.625 6.460938 -19.59375 6.609375 -19.375 L 7.53125 -17.953125 C 7.675781 -17.734375 7.632812 -17.546875 7.40625 -17.390625 L 0.421875 -12.84375 L 4.828125 -6.09375 L 13.125 -11.515625 L 11.359375 -14.21875 C 11.210938 -14.445312 11.257812 -14.632812 11.5 -14.78125 L 12.984375 -15.765625 C 13.222656 -15.910156 13.414062 -15.867188 13.5625 -15.640625 L 16.453125 -11.203125 C 16.597656 -10.984375 16.550781 -10.800781 16.3125 -10.65625 Z M 16.3125 -10.65625 "/></g></g></g><g fill="#ffcc00" fill-opacity="1"><g transform="translate(146.149595, 46.809743)"><g><path d="M 3.609375 -1.328125 L 1.875 -0.6875 C 1.613281 -0.59375 1.4375 -0.664062 1.34375 -0.90625 L -1.296875 -8.140625 C -1.390625 -8.410156 -1.304688 -8.59375 -1.046875 -8.6875 L 0.90625 -9.40625 C 1.15625 -9.488281 1.328125 -9.394531 1.421875 -9.125 L 1.65625 -8.484375 C 1.800781 -8.097656 2.226562 -7.664062 2.9375 -7.1875 C 3.65625 -6.71875 4.320312 -6.363281 4.9375 -6.125 C 5.5625 -5.882812 6.320312 -5.757812 7.21875 -5.75 C 8.125 -5.738281 9.039062 -5.898438 9.96875 -6.234375 C 11.550781 -6.816406 12.671875 -7.601562 13.328125 -8.59375 C 13.984375 -9.582031 14.097656 -10.664062 13.671875 -11.84375 C 13.421875 -12.519531 12.953125 -13.003906 12.265625 -13.296875 C 11.585938 -13.597656 10.796875 -13.742188 9.890625 -13.734375 C 8.984375 -13.734375 7.992188 -13.675781 6.921875 -13.5625 C 5.859375 -13.457031 4.78125 -13.382812 3.6875 -13.34375 C 2.59375 -13.3125 1.5625 -13.367188 0.59375 -13.515625 C -0.363281 -13.671875 -1.242188 -14.050781 -2.046875 -14.65625 C -2.847656 -15.269531 -3.445312 -16.109375 -3.84375 -17.171875 C -4.46875 -18.898438 -4.332031 -20.570312 -3.4375 -22.1875 C -2.539062 -23.800781 -0.992188 -25.007812 1.203125 -25.8125 C 3.992188 -26.832031 6.332031 -26.757812 8.21875 -25.59375 L 7.453125 -27.5 C 7.367188 -27.75 7.457031 -27.921875 7.71875 -28.015625 L 9.453125 -28.65625 C 9.703125 -28.75 9.867188 -28.671875 9.953125 -28.421875 L 12.421875 -21.6875 C 12.515625 -21.445312 12.4375 -21.28125 12.1875 -21.1875 L 10.25 -20.46875 C 10 -20.375 9.828125 -20.445312 9.734375 -20.6875 L 9.421875 -21.5625 C 9.109375 -22.394531 8.316406 -23.070312 7.046875 -23.59375 C 5.785156 -24.125 4.238281 -24.050781 2.40625 -23.375 C 1.039062 -22.882812 0.0664062 -22.160156 -0.515625 -21.203125 C -1.109375 -20.242188 -1.222656 -19.257812 -0.859375 -18.25 C -0.585938 -17.53125 -0.101562 -17.003906 0.59375 -16.671875 C 1.289062 -16.347656 2.109375 -16.179688 3.046875 -16.171875 C 3.984375 -16.171875 4.992188 -16.222656 6.078125 -16.328125 C 7.171875 -16.429688 8.265625 -16.507812 9.359375 -16.5625 C 10.460938 -16.613281 11.503906 -16.570312 12.484375 -16.4375 C 13.460938 -16.3125 14.347656 -15.96875 15.140625 -15.40625 C 15.941406 -14.84375 16.53125 -14.046875 16.90625 -13.015625 C 17.570312 -11.191406 17.46875 -9.457031 16.59375 -7.8125 C 15.71875 -6.164062 13.992188 -4.875 11.421875 -3.9375 C 9.523438 -3.238281 7.816406 -3.039062 6.296875 -3.34375 C 4.785156 -3.65625 3.59375 -4.160156 2.71875 -4.859375 L 3.84375 -1.8125 C 3.9375 -1.570312 3.859375 -1.410156 3.609375 -1.328125 Z M 3.609375 -1.328125 "/></g></g></g><g fill="#ffcc00" fill-opacity="1"><g transform="translate(189.900203, 33.68977)"><g><path d="M 3.8125 -0.46875 L 1.984375 -0.25 C 1.703125 -0.207031 1.546875 -0.316406 1.515625 -0.578125 L 0.578125 -8.21875 C 0.535156 -8.5 0.65625 -8.660156 0.9375 -8.703125 L 3 -8.953125 C 3.257812 -8.984375 3.410156 -8.859375 3.453125 -8.578125 L 3.53125 -7.890625 C 3.582031 -7.484375 3.898438 -6.96875 4.484375 -6.34375 C 5.066406 -5.71875 5.632812 -5.21875 6.1875 -4.84375 C 6.75 -4.46875 7.46875 -4.171875 8.34375 -3.953125 C 9.21875 -3.742188 10.144531 -3.703125 11.125 -3.828125 C 12.800781 -4.035156 14.066406 -4.546875 14.921875 -5.359375 C 15.785156 -6.171875 16.144531 -7.195312 16 -8.4375 C 15.90625 -9.144531 15.5625 -9.722656 14.96875 -10.171875 C 14.375 -10.617188 13.632812 -10.941406 12.75 -11.140625 C 11.863281 -11.335938 10.882812 -11.503906 9.8125 -11.640625 C 8.75 -11.785156 7.679688 -11.960938 6.609375 -12.171875 C 5.535156 -12.378906 4.546875 -12.664062 3.640625 -13.03125 C 2.734375 -13.40625 1.957031 -13.972656 1.3125 -14.734375 C 0.675781 -15.503906 0.289062 -16.457031 0.15625 -17.59375 C -0.0703125 -19.414062 0.429688 -21.015625 1.671875 -22.390625 C 2.910156 -23.765625 4.691406 -24.59375 7.015625 -24.875 C 9.960938 -25.238281 12.222656 -24.640625 13.796875 -23.078125 L 13.484375 -25.09375 C 13.453125 -25.351562 13.578125 -25.503906 13.859375 -25.546875 L 15.6875 -25.765625 C 15.957031 -25.796875 16.109375 -25.679688 16.140625 -25.421875 L 17.015625 -18.296875 C 17.046875 -18.035156 16.925781 -17.890625 16.65625 -17.859375 L 14.609375 -17.609375 C 14.335938 -17.578125 14.1875 -17.691406 14.15625 -17.953125 L 14.046875 -18.875 C 13.941406 -19.757812 13.332031 -20.597656 12.21875 -21.390625 C 11.113281 -22.179688 9.585938 -22.457031 7.640625 -22.21875 C 6.203125 -22.039062 5.082031 -21.554688 4.28125 -20.765625 C 3.488281 -19.972656 3.160156 -19.046875 3.296875 -17.984375 C 3.390625 -17.210938 3.742188 -16.585938 4.359375 -16.109375 C 4.972656 -15.640625 5.726562 -15.289062 6.625 -15.0625 C 7.53125 -14.84375 8.523438 -14.660156 9.609375 -14.515625 C 10.703125 -14.378906 11.789062 -14.207031 12.875 -14 C 13.957031 -13.800781 14.957031 -13.53125 15.875 -13.1875 C 16.800781 -12.84375 17.585938 -12.304688 18.234375 -11.578125 C 18.878906 -10.847656 19.269531 -9.941406 19.40625 -8.859375 C 19.644531 -6.929688 19.148438 -5.257812 17.921875 -3.84375 C 16.703125 -2.4375 14.734375 -1.566406 12.015625 -1.234375 C 10.015625 -0.992188 8.3125 -1.195312 6.90625 -1.84375 C 5.5 -2.488281 4.445312 -3.242188 3.75 -4.109375 L 4.171875 -0.90625 C 4.203125 -0.644531 4.082031 -0.5 3.8125 -0.46875 Z M 3.8125 -0.46875 "/></g></g></g><g fill="#ffcc00" fill-opacity="1"><g transform="translate(235.768925, 31.068939)"><g/></g></g><g fill="#ffcc00" fill-opacity="1"><g transform="translate(269.815771, 35.503273)"><g><path d="M 23.6875 0.78125 C 23.757812 0.875 23.78125 0.976562 23.75 1.09375 C 23.71875 1.207031 23.625 1.351562 23.46875 1.53125 C 23.320312 1.707031 23.085938 1.925781 22.765625 2.1875 C 22.441406 2.457031 21.914062 2.789062 21.1875 3.1875 C 20.457031 3.582031 19.691406 3.890625 18.890625 4.109375 C 18.097656 4.328125 17.101562 4.425781 15.90625 4.40625 C 14.707031 4.394531 13.476562 4.203125 12.21875 3.828125 C 9.144531 2.929688 6.894531 1.109375 5.46875 -1.640625 C 4.050781 -4.390625 3.851562 -7.503906 4.875 -10.984375 C 5.90625 -14.472656 7.757812 -16.941406 10.4375 -18.390625 C 13.125 -19.847656 15.929688 -20.148438 18.859375 -19.296875 C 22.117188 -18.328125 24.15625 -16.5 24.96875 -13.8125 L 25.75 -16.640625 C 25.78125 -16.898438 25.945312 -16.984375 26.25 -16.890625 L 28.015625 -16.375 C 28.285156 -16.289062 28.382812 -16.125 28.3125 -15.875 L 26.28125 -9 C 26.195312 -8.71875 26.019531 -8.617188 25.75 -8.703125 L 23.75 -9.28125 C 23.5 -9.351562 23.414062 -9.53125 23.5 -9.8125 L 23.59375 -10.09375 C 23.875 -11.0625 23.507812 -12.257812 22.5 -13.6875 C 21.488281 -15.125 20.003906 -16.128906 18.046875 -16.703125 C 16.097656 -17.273438 14.109375 -17.019531 12.078125 -15.9375 C 10.054688 -14.851562 8.628906 -12.894531 7.796875 -10.0625 C 6.960938 -7.238281 7.101562 -4.804688 8.21875 -2.765625 C 9.34375 -0.734375 10.96875 0.59375 13.09375 1.21875 C 15.382812 1.894531 17.347656 1.910156 18.984375 1.265625 C 20.234375 0.773438 21.222656 0.179688 21.953125 -0.515625 C 22.222656 -0.765625 22.441406 -0.765625 22.609375 -0.515625 Z M 23.6875 0.78125 "/></g></g></g><g fill="#ffcc00" fill-opacity="1"><g transform="translate(315.350381, 51.998246)"><g><path d="M 16.90625 9.6875 L 1.734375 1 C 1.492188 0.851562 1.4375 0.664062 1.5625 0.4375 L 2.40625 -1.015625 C 2.539062 -1.242188 2.726562 -1.285156 2.96875 -1.140625 L 5.15625 0.109375 L 14.4375 -16.109375 L 12.25 -17.359375 C 12.007812 -17.503906 11.957031 -17.6875 12.09375 -17.90625 L 12.921875 -19.375 C 13.054688 -19.601562 13.242188 -19.644531 13.484375 -19.5 L 28.65625 -10.8125 C 28.894531 -10.664062 28.945312 -10.476562 28.8125 -10.25 L 26.1875 -5.65625 C 26.039062 -5.40625 25.847656 -5.351562 25.609375 -5.5 L 24.0625 -6.390625 C 23.832031 -6.515625 23.789062 -6.703125 23.9375 -6.953125 L 25.53125 -9.75 L 16.90625 -14.6875 L 12.859375 -7.609375 L 20.09375 -3.46875 C 20.332031 -3.332031 20.382812 -3.148438 20.25 -2.921875 L 19.421875 -1.453125 C 19.285156 -1.234375 19.097656 -1.191406 18.859375 -1.328125 L 11.625 -5.46875 L 7.625 1.53125 L 16.234375 6.453125 L 17.828125 3.65625 C 17.960938 3.425781 18.148438 3.378906 18.390625 3.515625 L 19.9375 4.40625 C 20.175781 4.550781 20.226562 4.738281 20.09375 4.96875 L 17.453125 9.5625 C 17.328125 9.789062 17.144531 9.832031 16.90625 9.6875 Z M 16.90625 9.6875 "/></g></g></g><g fill="#ffcc00" fill-opacity="1"><g transform="translate(353.219584, 76.59235)"><g><path d="M 15.984375 15.1875 L 14.6875 13.953125 C 14.382812 13.671875 14.203125 13.382812 14.140625 13.09375 C 14.085938 12.8125 14.101562 12.472656 14.1875 12.078125 L 17.53125 -5.265625 L 18.234375 -8.40625 L 18.1875 -8.453125 L 7.046875 3.28125 L 8.890625 5.03125 C 9.085938 5.21875 9.097656 5.410156 8.921875 5.609375 L 7.75 6.828125 C 7.570312 7.015625 7.382812 7.015625 7.1875 6.828125 L 1.453125 1.375 C 1.242188 1.1875 1.226562 1 1.40625 0.8125 L 2.578125 -0.40625 C 2.753906 -0.601562 2.945312 -0.609375 3.15625 -0.421875 L 4.96875 1.3125 L 17.84375 -12.21875 L 16.03125 -13.953125 C 15.820312 -14.140625 15.804688 -14.332031 15.984375 -14.53125 L 17.140625 -15.75 C 17.328125 -15.9375 17.523438 -15.9375 17.734375 -15.75 L 21.078125 -12.578125 C 21.535156 -12.140625 21.6875 -11.484375 21.53125 -10.609375 L 18.203125 6.5 L 17.375 10.109375 L 17.421875 10.15625 L 28.796875 -1.8125 L 26.953125 -3.5625 C 26.765625 -3.738281 26.757812 -3.925781 26.9375 -4.125 L 28.09375 -5.34375 C 28.28125 -5.53125 28.46875 -5.535156 28.65625 -5.359375 L 34.421875 0.109375 C 34.609375 0.285156 34.609375 0.46875 34.421875 0.65625 L 33.265625 1.875 C 33.085938 2.070312 32.90625 2.082031 32.71875 1.90625 L 30.859375 0.15625 L 16.546875 15.203125 C 16.367188 15.390625 16.179688 15.382812 15.984375 15.1875 Z M 15.984375 15.1875 "/></g></g></g><g fill="#ffcc00" fill-opacity="1"><g transform="translate(387.673092, 113.581688)"><g><path d="M 8.4375 13.28125 L 4.328125 6.8125 C 4.171875 6.570312 4.210938 6.378906 4.453125 6.234375 L 5.828125 5.359375 C 6.054688 5.203125 6.25 5.242188 6.40625 5.484375 L 7.734375 7.59375 L 23.515625 -2.421875 L 20.1875 -7.671875 L 17.25 -5.796875 C 16.976562 -5.628906 16.757812 -5.675781 16.59375 -5.9375 L 15.609375 -7.484375 C 15.441406 -7.753906 15.492188 -7.972656 15.765625 -8.140625 L 20.4375 -11.109375 C 20.664062 -11.253906 20.863281 -11.191406 21.03125 -10.921875 L 31.65625 5.8125 C 31.820312 6.070312 31.789062 6.273438 31.5625 6.421875 L 26.890625 9.390625 C 26.617188 9.554688 26.398438 9.507812 26.234375 9.25 L 25.234375 7.671875 C 25.085938 7.429688 25.148438 7.226562 25.421875 7.0625 L 28.359375 5.1875 L 25.046875 -0.015625 L 9.265625 10 L 10.515625 11.953125 C 10.671875 12.210938 10.632812 12.421875 10.40625 12.578125 L 9.03125 13.453125 C 8.789062 13.597656 8.59375 13.539062 8.4375 13.28125 Z M 8.4375 13.28125 "/></g></g></g><g fill="#ffcc00" fill-opacity="1"><g transform="translate(410.711196, 155.271869)"><g><path d="M 6.375 18.40625 L 0.65625 1.890625 C 0.5625 1.617188 0.640625 1.441406 0.890625 1.359375 L 2.484375 0.796875 C 2.722656 0.710938 2.890625 0.804688 2.984375 1.078125 L 3.8125 3.453125 L 21.46875 -2.65625 L 20.640625 -5.03125 C 20.546875 -5.300781 20.625 -5.476562 20.875 -5.5625 L 22.46875 -6.125 C 22.71875 -6.207031 22.890625 -6.113281 22.984375 -5.84375 L 28.703125 10.671875 C 28.796875 10.941406 28.71875 11.117188 28.46875 11.203125 L 23.46875 12.9375 C 23.1875 13.03125 23 12.941406 22.90625 12.671875 L 22.328125 11 C 22.242188 10.75 22.34375 10.578125 22.625 10.484375 L 25.65625 9.4375 L 22.390625 0.046875 L 14.6875 2.71875 L 17.421875 10.59375 C 17.515625 10.851562 17.441406 11.023438 17.203125 11.109375 L 15.59375 11.65625 C 15.351562 11.738281 15.1875 11.648438 15.09375 11.390625 L 12.359375 3.515625 L 4.734375 6.15625 L 7.984375 15.515625 L 11.03125 14.46875 C 11.289062 14.375 11.46875 14.460938 11.5625 14.734375 L 12.140625 16.40625 C 12.234375 16.675781 12.148438 16.859375 11.890625 16.953125 L 6.890625 18.6875 C 6.640625 18.769531 6.46875 18.675781 6.375 18.40625 Z M 6.375 18.40625 "/></g></g></g><g fill="#ffcc00" fill-opacity="1"><g transform="translate(422.998285, 198.802258)"><g><path d="M 2.203125 21.4375 L 1.90625 18.59375 C 1.820312 17.800781 2.273438 17.09375 3.265625 16.46875 L 9.203125 12.75 C 9.722656 12.4375 10.101562 12.117188 10.34375 11.796875 C 10.582031 11.472656 10.679688 11.046875 10.640625 10.515625 L 10.21875 6.375 L 3.203125 7.09375 L 3.5 10.03125 C 3.53125 10.289062 3.414062 10.429688 3.15625 10.453125 L 1.484375 10.625 C 1.222656 10.65625 1.078125 10.539062 1.046875 10.28125 L 0.203125 1.984375 C 0.171875 1.703125 0.285156 1.546875 0.546875 1.515625 L 2.21875 1.34375 C 2.476562 1.320312 2.625 1.453125 2.65625 1.734375 L 2.90625 4.234375 L 21.5 2.328125 L 21.25 -0.171875 C 21.21875 -0.453125 21.332031 -0.609375 21.59375 -0.640625 L 23.265625 -0.8125 C 23.523438 -0.832031 23.671875 -0.703125 23.703125 -0.421875 L 24.734375 9.671875 C 24.972656 12.003906 24.550781 13.960938 23.46875 15.546875 C 22.382812 17.140625 20.71875 18.050781 18.46875 18.28125 C 15.050781 18.632812 12.75 17.25 11.5625 14.125 C 11.289062 14.570312 10.613281 15.160156 9.53125 15.890625 L 4.453125 19.1875 L 4.65625 21.1875 C 4.675781 21.457031 4.554688 21.601562 4.296875 21.625 L 2.625 21.796875 C 2.363281 21.828125 2.222656 21.707031 2.203125 21.4375 Z M 12.53125 6.140625 L 12.96875 10.3125 C 13.34375 14.019531 15.050781 15.71875 18.09375 15.40625 C 21.226562 15.082031 22.609375 13.066406 22.234375 9.359375 L 21.796875 5.1875 Z M 12.53125 6.140625 "/></g></g></g></svg>