<svg xmlns="http://www.w3.org/2000/svg" xmlns:xlink="http://www.w3.org/1999/xlink" width="1080" zoomAndPan="magnify" viewBox="0 0 810 587.249981" height="783" preserveAspectRatio="xMidYMid meet" version="1.0"><defs><clipPath id="0d2ef1fb15"><path d="M 0.515625 0 L 809 0 L 809 586.011719 L 0.515625 586.011719 Z M 0.515625 0 " clip-rule="nonzero"/></clipPath><clipPath id="fc723ce95f"><path d="M 0.515625 586.011719 L 809.484375 293.003906 L 0.515625 -0.0078125 Z M 0.515625 586.011719 " clip-rule="nonzero"/></clipPath><clipPath id="80796e0181"><path d="M 29 231.101562 L 575 231.101562 L 575 369.335938 L 29 369.335938 Z M 29 231.101562 " clip-rule="nonzero"/></clipPath><clipPath id="6c499a7b17"><path d="M 0.515625 216.582031 L 548.382812 216.582031 L 548.382812 354.816406 L 0.515625 354.816406 Z M 0.515625 216.582031 " clip-rule="nonzero"/></clipPath></defs><g clip-path="url(#0d2ef1fb15)"><g clip-path="url(#fc723ce95f)"><path fill="#ffcc00" d="M 0.515625 586.011719 L 0.515625 -0.0078125 L 808.582031 -0.0078125 L 808.582031 586.011719 Z M 0.515625 586.011719 " fill-opacity="1" fill-rule="nonzero"/></g></g><g clip-path="url(#80796e0181)"><path fill="#ffffff" d="M 479.328125 231.101562 L 331.179688 369.335938 L 425.917969 369.335938 L 574.066406 231.101562 Z M 424.976562 366.882812 L 337.21875 366.882812 L 480.269531 233.550781 L 567.839844 233.550781 Z M 328.347656 231.101562 L 180.199219 369.335938 L 274.941406 369.335938 L 423.085938 231.101562 Z M 273.996094 366.882812 L 186.429688 366.882812 L 329.480469 233.550781 L 417.238281 233.550781 Z M 177.558594 231.101562 L 29.410156 369.335938 L 124.148438 369.335938 L 272.296875 231.101562 Z M 123.207031 366.882812 L 35.640625 366.882812 L 178.503906 233.550781 L 266.257812 233.550781 Z M 123.207031 366.882812 " fill-opacity="1" fill-rule="nonzero"/></g><g clip-path="url(#6c499a7b17)"><path fill="#000000" d="M 455.601562 216.59375 L 307.492188 354.90625 L 400.273438 354.90625 L 548.382812 216.59375 Z M 302.113281 216.59375 L 154.003906 354.90625 L 246.789062 354.90625 L 394.894531 216.59375 Z M 148.625 216.59375 L 0.515625 354.90625 L 93.300781 354.90625 L 241.410156 216.59375 Z M 148.625 216.59375 " fill-opacity="1" fill-rule="nonzero"/></g></svg>